<?xml version="1.0" encoding="UTF-8" standalone="no"?>
<!-- Created with Inkscape (http://www.inkscape.org/) -->

<svg
   width="8.6090002mm"
   height="4.98mm"
   viewBox="0 0 8.6090002 4.98"
   version="1.1"
   id="svg1"
   inkscape:version="1.4.2 (f4327f4, 2025-05-13)"
   sodipodi:docname="screwR.svg"
   xmlns:inkscape="http://www.inkscape.org/namespaces/inkscape"
   xmlns:sodipodi="http://sodipodi.sourceforge.net/DTD/sodipodi-0.dtd"
   xmlns="http://www.w3.org/2000/svg"
   xmlns:svg="http://www.w3.org/2000/svg">
  <sodipodi:namedview
     id="namedview1"
     pagecolor="#ffffff"
     bordercolor="#000000"
     borderopacity="0.25"
     inkscape:showpageshadow="2"
     inkscape:pageopacity="0.0"
     inkscape:pagecheckerboard="0"
     inkscape:deskcolor="#d1d1d1"
     inkscape:document-units="mm"
     inkscape:zoom="17.261167"
     inkscape:cx="9.3852287"
     inkscape:cy="13.527475"
     inkscape:window-width="2560"
     inkscape:window-height="1494"
     inkscape:window-x="-11"
     inkscape:window-y="-11"
     inkscape:window-maximized="1"
     inkscape:current-layer="g8" />
  <defs
     id="defs1" />
  <g
     inkscape:label="Layer 1"
     inkscape:groupmode="layer"
     id="layer1">
    <g
       id="g8"
       inkscape:label="top screw"
       style="clip-rule:evenodd;display:inline;fill-rule:evenodd;stroke-linejoin:bevel;stroke-miterlimit:1.5"
       transform="translate(-16.790906,9.4413757e-5)">
      <path
         d="m 23.866123,3.7182779 c 0.303036,-0.2843389 0.492125,-0.6882695 0.492125,-1.1359445 0,-0.244475 -0.05609,-0.4755444 -0.156633,-0.6815667 C 24.07779,1.6467667 23.886584,1.4312195 23.651281,1.2774084 23.406806,1.1176 23.114706,1.0248195 22.801087,1.0248195 h -3.6322 c -0.31362,0 -0.60572,0.09278 -0.850195,0.2525889 -0.09948,0.064911 -0.190852,0.1411111 -0.27305,0.2264833 -0.11183,0.1164167 -0.205669,0.2504722 -0.277283,0.396875 -0.100542,0.2060223 -0.156986,0.4370917 -0.156986,0.6815667 0,0.4183945 0.165453,0.7983362 0.434269,1.0784417 0.01905,0.019756 0.03845,0.038806 0.05821,0.057503 0.14605,0.1368778 0.318558,0.2462389 0.508705,0.3189111 0.172861,0.066322 0.360539,0.1026584 0.556331,0.1026584 h 3.6322 c 0.195792,0 0.383469,-0.036336 0.55633,-0.1026584 0.190148,-0.072672 0.362656,-0.1820333 0.508706,-0.3189111 z"
         style="fill:#cdcdcd;stroke-width:0.352778"
         id="path37" />
      <path
         d="m 18.318692,1.2774084 h 5.332589 C 23.406806,1.1176 23.114706,1.0248195 22.801087,1.0248195 h -3.6322 c -0.31362,0 -0.60572,0.09278 -0.850195,0.2525889 z"
         style="fill:#b2b5b8;stroke-width:0.352778"
         id="path38" />
      <path
         d="m 18.642895,1.9007667 h 3.287184 c 0.203905,-0.263525 0.523169,-0.4335639 0.881591,-0.4335639 0.358775,0 0.678039,0.1700389 0.881592,0.4335639 h 0.508353 c -0.123825,-0.254 -0.315031,-0.4695472 -0.550334,-0.6233583 h -5.332589 c -0.09948,0.064911 -0.190852,0.1411111 -0.27305,0.2264833 0.240595,0.0635 0.449439,0.2053167 0.597253,0.396875 z"
         style="fill:#cdcdcd;stroke-width:0.352778"
         id="path39" />
      <path
         d="m 18.103851,3.7182779 h 5.762272 c 0.303036,-0.2843389 0.492125,-0.6882695 0.492125,-1.1359445 0,-0.244475 -0.05609,-0.4755444 -0.156633,-0.6815667 h -0.508353 c 0.145697,0.1887362 0.23248,0.4250973 0.23248,0.6815667 0,0.6152445 -0.49918,1.1151306 -1.114072,1.1151306 -0.614539,0 -1.113719,-0.4998861 -1.113719,-1.1151306 0,-0.2564694 0.08678,-0.4928305 0.232128,-0.6815667 h -3.287184 c 0.145697,0.1887362 0.232481,0.4250973 0.232481,0.6815667 0,0.5171723 -0.352425,0.9525001 -0.829734,1.0784417 0.01905,0.019756 0.03845,0.038806 0.05821,0.057503 z"
         style="fill:#dedede;stroke-width:0.352778"
         id="path40" />
      <path
         d="m 18.612556,4.037189 h 4.744861 c 0.190148,-0.072672 0.362656,-0.1820333 0.508706,-0.3189111 h -5.762272 c 0.14605,0.1368778 0.318558,0.2462389 0.508705,0.3189111 z"
         style="fill:#f0f0f0;stroke-width:0.352778"
         id="path41" />
      <path
         d="m 19.168887,4.1398474 h 3.6322 c 0.195792,0 0.383469,-0.036336 0.55633,-0.1026584 h -4.744861 c 0.172861,0.066322 0.360539,0.1026584 0.556331,0.1026584 z"
         style="fill:#dedede;stroke-width:0.352778"
         id="path42" />
      <path
         d="m 17.768359,1.9007667 c -0.100542,0.2060223 -0.156986,0.4370917 -0.156986,0.6815667 0,0.4183945 0.165453,0.7983362 0.434269,1.0784417 0.477309,-0.1259416 0.829734,-0.5612694 0.829734,-1.0784417 0,-0.091369 -0.01094,-0.1802694 -0.03175,-0.2652889 -0.0374,-0.1534583 -0.106892,-0.2949222 -0.200731,-0.4162778 -0.147814,-0.1915583 -0.356658,-0.333375 -0.597253,-0.396875 -0.11183,0.1164167 -0.205669,0.2504722 -0.277283,0.396875 z"
         style="fill:#999999;stroke-width:0.352778"
         id="path43" />
      <path
         d="m 21.930079,1.9007667 c -0.145345,0.1887362 -0.232128,0.4250973 -0.232128,0.6815667 0,0.6152445 0.49918,1.1151306 1.113719,1.1151306 0.614892,0 1.114072,-0.4998861 1.114072,-1.1151306 0,-0.2564694 -0.08678,-0.4928305 -0.23248,-0.6815667 -0.203553,-0.263525 -0.522817,-0.4335639 -0.881592,-0.4335639 -0.358422,0 -0.677686,0.1700389 -0.881591,0.4335639 z"
         style="fill:#999999;stroke-width:0.352778"
         id="path44" />
      <rect
         x="16.790812"
         y="0"
         width="8.609189"
         height="4.9798112"
         style="fill:#ffffff;fill-opacity:0;stroke-width:0.352778"
         id="rect44" />
      <path
         d="m 23.866123,3.7182779 c -0.14605,0.1368778 -0.318558,0.2462389 -0.508706,0.3189111 -0.172861,0.066322 -0.360538,0.1026584 -0.55633,0.1026584 h -3.6322 c -0.195792,0 -0.38347,-0.036336 -0.556331,-0.1026584 -0.190147,-0.072672 -0.362655,-0.1820333 -0.508705,-0.3189111 -0.01976,-0.018697 -0.03916,-0.037747 -0.05821,-0.057503 -0.268816,-0.2801055 -0.434269,-0.6600472 -0.434269,-1.0784417 0,-0.244475 0.05644,-0.4755444 0.156986,-0.6815667 0.07161,-0.1464028 0.165453,-0.2804583 0.277283,-0.396875 0.0822,-0.085372 0.173567,-0.1615722 0.27305,-0.2264833 C 18.563167,1.1176 18.855267,1.0248195 19.168887,1.0248195 h 3.6322 c 0.313619,0 0.605719,0.09278 0.850194,0.2525889 0.235303,0.1538111 0.426509,0.3693583 0.550334,0.6233583 0.100541,0.2060223 0.156633,0.4370917 0.156633,0.6815667 0,0.447675 -0.189089,0.8516056 -0.492125,1.1359445 z M 23.543684,3.3743196 c 0.210961,-0.1982612 0.343253,-0.4797778 0.343253,-0.7919862 0,-0.1703916 -0.03916,-0.3312583 -0.109008,-0.4748389 C 23.691498,1.9300473 23.557795,1.7794112 23.393401,1.6721667 23.223009,1.5606889 23.019456,1.4961306 22.801087,1.4961306 h -3.6322 c -0.21837,0 -0.421922,0.064558 -0.592314,0.1760361 -0.0695,0.045508 -0.133703,0.098425 -0.190853,0.1580445 -0.07796,0.081492 -0.143933,0.1749778 -0.193675,0.2772833 -0.06985,0.1435806 -0.109008,0.3044473 -0.109008,0.4748389 0,0.2917473 0.115358,0.5566834 0.302683,0.7517695 0.01305,0.013758 0.02681,0.027164 0.04057,0.040217 0.101952,0.095603 0.22225,0.1718027 0.354894,0.2226027 0.12065,0.046214 0.251178,0.071261 0.387703,0.071261 h 3.6322 c 0.136525,0 0.267053,-0.025047 0.387703,-0.071261 0.132644,-0.0508 0.252941,-0.127 0.354894,-0.222603 z"
         style="display:inline;fill-opacity:0.3;stroke-width:0.352778"
         id="path45" />
      <ellipse
         cx="22.811317"
         cy="2.7396722"
         rx="1.9522723"
         ry="2.1131389"
         style="display:inline;fill-opacity:0.1;stroke-width:0.352778"
         id="ellipse45" />
      <circle
         cx="22.811317"
         cy="2.5788057"
         r="1.9522723"
         style="display:inline;fill:#cfbb95;fill-opacity:1;stroke:#332a11;stroke-width:0.282222px;stroke-linejoin:round;stroke-opacity:1"
         id="circle45" />
      <circle
         cx="22.811317"
         cy="2.5788057"
         r="1.5649222"
         style="display:inline;fill:#b7a27e;fill-opacity:1;stroke-width:0.352778"
         id="circle46" />
      <path
         d="M 23.422681,1.6615834 23.72854,1.9674417 23.116823,2.5788056 23.72854,3.1901696 23.422681,3.4960279 22.811317,2.884664 22.199954,3.4960279 21.894095,3.1901696 22.505459,2.5788056 21.894095,1.9674417 22.199954,1.6615834 22.811317,2.2729473 Z"
         style="display:inline;fill:#8b7554;fill-opacity:1;stroke-width:0.352778"
         id="path46" />
    </g>
  </g>
</svg>
