<?xml version="1.0" encoding="UTF-8" standalone="no"?>
<!DOCTYPE svg PUBLIC "-//W3C//DTD SVG 1.1//EN" "http://www.w3.org/Graphics/SVG/1.1/DTD/svg11.dtd">
<svg width="100%" height="100%" viewBox="0 0 118 83" version="1.1" xmlns="http://www.w3.org/2000/svg" xmlns:xlink="http://www.w3.org/1999/xlink" xml:space="preserve" xmlns:serif="http://www.serif.com/" style="fill-rule:evenodd;clip-rule:evenodd;stroke-linecap:round;stroke-linejoin:round;stroke-miterlimit:1.5;">
    <g transform="matrix(1,0,0,1,-287.229,-339.396)">
        <path d="M347.07,340.647C347.07,340.647 349.038,353.229 351.512,354.42C353.985,355.611 361.912,347.795 361.912,347.795C361.912,347.795 357.042,357.083 359.515,358.274C361.989,359.465 376.754,354.942 376.754,354.942C376.754,354.942 364.443,362.543 365.054,365.22C365.665,367.896 380.42,371.003 380.42,371.003C380.42,371.003 366.42,371.203 367.031,373.88C367.642,376.557 384.086,387.063 384.086,387.063C384.086,387.063 366.766,380.394 365.054,382.541C363.342,384.688 373.815,399.943 373.815,399.943C373.815,399.943 361.227,387.34 359.515,389.486C357.803,391.633 363.544,412.823 363.544,412.823C363.544,412.823 354.257,393.341 351.512,393.341C348.766,393.341 347.07,420.823 347.07,420.823C347.07,420.823 345.374,393.341 342.628,393.341C339.883,393.341 330.596,412.823 330.596,412.823C330.596,412.823 336.336,391.633 334.624,389.486C332.913,387.34 320.325,399.943 320.325,399.943C320.325,399.943 330.798,384.688 329.086,382.541C327.374,380.394 310.054,387.063 310.054,387.063C310.054,387.063 326.498,376.557 327.109,373.88C327.72,371.203 313.72,371.003 313.72,371.003C313.72,371.003 328.475,367.896 329.086,365.22C329.697,362.543 317.385,354.942 317.385,354.942C317.385,354.942 332.151,359.465 334.624,358.274C337.098,357.083 332.228,347.795 332.228,347.795C332.228,347.795 340.154,355.611 342.628,354.42C345.102,353.229 347.07,340.647 347.07,340.647Z" style="stroke:black;stroke-width:2.5px;"/>
    </g>
    <g transform="matrix(0.643502,0,0,0.437248,-257.259,-115.696)">
        <path d="M553.506,332.882C552.543,319.517 555.588,267.461 555.588,267.461L558.403,267.461C558.403,267.461 561.203,325.882 562.327,325.882C563.451,325.882 565.148,267.461 565.148,267.461L568.491,267.461C568.491,267.461 570.188,325.882 571.312,325.882C572.436,325.882 575.236,267.461 575.236,267.461L578.052,267.461C578.052,267.461 581.707,319.517 580.133,332.882C579.254,340.355 572.945,340.157 572.274,347.651C570.125,371.654 574.898,375.032 574.898,422.897C574.898,428.213 572.136,432.529 566.82,432.529C561.503,432.529 558.741,428.213 558.741,422.897C558.741,375.032 563.514,371.654 561.365,347.651C560.694,340.157 553.906,338.444 553.506,332.882Z"/>
    </g>
    <g transform="matrix(0.643502,0,0,0.437248,-352.524,-115.696)">
        <path d="M550.398,310.011C551.307,296.646 557.693,267.461 566.82,267.461C575.946,267.461 582.332,296.646 583.241,310.011C584.128,323.05 572.945,340.157 572.274,347.651C570.125,371.654 574.898,375.032 574.898,422.897C574.898,428.213 572.136,432.529 566.82,432.529C561.503,432.529 558.741,428.213 558.741,422.897C558.741,375.032 563.514,371.654 561.365,347.651C560.694,340.157 549.511,323.05 550.398,310.011Z"/>
    </g>
</svg>
