<?xml version="1.0" encoding="UTF-8" standalone="no"?>
<!-- Created with Inkscape (http://www.inkscape.org/) -->

<svg
   width="10mm"
   height="10mm"
   viewBox="0 0 10 10"
   version="1.1"
   id="svg1"
   sodipodi:docname="10mm-bg.svg"
   inkscape:version="1.4.2 (f4327f4, 2025-05-13)"
   xmlns:inkscape="http://www.inkscape.org/namespaces/inkscape"
   xmlns:sodipodi="http://sodipodi.sourceforge.net/DTD/sodipodi-0.dtd"
   xmlns="http://www.w3.org/2000/svg"
   xmlns:svg="http://www.w3.org/2000/svg">
  <sodipodi:namedview
     id="namedview1"
     pagecolor="#ffffff"
     bordercolor="#000000"
     borderopacity="0.25"
     inkscape:showpageshadow="2"
     inkscape:pageopacity="0.0"
     inkscape:pagecheckerboard="0"
     inkscape:deskcolor="#d1d1d1"
     inkscape:document-units="mm"
     inkscape:zoom="8"
     inkscape:cx="-18.125"
     inkscape:cy="54.3125"
     inkscape:window-width="2560"
     inkscape:window-height="1494"
     inkscape:window-x="-11"
     inkscape:window-y="-11"
     inkscape:window-maximized="1"
     inkscape:current-layer="g2" />
  <defs
     id="defs1" />
  <g
     inkscape:label="Layer 1"
     inkscape:groupmode="layer"
     id="layer1"
     sodipodi:insensitive="true"
     style="opacity:0.5">
    <path
       inkscape:connector-curvature="0"
       id="path4647-3"
       style="clip-rule:evenodd;display:inline;fill:#cfbb95;fill-opacity:1;fill-rule:nonzero;stroke:none;stroke-width:0.573063;stroke-linecap:round;stroke-linejoin:round;stroke-miterlimit:4;stroke-dasharray:none"
       d="M 5.0000063,0.126917 C 2.3132001,0.126917 0.127,2.3130169 0.127,4.9997057 0.127,7.6869831 2.3132001,9.873083 5.0000063,9.873083 7.6867999,9.873083 9.873,7.6869831 9.873,4.9997057 9.873,2.3130169 7.6867999,0.126917 5.0000063,0.126917"
       sodipodi:nodetypes="csssc" />
    <path
       inkscape:connector-curvature="0"
       id="path4647"
       style="clip-rule:evenodd;display:inline;fill:#b7a27e;fill-opacity:1;fill-rule:nonzero;stroke:none;stroke-width:0.52826;stroke-linecap:round;stroke-linejoin:round;stroke-miterlimit:4;stroke-dasharray:none"
       d="M 5.0000001,0.507924 C 2.5232652,0.507924 0.508,2.5231013 0.508,4.9997284 0.508,7.4768982 2.5232652,9.492076 5.0000001,9.492076 7.4767349,9.492076 9.492,7.4768982 9.492,4.9997284 9.492,2.5231013 7.4767349,0.507924 5.0000001,0.507924"
       sodipodi:nodetypes="csssc" />
    <path
       inkscape:connector-curvature="0"
       id="path4655"
       style="clip-rule:evenodd;display:inline;fill:#cfbb95;fill-opacity:1;fill-rule:nonzero;stroke:none;stroke-width:0.739486;stroke-linecap:butt;stroke-linejoin:miter;stroke-miterlimit:4;stroke-dasharray:none;stroke-dashoffset:0;stroke-opacity:1"
       d="M 8.878,4.9999999 C 8.878,2.8592346 7.141355,1.122 4.9996197,1.122 2.8586446,1.122 1.122,2.8592346 1.122,4.9999999 1.122,7.1407652 2.8586446,8.878 4.9996201,8.878 7.141355,8.878 8.878,7.1407652 8.878,4.9999999"
       sodipodi:nodetypes="csssc" />
  </g>
  <g
     id="g3"
     transform="matrix(1.2583098,0,0,1.2582883,-1.2906404,-1.2333432)">
    <path
       inkscape:connector-curvature="0"
       id="path4647-3-7"
       style="clip-rule:evenodd;display:inline;fill:#cfbb95;fill-opacity:1;fill-rule:nonzero;stroke:none;stroke-width:0.455423;stroke-linecap:round;stroke-linejoin:round;stroke-miterlimit:4;stroke-dasharray:none"
       d="m 4.9992782,1.0811061 c -2.1352494,0 -3.8726554,1.7373303 -3.8726554,3.8724871 0,2.1356242 1.737406,3.8729552 3.8726554,3.8729552 2.1352493,0 3.8726553,-1.737331 3.8726553,-3.8729552 0,-2.1351568 -1.737406,-3.8724871 -3.8726553,-3.8724871"
       sodipodi:nodetypes="csssc" />
    <path
       style="clip-rule:evenodd;display:inline;fill:#d6b280;fill-opacity:1;fill-rule:evenodd;stroke-width:1.84956;stroke-linecap:round;stroke-linejoin:round;stroke-miterlimit:1.5"
       id="path2-1-9-8"
       sodipodi:type="arc"
       sodipodi:cx="2.4966416"
       sodipodi:cy="6.5830641"
       sodipodi:rx="3.8683708"
       sodipodi:ry="3.8504505"
       sodipodi:start="1.3962634"
       sodipodi:end="2.6441738"
       sodipodi:arc-type="slice"
       d="M 3.1683772,10.375018 A 3.8683708,3.8504505 0 0 1 -0.90294877,8.4203403 L 2.4966416,6.5830641 Z"
       transform="matrix(0.91324107,-0.40741961,0.41218748,0.91109905,0,0)" />
    <path
       style="clip-rule:evenodd;display:inline;fill:#dbcca4;fill-opacity:1;fill-rule:evenodd;stroke-width:1.86383;stroke-linecap:round;stroke-linejoin:round;stroke-miterlimit:1.5"
       id="path2-1-4"
       sodipodi:type="arc"
       sodipodi:cx="2.5200238"
       sodipodi:cy="-6.588912"
       sodipodi:rx="3.8882034"
       sodipodi:ry="3.8901751"
       sodipodi:start="1.3962634"
       sodipodi:end="1.7453293"
       sodipodi:arc-type="slice"
       d="m 3.1952033,-2.7578374 a 3.8882034,3.8901751 0 0 1 -1.3503591,0 L 2.5200238,-6.588912 Z"
       transform="matrix(0.91205865,-0.41005978,-0.40953913,-0.91229255,0,0)" />
  </g>
  <g
     id="g2"
     transform="matrix(1.2864984,0,0,1.2865091,-2.2150884,4.9330556)">
    <path
       inkscape:connector-curvature="0"
       id="path4647-4"
       style="clip-rule:evenodd;display:inline;fill:#b7a27e;fill-opacity:1;fill-rule:nonzero;stroke:none;stroke-width:0.410608;stroke-linecap:round;stroke-linejoin:round;stroke-miterlimit:4;stroke-dasharray:none"
       d="m 5.6082857,-3.4395836 c -1.9251266,0 -3.4915602,1.5663653 -3.4915602,3.4914086 0,1.925464 1.5664336,3.49183 3.4915602,3.49183 1.9251266,0 3.4915601,-1.566366 3.4915601,-3.49183 0,-1.9250433 -1.5664335,-3.4914086 -3.4915601,-3.4914086"
       sodipodi:nodetypes="csssc" />
    <path
       style="clip-rule:evenodd;display:inline;fill:#b29b76;fill-opacity:1;fill-rule:evenodd;stroke-width:1.67686;stroke-linecap:round;stroke-linejoin:round;stroke-miterlimit:1.5"
       id="path2-6-5"
       sodipodi:type="arc"
       sodipodi:cx="5.6083446"
       sodipodi:cy="0.051825002"
       sodipodi:rx="3.4916191"
       sodipodi:ry="3.5064418"
       sodipodi:start="2.3492819"
       sodipodi:end="3.6615021"
       sodipodi:arc-type="slice"
       d="M 3.1565227,2.5483337 A 3.4916191,3.5064418 0 0 1 2.5780934,-1.6901807 L 5.6083446,0.051825 Z" />
    <path
       style="clip-rule:evenodd;display:inline;fill:#ac997c;fill-opacity:1;fill-rule:evenodd;stroke-width:1.67687;stroke-linecap:round;stroke-linejoin:round;stroke-miterlimit:1.5"
       id="path2-6-5-6-6-0"
       sodipodi:type="arc"
       sodipodi:cx="5.6080279"
       sodipodi:cy="0.064253412"
       sodipodi:rx="3.4916191"
       sodipodi:ry="3.5064418"
       sodipodi:start="4.785377"
       sodipodi:end="5.3932023"
       sodipodi:arc-type="slice"
       d="m 5.8626481,-3.4328527 a 3.4916191,3.5064418 0 0 1 1.943093,0.7723867 L 5.6080279,0.06425341 Z" />
    <path
       style="clip-rule:evenodd;display:inline;fill:#b29b76;fill-opacity:1;fill-rule:evenodd;stroke-width:1.67687;stroke-linecap:round;stroke-linejoin:round;stroke-miterlimit:1.5"
       id="path2-6-5-6"
       sodipodi:type="arc"
       sodipodi:cx="5.6083446"
       sodipodi:cy="0.051824171"
       sodipodi:rx="3.4916191"
       sodipodi:ry="3.5064418"
       sodipodi:start="5.2726061"
       sodipodi:end="0.25419132"
       sodipodi:arc-type="slice"
       d="M 7.4636867,-2.9186221 A 3.4916191,3.5064418 0 0 1 8.9877673,0.93356384 L 5.6083446,0.05182417 Z" />
    <path
       style="clip-rule:evenodd;display:inline;fill:#ac997c;fill-opacity:1;fill-rule:evenodd;stroke-width:1.67687;stroke-linecap:round;stroke-linejoin:round;stroke-miterlimit:1.5"
       id="path2-6-5-6-6"
       sodipodi:type="arc"
       sodipodi:cx="5.6082854"
       sodipodi:cy="0.037212927"
       sodipodi:rx="3.4916191"
       sodipodi:ry="3.5064418"
       sodipodi:start="0.90790276"
       sodipodi:end="2.261849"
       sodipodi:arc-type="slice"
       d="M 7.7570284,2.8010424 A 3.4916191,3.5064418 0 0 1 3.3829065,2.7391912 L 5.6082854,0.03721293 Z" />
    <path
       style="clip-rule:evenodd;display:inline;fill:#cfbb95;fill-opacity:1;fill-rule:evenodd;stroke-width:1.68036;stroke-linecap:round;stroke-linejoin:round;stroke-miterlimit:1.5;opacity:0.459"
       id="path2-6-1"
       sodipodi:type="arc"
       sodipodi:cx="5.0886059"
       sodipodi:cy="-2.3556397"
       sodipodi:rx="3.5054257"
       sodipodi:ry="3.5072038"
       sodipodi:start="1.3962634"
       sodipodi:end="1.7453293"
       sodipodi:arc-type="slice"
       d="m 5.6973167,1.0982818 a 3.5054257,3.5072038 0 0 1 -1.2174218,0 l 0.608711,-3.4539215 z"
       transform="matrix(0.91205865,-0.41005978,-0.40953913,-0.91229255,0,0)" />
  </g>
  <g
     id="g1"
     transform="matrix(1.3476077,0,0,1.3475106,-1.7383856,-1.721022)">
    <path
       inkscape:connector-curvature="0"
       id="path4655-6"
       style="clip-rule:evenodd;display:inline;fill:#cfbb95;fill-opacity:1;fill-rule:nonzero;stroke:none;stroke-width:0.548755;stroke-linecap:butt;stroke-linejoin:miter;stroke-miterlimit:4;stroke-dasharray:none;stroke-dashoffset:0;stroke-opacity:1"
       d="m 7.8779496,4.9877826 c 0,-1.5886538 -1.2886874,-2.877849 -2.8779742,-2.877849 -1.5887228,0 -2.8774099,1.2891952 -2.8774099,2.877849 0,1.5886537 1.2886871,2.877849 2.8774102,2.877849 1.5892865,0 2.8779739,-1.2891953 2.8779739,-2.877849"
       sodipodi:nodetypes="csssc" />
    <path
       style="clip-rule:evenodd;display:inline;fill:#dbcca4;fill-opacity:1;fill-rule:evenodd;stroke-width:1.38214;stroke-linecap:round;stroke-linejoin:round;stroke-miterlimit:1.5"
       id="path2"
       sodipodi:type="arc"
       sodipodi:cx="5"
       sodipodi:cy="-5"
       sodipodi:rx="2.8779497"
       sodipodi:ry="2.8901672"
       sodipodi:start="0.52359878"
       sodipodi:end="2.6179939"
       sodipodi:arc-type="slice"
       d="M 7.4923776,-3.5549164 A 2.8779497,2.8901672 0 0 1 5,-2.1098328 2.8779497,2.8901672 0 0 1 2.5076224,-3.5549164 L 5,-5 Z"
       transform="scale(1,-1)" />
    <path
       style="clip-rule:evenodd;display:inline;fill:#e0c79f;fill-opacity:1;fill-rule:evenodd;stroke-width:1.38214;stroke-linecap:round;stroke-linejoin:round;stroke-miterlimit:1.5"
       id="path2-4"
       sodipodi:type="arc"
       sodipodi:cx="5.0002575"
       sodipodi:cy="4.9729605"
       sodipodi:rx="2.8779497"
       sodipodi:ry="2.8901672"
       sodipodi:start="0.52359878"
       sodipodi:end="2.6179939"
       sodipodi:arc-type="slice"
       d="M 7.492635,6.4180441 A 2.8779497,2.8901672 0 0 1 5.0002575,7.8631277 2.8779497,2.8901672 0 0 1 2.5078799,6.418044 L 5.0002575,4.9729605 Z" />
    <path
       style="clip-rule:evenodd;display:inline;fill:#cfbb95;fill-opacity:1;fill-rule:evenodd;stroke-width:1.38502;stroke-linecap:round;stroke-linejoin:round;stroke-miterlimit:1.5"
       id="path2-4-4"
       sodipodi:type="arc"
       sodipodi:cx="2.5127833"
       sodipodi:cy="6.5809574"
       sodipodi:rx="2.8893299"
       sodipodi:ry="2.8907952"
       sodipodi:start="1.3962634"
       sodipodi:end="1.7453293"
       sodipodi:arc-type="slice"
       d="m 3.0145102,9.427835 a 2.8893299,2.8907952 0 0 1 -1.0034539,-10e-8 l 0.501727,-2.8468775 z"
       transform="matrix(0.91205865,-0.41005978,0.40953913,0.91229255,0,0)" />
  </g>
  <path
     style="clip-rule:evenodd;display:inline;fill:none;fill-rule:evenodd;stroke:#dbcca4;stroke-width:0.373999;stroke-linecap:butt;stroke-linejoin:miter;stroke-miterlimit:1.5;stroke-opacity:1"
     id="path1"
     sodipodi:type="arc"
     sodipodi:cx="4.9999976"
     sodipodi:cy="4.9860816"
     sodipodi:rx="3.6872246"
     sodipodi:ry="3.6766512"
     sodipodi:start="2.6152957"
     sodipodi:end="0.52524276"
     sodipodi:open="true"
     sodipodi:arc-type="arc"
     d="M 1.8117534,6.8329917 A 3.6872246,3.6766512 0 0 1 2.6263642,2.1725616 3.6872246,3.6766512 0 0 1 7.3706552,2.170068 3.6872246,3.6766512 0 0 1 8.1901926,6.8296393" />
  <path
     style="clip-rule:evenodd;display:inline;fill:#dcdbc3;fill-opacity:1;fill-rule:evenodd;stroke-width:1.38502;stroke-linecap:round;stroke-linejoin:round;stroke-miterlimit:1.5"
     id="path2-13"
     sodipodi:type="arc"
     sodipodi:cx="2.5125244"
     sodipodi:cy="-6.6080031"
     sodipodi:rx="2.8893299"
     sodipodi:ry="2.8907952"
     sodipodi:start="1.3962634"
     sodipodi:end="1.7453293"
     sodipodi:arc-type="slice"
     d="m 3.0142512,-3.7611256 a 2.8893299,2.8907952 0 0 1 -1.0034538,0 l 0.501727,-2.8468775 z"
     transform="matrix(1.2290973,-0.55255991,-0.55189808,-1.2293239,-1.7383856,-1.721022)" />
</svg>
