<?xml version="1.0" encoding="UTF-8" standalone="no"?>
<!-- Created with Inkscape (http://www.inkscape.org/) -->

<svg
   width="18mm"
   height="18mm"
   viewBox="0 0 18 18"
   version="1.1"
   id="svg1"
   inkscape:version="1.4.2 (f4327f4, 2025-05-13)"
   sodipodi:docname="18mm-fg-clock.svg"
   xmlns:inkscape="http://www.inkscape.org/namespaces/inkscape"
   xmlns:sodipodi="http://sodipodi.sourceforge.net/DTD/sodipodi-0.dtd"
   xmlns="http://www.w3.org/2000/svg"
   xmlns:svg="http://www.w3.org/2000/svg">
  <sodipodi:namedview
     id="namedview1"
     pagecolor="#ffffff"
     bordercolor="#000000"
     borderopacity="0.25"
     inkscape:showpageshadow="2"
     inkscape:pageopacity="0.0"
     inkscape:pagecheckerboard="0"
     inkscape:deskcolor="#d1d1d1"
     inkscape:document-units="mm"
     inkscape:zoom="2.1184484"
     inkscape:cx="86.85602"
     inkscape:cy="264.58043"
     inkscape:window-width="2560"
     inkscape:window-height="1494"
     inkscape:window-x="-11"
     inkscape:window-y="-11"
     inkscape:window-maximized="1"
     inkscape:current-layer="text1" />
  <defs
     id="defs1">
    <rect
       x="25.826632"
       y="14.81172"
       width="18.432258"
       height="7.8856761"
       id="rect2" />
    <rect
       x="21.595995"
       y="15.223406"
       width="67.148202"
       height="52.632862"
       id="rect1" />
    <inkscape:path-effect
       effect="fillet_chamfer"
       id="path-effect10"
       is_visible="true"
       lpeversion="1"
       nodesatellites_param="F,0,0,1,0,0,0,1 @ F,0,0,1,0,0,0,1 @ F,0,0,1,0,0.13652804,0,1 @ F,0,0,1,0,0.13183606,0,1"
       radius="0"
       unit="px"
       method="auto"
       mode="F"
       chamfer_steps="1"
       flexible="false"
       use_knot_distance="true"
       apply_no_radius="true"
       apply_with_radius="true"
       only_selected="false"
       hide_knots="false" />
    <rect
       x="25.826632"
       y="14.81172"
       width="18.432259"
       height="7.8856759"
       id="rect2-4" />
    <rect
       x="25.826632"
       y="14.81172"
       width="18.432259"
       height="7.8856759"
       id="rect2-4-5" />
    <rect
       x="25.826632"
       y="14.81172"
       width="18.432259"
       height="7.8856759"
       id="rect2-4-7" />
    <rect
       x="25.826632"
       y="14.81172"
       width="18.432258"
       height="7.8856761"
       id="rect10" />
    <rect
       x="25.826632"
       y="14.81172"
       width="18.432259"
       height="7.8856759"
       id="rect11" />
    <rect
       x="25.826632"
       y="14.81172"
       width="18.432259"
       height="7.8856759"
       id="rect12" />
    <rect
       x="25.826632"
       y="14.81172"
       width="18.432259"
       height="7.8856759"
       id="rect13" />
    <rect
       x="25.826632"
       y="14.81172"
       width="18.432258"
       height="7.8856761"
       id="rect18" />
    <rect
       x="25.826632"
       y="14.81172"
       width="18.432259"
       height="7.8856759"
       id="rect19" />
    <rect
       x="25.826632"
       y="14.81172"
       width="18.432259"
       height="7.8856759"
       id="rect20" />
    <rect
       x="25.826632"
       y="14.81172"
       width="18.432259"
       height="7.8856759"
       id="rect21" />
  </defs>
  <g
     inkscape:label="Layer 1"
     inkscape:groupmode="layer"
     id="layer1">
    <g
       id="g1"
       transform="translate(0.0109381,2.0789356e-5)">
      <path
         d="M 9.0275995,0 C 7.4214557,-0.00594 7.0810605,1.2624559 5.631403,1.955068 4.1817459,2.6476799 2.9827121,2.114421 1.9766636,3.3684018 0.97061477,4.6223828 1.7488129,5.6800886 1.3856331,7.247072 1.0224533,8.8140552 -0.14123173,9.4202901 0.21038967,10.989915 c 0.3516214,1.569626 1.66207093,1.619824 2.65885053,2.881208 0.9967795,1.261385 0.7449741,2.550767 2.1894873,3.254077 1.4445136,0.70331 2.3008457,-0.291751 3.9069894,-0.285814 1.6061421,0.006 2.4552341,1.007269 3.9048911,0.314657 1.449657,-0.692612 1.207038,-1.983838 2.213087,-3.237819 1.006049,-1.25398 2.316647,-1.294296 2.679828,-2.861279 C 18.126703,9.487961 16.967695,8.8728116 16.616073,7.3031859 16.264453,5.7335605 17.050141,4.6822286 16.053362,3.4208446 15.056582,2.1594603 13.854149,2.6835508 12.409636,1.9802405 10.965122,1.2769303 10.633742,0.005937 9.0275995,0 Z m -0.033039,1.3142168 c 4.2401155,0 7.6902125,3.4498437 7.6902125,7.6907383 0,4.2399679 -3.450097,7.6896889 -7.6902125,7.6896889 -4.2401161,0 -7.6902138,-3.449721 -7.6902138,-7.6896889 0,-4.2408946 3.4500977,-7.6907383 7.6902138,-7.6907383 z"
         style="fill:#332a11;fill-opacity:1;stroke:none;stroke-width:0.101483;stroke-linejoin:round;stroke-dasharray:none;stroke-opacity:1;paint-order:markers fill stroke"
         id="path10" />
      <path
         d="m 8.9944801,0.2982324 c -4.797923,0 -8.70173503,3.9035949 -8.70173503,8.7012283 0,4.7986833 3.90381203,8.7022423 8.70173503,8.7022423 4.7979219,0 8.7017349,-3.903559 8.7017349,-8.7022423 0,-4.7976334 -3.903813,-8.7012283 -8.7017349,-8.7012283 z m 0,1.2700377 c 4.0975779,0 7.4316959,3.3338727 7.4316959,7.4322041 0,4.0974358 -3.334118,7.4311898 -7.4316959,7.4311898 -4.0975791,0 -7.4316973,-3.333754 -7.4316973,-7.4311898 0,-4.0983314 3.3341182,-7.4322041 7.4316973,-7.4322041 z"
         style="clip-rule:evenodd;display:inline;fill:#332a11;fill-opacity:1;stroke:none;stroke-width:2.70187;stroke-linecap:round;stroke-linejoin:round;stroke-dasharray:none"
         id="path7"
         sodipodi:nodetypes="ssssssssss" />
      <path
         d="M 9.0270363,0.127124 C 7.4443641,0.121274 7.1089433,1.3711309 5.6804705,2.0536214 4.2519981,2.7361118 3.0704865,2.2106457 2.07914,3.4463013 1.0877932,4.6819571 1.8546191,5.724206 1.4967466,7.2682902 1.1388742,8.8123741 -0.00780523,9.4097497 0.33867767,10.956437 c 0.346483,1.546688 1.63778213,1.596152 2.61999523,2.839103 0.9822129,1.242951 0.7340873,2.513491 2.157491,3.206523 1.423404,0.693032 2.267222,-0.287487 3.8498942,-0.281637 1.5826709,0.0059 2.4193539,0.992549 3.8478269,0.310059 1.428472,-0.682491 1.189398,-1.954847 2.180745,-3.190503 0.991347,-1.235655 2.282793,-1.275382 2.640666,-2.819466 C 17.993168,9.4764317 16.851098,8.8702718 16.504615,7.323584 16.158133,5.7768965 16.93234,4.7409284 15.950127,3.4979777 14.967914,2.2550268 13.783053,2.7714585 12.359649,2.0784261 10.936245,1.3853938 10.609707,0.1329742 9.0270363,0.127124 Z m -0.032556,1.2950114 c 4.1781527,0 7.5778317,3.399429 7.5778317,7.5783488 0,4.1780068 -3.399679,7.5773148 -7.5778317,7.5773148 -4.1781527,0 -7.577832,-3.399308 -7.577832,-7.5773148 0,-4.1789198 3.3996793,-7.5783488 7.577832,-7.5783488 z"
         style="display:inline;fill:#483725;fill-opacity:1;stroke:none;stroke-width:0.1;stroke-linejoin:round;stroke-dasharray:none;stroke-opacity:1;paint-order:markers fill stroke"
         id="path5" />
      <g
         id="text1"
         style="opacity:1"
         transform="matrix(0.3445289,0,0,0.3445289,-3.0762398,-2.6637508)">
        <path
           style="font-size:5.33333px;font-family:'Cambria Math';-inkscape-font-specification:'Cambria Math';text-align:center;baseline-shift:baseline;white-space:pre;display:inline;overflow:visible;vector-effect:none;fill:#dbcca4;stroke-linejoin:round;paint-order:stroke fill markers;enable-background:accumulate;stop-color:#000000;stop-opacity:1"
           d="m 33.771484,15.830078 a 0.29028052,0.29028052 0 0 0 -0.148437,0.04102 l -1.21875,0.726562 a 0.29028052,0.29028052 0 0 0 -0.103516,0.392578 l 0.115235,0.201172 a 0.29028052,0.29028052 0 0 0 0.412109,0.09766 c 0.126386,-0.08426 0.224205,-0.143238 0.310547,-0.193359 v 1.941406 c 0,0.101076 -0.01564,0.160749 -0.01172,0.152344 -0.0035,0.001 -0.01688,0.0083 -0.06641,0.01758 -0.05526,0.0092 -0.185442,0.02093 -0.371094,0.0293 a 0.29028052,0.29028052 0 0 0 -0.277344,0.291016 v 0.189453 a 0.29028052,0.29028052 0 0 0 0.289063,0.291015 h 1.925781 a 0.29028052,0.29028052 0 0 0 0.289063,-0.291015 v -0.189453 a 0.29028052,0.29028052 0 0 0 -0.28125,-0.291016 c -0.128937,-0.0034 -0.231714,-0.01023 -0.300782,-0.01758 -0.06178,-0.0083 -0.108061,-0.01859 -0.136718,-0.02734 -0.0035,-0.0237 -0.0078,-0.07292 -0.0078,-0.154297 V 16.8125 c 0,-0.291724 0.0059,-0.517811 0.01563,-0.673828 a 0.29028052,0.29028052 0 0 0 -0.289062,-0.308594 z m 2.769532,0 c -0.175781,0 -0.363197,0.02681 -0.564454,0.07617 -0.205694,0.04912 -0.418629,0.126926 -0.642578,0.232422 a 0.29028052,0.29028052 0 0 0 -0.167968,0.263672 v 0.5 a 0.29028052,0.29028052 0 0 0 0.291015,0.289062 h 0.314453 a 0.29028052,0.29028052 0 0 0 0.277344,-0.203125 c 0.04461,-0.142737 0.101241,-0.224127 0.15625,-0.269531 0.05501,-0.0454 0.114138,-0.06836 0.222656,-0.06836 0.08764,0 0.13395,0.01619 0.16211,0.03516 a 0.29028052,0.29028052 0 0 0 0.002,0.002 c 0.03938,0.02599 0.06211,0.0526 0.08398,0.105469 a 0.29028052,0.29028052 0 0 0 0,0.002 c 0.024,0.057 0.04102,0.133174 0.04102,0.232422 0,0.0569 -0.0083,0.112747 -0.02344,0.171875 -0.0139,0.05252 -0.0382,0.117795 -0.07813,0.193359 a 0.29028052,0.29028052 0 0 0 -0.002,0.002 c -0.0343,0.06607 -0.09719,0.163183 -0.1875,0.279297 -0.07895,0.10217 -0.220988,0.26877 -0.419922,0.488281 a 0.29028052,0.29028052 0 0 0 -0.002,0.002 c -0.238862,0.265601 -0.425859,0.498192 -0.564453,0.707032 -0.135745,0.204547 -0.247066,0.408624 -0.330078,0.611328 a 0.29028052,0.29028052 0 0 0 -0.02148,0.109375 v 0.125 a 0.29028052,0.29028052 0 0 0 0.291015,0.291015 h 2.142578 A 0.29028052,0.29028052 0 0 0 37.8125,19.734375 l 0.04297,-0.761719 a 0.29028052,0.29028052 0 0 0 -0.289063,-0.30664 h -0.220703 a 0.29028052,0.29028052 0 0 0 -0.275391,0.197265 c -0.02349,0.06902 -0.04011,0.112924 -0.05078,0.136719 -0.02228,0.0045 -0.07522,0.0098 -0.148437,0.0098 h -0.382813 c 0.113589,-0.142446 0.180187,-0.256995 0.337891,-0.423829 a 0.29028052,0.29028052 0 0 0 0.002,-0.002 c 0.196773,-0.208963 0.33477,-0.356977 0.417969,-0.449218 a 0.29028052,0.29028052 0 0 0 0.002,-0.002 c 0.08417,-0.09515 0.16164,-0.190071 0.232422,-0.283203 0.07331,-0.09646 0.133537,-0.189589 0.18164,-0.283203 l 0.002,-0.002 c 0.04975,-0.09559 0.08617,-0.194786 0.109375,-0.296875 0.02441,-0.101976 0.03711,-0.208262 0.03711,-0.318359 0,-0.328396 -0.115124,-0.636008 -0.34961,-0.835938 -0.235859,-0.203583 -0.554352,-0.283203 -0.919921,-0.283203 z m -2.925782,0.720703 c -2.45e-4,0.01596 -0.0018,0.02847 -0.002,0.04492 -0.0094,-0.01173 -0.02799,-0.009 -0.03906,-0.01953 z m 0.05469,2.845703 -0.002,0.0078 c 0.0027,0.0073 0.0068,0.01423 0.0098,0.02148 h -0.0293 c 0.0041,-0.0094 0.0141,-0.01591 0.01758,-0.02539 4.9e-4,0.0014 0.0015,0.0026 0.002,0.0039 7.42e-4,-0.0019 -7.21e-4,-0.0039 0,-0.0059 2.73e-4,-7.24e-4 0.0017,-0.0012 0.002,-0.002 z"
           id="path34" />
        <path
           style="font-size:5.33333px;font-family:'Cambria Math';-inkscape-font-specification:'Cambria Math';text-align:center;baseline-shift:baseline;white-space:pre;display:inline;overflow:visible;vector-effect:none;fill:#483725;stroke-linejoin:round;paint-order:stroke fill markers;enable-background:accumulate;stop-color:#000000;stop-opacity:1"
           d="m 33.89974,19.03692 q 0,0.151041 0.01563,0.229166 0.01823,0.07552 0.0599,0.125 0.04427,0.04687 0.125,0.07552 0.08073,0.02604 0.203125,0.04167 0.122396,0.01302 0.322916,0.01823 v 0.190104 h -1.924478 v -0.190104 q 0.289063,-0.01302 0.411458,-0.03386 0.125,-0.02344 0.190104,-0.06771 0.0651,-0.04427 0.09375,-0.125 0.03125,-0.08073 0.03125,-0.26302 v -2.111978 q 0,-0.104167 -0.03646,-0.151042 -0.03646,-0.04948 -0.106771,-0.04948 -0.08333,0 -0.236979,0.08594 -0.153645,0.08594 -0.380208,0.236979 l -0.114583,-0.20052 1.218749,-0.726562 h 0.143229 q -0.01563,0.249999 -0.01563,0.692708 z m 2.971353,0.26302 q 0.127604,0 0.205729,-0.01563 0.07813,-0.01563 0.125,-0.05208 0.04687,-0.03646 0.07292,-0.09375 0.02865,-0.0599 0.07031,-0.182292 h 0.221354 l -0.04427,0.760417 h -2.143228 v -0.125 q 0.111979,-0.273438 0.302083,-0.559896 0.190104,-0.286458 0.539062,-0.674479 0.302084,-0.333333 0.434896,-0.505208 0.145833,-0.187499 0.216146,-0.322916 0.07292,-0.138021 0.104166,-0.257812 0.03125,-0.122396 0.03125,-0.244792 0,-0.195312 -0.0625,-0.34375 -0.0625,-0.151041 -0.192708,-0.236979 -0.127604,-0.08594 -0.322916,-0.08594 -0.486979,0 -0.65625,0.541666 h -0.315104 v -0.5 q 0.315104,-0.148437 0.588541,-0.213541 0.276042,-0.06771 0.494792,-0.06771 0.484374,0 0.73177,0.213541 0.247396,0.210938 0.247396,0.614583 0,0.138021 -0.02865,0.255208 -0.02604,0.114584 -0.08594,0.229167 -0.05729,0.111979 -0.15625,0.242187 -0.09896,0.130208 -0.21875,0.265625 -0.119792,0.132812 -0.414062,0.445312 -0.494792,0.523437 -0.726562,0.914062 z"
           id="path35" />
      </g>
      <g
         id="text1-2"
         style="opacity:1"
         transform="matrix(0,0.3445289,-0.3445289,0,20.417342,-3.06603)">
        <path
           style="font-size:5.33333px;font-family:'Cambria Math';-inkscape-font-specification:'Cambria Math';text-align:center;baseline-shift:baseline;white-space:pre;display:inline;overflow:visible;vector-effect:none;fill:#dbcca4;stroke-linejoin:round;paint-order:stroke fill markers;enable-background:accumulate;stop-color:#000000;stop-opacity:1"
           d="m 35.052734,15.830078 c -0.190983,0 -0.38498,0.0274 -0.582031,0.08008 -0.196067,0.05241 -0.400993,0.130842 -0.615234,0.232422 a 0.29028052,0.29028052 0 0 0 -0.166016,0.261719 v 0.49414 a 0.29028052,0.29028052 0 0 0 0.291016,0.291016 h 0.3125 a 0.29028052,0.29028052 0 0 0 0.28125,-0.214844 c 0.03855,-0.144554 0.0897,-0.222767 0.134765,-0.261718 0.04474,-0.03867 0.09828,-0.0625 0.208985,-0.0625 0.144808,0 0.202755,0.03025 0.240234,0.06836 0.03969,0.04036 0.07031,0.100906 0.07031,0.242187 0,0.09868 -0.02038,0.172518 -0.06836,0.246094 -0.04357,0.0668 -0.117389,0.130409 -0.242187,0.189453 a 0.29028052,0.29028052 0 0 0 0,0.002 c -0.116046,0.0555 -0.27553,0.09516 -0.482422,0.107422 a 0.29028052,0.29028052 0 0 0 -0.273438,0.289063 v 0.228515 a 0.29028052,0.29028052 0 0 0 0.289063,0.291016 h 0.234375 c 0.251316,0 0.397398,0.05622 0.480469,0.128906 0.08436,0.07381 0.130859,0.166172 0.130859,0.361328 0,0.194685 -0.04427,0.293157 -0.0957,0.347657 a 0.29028052,0.29028052 0 0 0 -0.002,0.002 c -0.04988,0.05366 -0.124022,0.0918 -0.296875,0.0918 -0.124922,0 -0.18659,-0.02621 -0.22461,-0.05664 h -0.002 c -0.04035,-0.03383 -0.09714,-0.113134 -0.146484,-0.259766 a 0.29028052,0.29028052 0 0 0 -0.275391,-0.199218 h -0.3125 a 0.29028052,0.29028052 0 0 0 -0.291015,0.291015 v 0.552735 a 0.29028052,0.29028052 0 0 0 0.1875,0.269531 c 0.161303,0.06219 0.333635,0.112838 0.519531,0.150391 a 0.29028052,0.29028052 0 0 0 0.0039,0 c 0.188601,0.03584 0.368381,0.05469 0.539063,0.05469 0.292445,0 0.556962,-0.05094 0.787109,-0.166016 0.223824,-0.111912 0.40862,-0.278094 0.525391,-0.488281 0.114281,-0.202399 0.169921,-0.434468 0.169921,-0.677734 10e-7,-0.162923 -0.03042,-0.320254 -0.0957,-0.462891 l -0.002,-0.002 c -0.05918,-0.133458 -0.139959,-0.256024 -0.24414,-0.355469 -0.04936,-0.04712 -0.113395,-0.07504 -0.169922,-0.113281 0.132178,-0.10439 0.245002,-0.229561 0.322265,-0.375 a 0.29028052,0.29028052 0 0 0 0,-0.002 c 0.08311,-0.158891 0.121094,-0.339122 0.121094,-0.525391 0,-0.205182 -0.05449,-0.40564 -0.167969,-0.570312 -0.11259,-0.165128 -0.27651,-0.288831 -0.466797,-0.367188 -0.189443,-0.07801 -0.400804,-0.113281 -0.626953,-0.113281 z m 0.681641,2.625 c 0.0064,0.01225 0.01559,0.01982 0.02148,0.0332 a 0.29028052,0.29028052 0 0 0 0.0039,0.0039 c 0.006,0.01296 0.0048,0.03628 0.0098,0.05078 -0.0078,-0.03192 -0.02475,-0.05716 -0.03516,-0.08789 z"
           id="path16" />
        <path
           style="font-size:5.33333px;font-family:'Cambria Math';-inkscape-font-specification:'Cambria Math';text-align:center;baseline-shift:baseline;white-space:pre;display:inline;overflow:visible;vector-effect:none;fill:#483725;stroke-linejoin:round;paint-order:stroke fill markers;enable-background:accumulate;stop-color:#000000;stop-opacity:1"
           d="m 33.980469,16.8989 v -0.494791 q 0.302084,-0.143229 0.565104,-0.213542 0.263021,-0.07031 0.507812,-0.07031 0.294271,0 0.515625,0.09115 0.221354,0.09115 0.338542,0.263021 0.117187,0.169271 0.117187,0.40625 0,0.221354 -0.08854,0.390625 -0.08854,0.166666 -0.249999,0.291666 -0.158855,0.125 -0.414063,0.244792 v 0.02344 q 0.158854,0.02865 0.304688,0.09896 0.148437,0.06771 0.26302,0.177084 0.114584,0.109375 0.182292,0.26302 0.07031,0.151042 0.07031,0.346354 0,0.302083 -0.132812,0.536458 -0.130208,0.234375 -0.401042,0.369792 -0.270833,0.135416 -0.658853,0.135416 -0.223959,0 -0.484375,-0.04948 -0.257812,-0.05208 -0.473958,-0.135416 v -0.552083 h 0.3125 q 0.09115,0.270833 0.239583,0.393229 0.151041,0.122395 0.408854,0.122395 0.338541,0 0.510416,-0.184895 0.174479,-0.184896 0.174479,-0.546875 0,-0.380208 -0.229166,-0.580729 -0.229167,-0.200521 -0.671875,-0.200521 h -0.234375 v -0.229166 q 0.351563,-0.02083 0.591146,-0.135417 0.242187,-0.114583 0.359375,-0.29427 0.117187,-0.179688 0.117187,-0.403646 0,-0.289062 -0.153646,-0.445312 -0.153646,-0.15625 -0.447916,-0.15625 -0.244792,0 -0.398437,0.132812 -0.153646,0.132813 -0.226563,0.40625 z"
           id="path17" />
      </g>
      <g
         id="text1-2-4"
         style="opacity:1"
         transform="matrix(0,-0.3445289,0.3445289,0,-2.457733,21.057722)">
        <path
           style="font-size:5.33333px;font-family:'Cambria Math';-inkscape-font-specification:'Cambria Math';text-align:center;baseline-shift:baseline;white-space:pre;display:inline;overflow:visible;vector-effect:none;fill:#dbcca4;stroke-linejoin:round;paint-order:stroke fill markers;enable-background:accumulate;stop-color:#000000;stop-opacity:1"
           d="m 35.058594,15.830078 c -0.234379,0 -0.452587,0.03601 -0.648438,0.115235 -0.183957,0.07354 -0.34814,0.178234 -0.480469,0.314453 -0.130963,0.133188 -0.231372,0.293856 -0.296875,0.470703 -0.0642,0.171875 -0.0957,0.355122 -0.0957,0.542968 0,0.240584 0.04002,0.466017 0.128907,0.666016 0.0904,0.201146 0.235714,0.371695 0.419921,0.488281 a 0.29028052,0.29028052 0 0 0 0.0039,0.002 c 0.190795,0.116863 0.416162,0.171875 0.654297,0.171875 0.171595,0 0.333721,-0.03304 0.490234,-0.08008 -0.02019,0.05576 -0.02766,0.15054 -0.05078,0.195313 -0.08707,0.169921 -0.192879,0.283445 -0.322266,0.361328 -0.126717,0.07702 -0.28026,0.119141 -0.480469,0.119141 a 0.29028052,0.29028052 0 0 0 -0.289062,0.291015 v 0.126953 a 0.29028052,0.29028052 0 0 0 0.05664,0.173828 l 0.107422,0.142579 a 0.29028052,0.29028052 0 0 0 0.259766,0.115234 c 0.381417,-0.03521 0.728832,-0.154222 1.025391,-0.359375 a 0.29028052,0.29028052 0 0 0 0.002,-0.002 c 0.299254,-0.209068 0.530678,-0.502621 0.689453,-0.859375 0.160346,-0.362262 0.236328,-0.778423 0.236328,-1.242188 0,-0.511348 -0.101914,-0.94036 -0.345703,-1.261718 -0.244725,-0.322592 -0.633067,-0.492188 -1.064453,-0.492188 z m -0.0293,0.802734 c 0.08581,0 0.125841,0.01533 0.169922,0.05469 a 0.29028052,0.29028052 0 0 0 0.0039,0.0039 c 0.0436,0.03748 0.09068,0.108579 0.126953,0.240235 a 0.29028052,0.29028052 0 0 0 0.002,0.0039 c 0.03851,0.133419 0.06055,0.311224 0.06055,0.529297 0,0.06605 -0.0036,0.107585 -0.0039,0.111328 -0.0263,0.02155 -0.0526,0.04435 -0.08789,0.06641 -0.03908,0.02378 -0.07868,0.04266 -0.11914,0.05859 -0.04101,0.01451 -0.08295,0.02636 -0.126954,0.03516 -0.03945,0.0066 -0.08233,0.0098 -0.130859,0.0098 -0.121233,0 -0.159257,-0.02098 -0.214844,-0.0957 -0.05565,-0.07481 -0.101562,-0.208663 -0.101562,-0.427735 0,-0.104844 0.0096,-0.197153 0.0293,-0.277344 a 0.29028052,0.29028052 0 0 0 0,-0.002 c 0.01873,-0.07739 0.04664,-0.133458 0.07813,-0.177734 0.03007,-0.04157 0.06278,-0.0724 0.113281,-0.09766 0.04035,-0.02018 0.104505,-0.03516 0.201172,-0.03516 z"
           id="path28" />
        <path
           style="font-size:5.33333px;font-family:'Cambria Math';-inkscape-font-specification:'Cambria Math';text-align:center;baseline-shift:baseline;white-space:pre;display:inline;overflow:visible;vector-effect:none;fill:#483725;stroke-linejoin:round;paint-order:stroke fill markers;enable-background:accumulate;stop-color:#000000;stop-opacity:1"
           d="M 34.381511,19.615044 V 19.48744 q 0.364583,0 0.630208,-0.161458 0.268229,-0.161458 0.429687,-0.476562 0.164062,-0.317708 0.21875,-0.830729 l -0.02604,-0.01042 q -0.21875,0.15625 -0.432291,0.229167 -0.210938,0.07292 -0.458333,0.07292 -0.294271,0 -0.502604,-0.127605 Q 34.035157,18.052545 33.93099,17.820774 33.826824,17.5864 33.826824,17.2739 q 0,-0.234375 0.07813,-0.442708 0.07813,-0.210938 0.23177,-0.367188 0.153646,-0.158854 0.382813,-0.249999 0.23177,-0.09375 0.539062,-0.09375 0.546874,0 0.833333,0.377604 0.286458,0.377604 0.286458,1.085936 0,0.648438 -0.210938,1.125 -0.210937,0.473958 -0.591145,0.739583 -0.380208,0.26302 -0.88802,0.309895 z m 0.541666,-1.578124 q 0.09896,0 0.1875,-0.01563 0.09115,-0.01823 0.177083,-0.04948 0.08594,-0.03385 0.166667,-0.08333 0.08333,-0.05208 0.148437,-0.109375 0.02344,-0.02083 0.04167,-0.05469 0.01823,-0.03385 0.02865,-0.08854 0.01042,-0.05469 0.01042,-0.171875 0,-0.356771 -0.07292,-0.609375 -0.07031,-0.255208 -0.21875,-0.382812 -0.145833,-0.130208 -0.361979,-0.130208 -0.195312,0 -0.330729,0.06771 -0.135417,0.06771 -0.221354,0.1875 -0.08333,0.117187 -0.122396,0.278646 -0.03906,0.158854 -0.03906,0.346353 0,0.388021 0.158854,0.601563 0.158854,0.213541 0.447916,0.213541 z"
           id="path29" />
      </g>
      <g
         id="text1-2-1"
         style="opacity:1"
         transform="matrix(-0.3445289,0,0,-0.3445289,21.091476,20.674733)">
        <path
           style="font-weight:bold;font-size:5.33333px;font-family:'Cambria Math';-inkscape-font-specification:'Cambria Math Bold';text-align:center;baseline-shift:baseline;white-space:pre;display:inline;overflow:visible;vector-effect:none;fill:#dbcca4;stroke-linejoin:round;paint-order:stroke fill markers;enable-background:accumulate;stop-color:#000000;stop-opacity:1"
           d="m 35.816406,15.830078 c -0.298789,0.01593 -0.587471,0.09162 -0.857422,0.224609 -0.269733,0.131131 -0.508504,0.314986 -0.710937,0.542969 -0.204074,0.228186 -0.36215,0.496414 -0.470703,0.796875 -0.109287,0.302491 -0.16211,0.625378 -0.16211,0.964844 0,0.500594 0.102415,0.92086 0.353516,1.228516 a 0.29028052,0.29028052 0 0 0 0.002,0 c 0.253461,0.307773 0.645647,0.460937 1.085938,0.460937 0.300976,0 0.573827,-0.05642 0.80664,-0.183594 0.227236,-0.123357 0.411832,-0.306405 0.525391,-0.53125 0.109305,-0.218609 0.160156,-0.465609 0.160156,-0.728515 0,-0.239902 -0.04,-0.463531 -0.128906,-0.66211 v -0.002 c -0.09034,-0.202542 -0.237381,-0.373392 -0.423828,-0.488281 -0.189669,-0.119556 -0.41597,-0.175781 -0.654297,-0.175781 -0.149122,0 -0.28905,0.03317 -0.427735,0.06836 0.01855,-0.03648 0.02444,-0.09128 0.04492,-0.125 l 0.002,-0.002 c 0.114288,-0.184333 0.248153,-0.313576 0.408204,-0.402344 0.160155,-0.08882 0.344415,-0.134765 0.570312,-0.134765 a 0.29028052,0.29028052 0 0 0 0.289063,-0.291016 v -0.126953 a 0.29028052,0.29028052 0 0 0 -0.05664,-0.173828 l -0.107422,-0.142578 a 0.29028052,0.29028052 0 0 0 -0.248047,-0.117188 z m -0.654297,2.302734 c 0.120364,10e-7 0.158694,0.02126 0.214844,0.09766 0.05599,0.07527 0.101563,0.208714 0.101563,0.425781 0,0.106187 -0.01031,0.201065 -0.0293,0.285156 a 0.29028052,0.29028052 0 0 0 0,0.0039 c -0.01555,0.07297 -0.04053,0.128214 -0.07227,0.173829 -0.02645,0.03839 -0.05609,0.06662 -0.105469,0.0918 -0.03725,0.01899 -0.100598,0.03516 -0.197265,0.03516 -0.151272,0 -0.196754,-0.0285 -0.259766,-0.126953 -0.06588,-0.102944 -0.121094,-0.300432 -0.121094,-0.59961 0,-0.11019 0.0032,-0.19021 0.0059,-0.214844 7.6e-4,-0.0071 -7.99e-4,-0.0022 0,-0.0059 0.04374,-0.03473 0.08685,-0.06581 0.128906,-0.08789 0.04773,-0.02505 0.099,-0.04493 0.154297,-0.05859 0.05718,-0.01368 0.116341,-0.01953 0.179687,-0.01953 z"
           id="path22" />
        <path
           style="font-weight:bold;font-size:5.33333px;font-family:'Cambria Math';-inkscape-font-specification:'Cambria Math Bold';text-align:center;baseline-shift:baseline;white-space:pre;display:inline;overflow:visible;vector-effect:none;fill:#483725;stroke-linejoin:round;paint-order:stroke fill markers;enable-background:accumulate;stop-color:#000000;stop-opacity:1"
           d="m 35.938802,16.263484 v 0.127604 q -0.401042,0 -0.710938,0.171875 -0.309895,0.171875 -0.515624,0.505208 -0.203125,0.333333 -0.286458,0.791666 l 0.02604,0.01042 q 0.21875,-0.15625 0.429688,-0.229167 0.213541,-0.07292 0.460937,-0.07292 0.29427,0 0.499999,0.130209 0.208334,0.127604 0.3125,0.361979 0.104167,0.23177 0.104167,0.54427 0,0.338542 -0.130208,0.598958 -0.130209,0.257812 -0.403646,0.40625 -0.270833,0.148437 -0.66927,0.148437 -0.570313,0 -0.861979,-0.354166 -0.289062,-0.354167 -0.289062,-1.04427 0,-0.463542 0.145833,-0.867187 0.145833,-0.403646 0.414062,-0.703125 0.268229,-0.302083 0.622396,-0.473958 0.354166,-0.174479 0.744791,-0.195312 z m -0.776042,1.578124 q -0.127604,0 -0.247395,0.02865 -0.117188,0.02865 -0.221354,0.08333 -0.104167,0.05469 -0.203125,0.138021 -0.03125,0.02865 -0.04687,0.0599 -0.02604,0.04948 -0.03385,0.122396 -0.0078,0.07292 -0.0078,0.244792 0,0.497395 0.166667,0.757812 0.166666,0.260416 0.505208,0.260416 0.195312,0 0.328125,-0.06771 0.132812,-0.06771 0.213541,-0.184896 0.08333,-0.119791 0.117188,-0.278645 0.03646,-0.161459 0.03646,-0.348959 0,-0.385416 -0.158854,-0.598958 -0.158854,-0.216145 -0.447917,-0.216145 z"
           id="path23" />
      </g>
      <g
         id="text5"
         style="opacity:1"
         transform="matrix(0.29837078,0.17226445,-0.17226445,0.29837078,4.3715714,-7.1208767)">
        <path
           style="font-size:5.33333px;font-family:'Cambria Math';-inkscape-font-specification:'Cambria Math';text-align:center;baseline-shift:baseline;white-space:pre;display:inline;overflow:visible;vector-effect:none;fill:#dbcca4;stroke-linejoin:round;paint-order:stroke fill markers;enable-background:accumulate;stop-color:#000000;stop-opacity:1"
           d="m 35.248047,15.830078 a 0.29028052,0.29028052 0 0 0 -0.148438,0.04102 l -1.21875,0.726562 a 0.29028052,0.29028052 0 0 0 -0.103515,0.392578 l 0.115234,0.201172 a 0.29028052,0.29028052 0 0 0 0.412109,0.09766 c 0.126386,-0.08426 0.224205,-0.143238 0.310547,-0.193359 v 1.941406 c 0,0.101076 -0.01564,0.160749 -0.01172,0.152344 -0.0035,0.001 -0.01689,0.0083 -0.06641,0.01758 -0.05526,0.0092 -0.185442,0.02093 -0.371093,0.0293 a 0.29028052,0.29028052 0 0 0 -0.277344,0.291016 v 0.189453 a 0.29028052,0.29028052 0 0 0 0.289062,0.291015 h 1.925782 a 0.29028052,0.29028052 0 0 0 0.289062,-0.291015 v -0.189453 a 0.29028052,0.29028052 0 0 0 -0.28125,-0.291016 c -0.128938,-0.0034 -0.231713,-0.01023 -0.300781,-0.01758 -0.06178,-0.0083 -0.108061,-0.01859 -0.136719,-0.02734 -0.0035,-0.0237 -0.0078,-0.07292 -0.0078,-0.154297 V 16.8125 c 0,-0.291724 0.0059,-0.517811 0.01563,-0.673828 a 0.29028052,0.29028052 0 0 0 -0.289063,-0.308594 z m -0.15625,0.720703 c -2.45e-4,0.01596 -0.0018,0.02847 -0.002,0.04492 -0.0094,-0.01173 -0.02799,-0.009 -0.03906,-0.01953 z m 0.05469,2.845703 -0.002,0.0078 c 0.0027,0.0073 0.0068,0.01423 0.0098,0.02148 H 35.125 c 0.0041,-0.0094 0.0141,-0.01591 0.01758,-0.02539 4.91e-4,0.0014 0.0015,0.0026 0.002,0.0039 7.42e-4,-0.0019 -7.2e-4,-0.0039 0,-0.0059 2.74e-4,-7.24e-4 0.0017,-0.0012 0.002,-0.002 z"
           id="path2" />
        <path
           style="font-size:5.33333px;font-family:'Cambria Math';-inkscape-font-specification:'Cambria Math';text-align:center;baseline-shift:baseline;white-space:pre;display:inline;overflow:visible;vector-effect:none;fill:#483725;stroke-linejoin:round;paint-order:stroke fill markers;enable-background:accumulate;stop-color:#000000;stop-opacity:1"
           d="m 35.376302,19.03692 q 0,0.151041 0.01563,0.229166 0.01823,0.07552 0.0599,0.125 0.04427,0.04687 0.125,0.07552 0.08073,0.02604 0.203124,0.04167 0.122396,0.01302 0.322917,0.01823 v 0.190104 h -1.924478 v -0.190104 q 0.289062,-0.01302 0.411458,-0.03386 0.125,-0.02344 0.190104,-0.06771 0.0651,-0.04427 0.09375,-0.125 0.03125,-0.08073 0.03125,-0.26302 v -2.111978 q 0,-0.104167 -0.03646,-0.151042 -0.03646,-0.04948 -0.106771,-0.04948 -0.08333,0 -0.236979,0.08594 -0.153646,0.08594 -0.380208,0.236979 l -0.114583,-0.20052 1.218749,-0.726562 h 0.143229 q -0.01563,0.249999 -0.01563,0.692708 z"
           id="path13" />
      </g>
      <g
         id="text7"
         style="opacity:1"
         transform="matrix(-0.17226445,0.29837078,-0.29837078,-0.17226445,24.929188,4.2661711)">
        <path
           style="font-size:5.33333px;font-family:'Cambria Math';-inkscape-font-specification:'Cambria Math';text-align:center;baseline-shift:baseline;white-space:pre;display:inline;overflow:visible;vector-effect:none;fill:#dbcca4;stroke-linejoin:round;paint-order:stroke fill markers;enable-background:accumulate;stop-color:#000000;stop-opacity:1"
           d="m 35.291016,15.853516 a 0.29028052,0.29028052 0 0 0 -0.242188,0.128906 l -1.523437,2.300781 a 0.29028052,0.29028052 0 0 0 -0.04883,0.160156 v 0.195313 a 0.29028052,0.29028052 0 0 0 0.291016,0.291015 h 1.15625 v 0.136719 c 0,0.115286 -0.0067,0.193727 -0.01172,0.222656 0.0045,-0.0067 -0.0044,0.0015 -0.07422,0.01953 a 0.29028052,0.29028052 0 0 0 -0.21875,0.28125 v 0.126953 a 0.29028052,0.29028052 0 0 0 0.291015,0.291015 h 1.056641 a 0.29028052,0.29028052 0 0 0 0.291015,-0.291015 v -0.126953 a 0.29028052,0.29028052 0 0 0 -0.216796,-0.28125 c -0.05211,-0.01359 -0.06879,-0.02105 -0.08008,-0.02539 -0.0035,-0.02749 -0.0078,-0.106255 -0.0078,-0.216797 v -0.136719 h 0.333984 a 0.29028052,0.29028052 0 0 0 0.291016,-0.273437 l 0.03125,-0.537109 A 0.29028052,0.29028052 0 0 0 36.318359,17.8125 h -0.197265 a 0.29028052,0.29028052 0 0 0 -0.167969,0.125 v -1.792969 a 0.29028052,0.29028052 0 0 0 -0.291016,-0.291015 z m 0.08203,0.689453 v 0.04102 a 0.29028052,0.29028052 0 0 0 -0.01563,-0.01758 z m -0.449219,1.197265 v 0.355469 h -0.224609 z m 0.515625,0.712891 a 0.29028052,0.29028052 0 0 0 0.05859,0.05859 0.29028052,0.29028052 0 0 0 -0.05859,0.06055 0.29028052,0.29028052 0 0 0 -0.06055,-0.06055 0.29028052,0.29028052 0 0 0 0.06055,-0.05859 z"
           id="path18" />
        <path
           style="font-size:5.33333px;font-family:'Cambria Math';-inkscape-font-specification:'Cambria Math';text-align:center;baseline-shift:baseline;white-space:pre;display:inline;overflow:visible;vector-effect:none;fill:#483725;stroke-linejoin:round;paint-order:stroke fill markers;enable-background:accumulate;stop-color:#000000;stop-opacity:1"
           d="m 34.910156,19.589003 q 0.161459,-0.04167 0.216146,-0.09115 0.05469,-0.05208 0.07031,-0.145833 0.01823,-0.09375 0.01823,-0.286459 V 18.638482 H 33.766928 V 18.44317 l 1.523436,-2.299478 h 0.372396 v 2.242186 h 0.05469 q 0.151041,0 0.216145,-0.02083 0.0651,-0.02344 0.106771,-0.07813 0.04427,-0.05729 0.08073,-0.184896 h 0.197917 l -0.03125,0.536458 h -0.625 v 0.427083 q 0,0.174479 0.01042,0.255209 0.01302,0.08073 0.03906,0.127604 0.02865,0.04687 0.08073,0.07813 0.05469,0.03125 0.174479,0.0625 v 0.127604 h -1.057291 z m -0.713541,-1.203125 h 1.018229 v -0.648437 q 0,-0.244791 0.0078,-0.546874 0.0078,-0.304688 0.01823,-0.458334 h -0.02604 l -1.018229,1.617187 z"
           id="path19" />
      </g>
      <g
         id="text9"
         style="opacity:1"
         transform="matrix(0.17226445,-0.29837078,0.29837078,0.17226445,-7.02955,13.748365)">
        <path
           style="font-size:5.33333px;font-family:'Cambria Math';-inkscape-font-specification:'Cambria Math';text-align:center;baseline-shift:baseline;white-space:pre;display:inline;overflow:visible;vector-effect:none;fill:#dbcca4;stroke-linejoin:round;paint-order:stroke fill markers;enable-background:accumulate;stop-color:#000000;stop-opacity:1"
           d="m 33.771484,15.830078 a 0.29028052,0.29028052 0 0 0 -0.148437,0.04102 l -1.21875,0.726562 a 0.29028052,0.29028052 0 0 0 -0.103516,0.392578 l 0.115235,0.201172 a 0.29028052,0.29028052 0 0 0 0.412109,0.09766 c 0.126386,-0.08426 0.224205,-0.143238 0.310547,-0.193359 v 1.941406 c 0,0.101076 -0.01564,0.160749 -0.01172,0.152344 -0.0035,0.001 -0.01688,0.0083 -0.06641,0.01758 -0.05526,0.0092 -0.185442,0.02093 -0.371094,0.0293 a 0.29028052,0.29028052 0 0 0 -0.277344,0.291016 v 0.189453 a 0.29028052,0.29028052 0 0 0 0.289063,0.291015 h 1.925781 a 0.29028052,0.29028052 0 0 0 0.289063,-0.291015 v -0.189453 a 0.29028052,0.29028052 0 0 0 -0.28125,-0.291016 c -0.128937,-0.0034 -0.231714,-0.01023 -0.300782,-0.01758 -0.06178,-0.0083 -0.108061,-0.01859 -0.136718,-0.02734 -0.0035,-0.0237 -0.0078,-0.07292 -0.0078,-0.154297 V 16.8125 c 0,-0.291724 0.0059,-0.517811 0.01563,-0.673828 a 0.29028052,0.29028052 0 0 0 -0.289062,-0.308594 z m 2.761719,0 c -0.210295,0 -0.415917,0.04654 -0.599609,0.140625 -0.190429,0.09754 -0.349437,0.24885 -0.47461,0.435547 a 0.29028052,0.29028052 0 0 0 -0.002,0 c -0.124749,0.187127 -0.214097,0.411155 -0.277344,0.667969 a 0.29028052,0.29028052 0 0 0 0,0.002 c -0.06252,0.261831 -0.0918,0.560215 -0.0918,0.896484 0,0.630055 0.0898,1.126052 0.318359,1.496094 0.230862,0.37025 0.632838,0.580078 1.083984,0.580078 0.461544,0 0.872447,-0.221943 1.115235,-0.607422 0.245046,-0.387812 0.345703,-0.904768 0.345703,-1.550781 0,-0.62402 -0.09112,-1.118161 -0.324219,-1.486328 -0.23364,-0.369019 -0.63888,-0.574219 -1.09375,-0.574219 z m -2.917969,0.720703 c -2.45e-4,0.01596 -0.0018,0.02847 -0.002,0.04492 -0.0094,-0.01173 -0.02799,-0.009 -0.03906,-0.01953 z m 2.904297,0.08203 c 0.05302,0 0.06775,0.003 0.115235,0.05859 a 0.29028052,0.29028052 0 0 0 0.002,0.002 c 0.03865,0.04437 0.107664,0.180078 0.154297,0.402344 a 0.29028052,0.29028052 0 0 0 0,0.002 c 0.04553,0.215517 0.07031,0.521518 0.07031,0.908203 0,0.503605 -0.05533,0.864481 -0.130859,1.048828 -0.07427,0.183118 -0.101538,0.191407 -0.197266,0.191407 -0.10469,0 -0.140731,-0.01362 -0.220703,-0.212891 -0.07838,-0.200704 -0.134766,-0.591432 -0.134766,-1.138672 0,-0.232971 0.0099,-0.439323 0.0293,-0.617187 0.01901,-0.175853 0.05004,-0.317779 0.08789,-0.421875 0.03768,-0.09877 0.07883,-0.156302 0.113281,-0.1875 0.02857,-0.02493 0.04903,-0.03516 0.111328,-0.03516 z m -2.849609,2.763672 -0.002,0.0078 c 0.0027,0.0073 0.0068,0.01423 0.0098,0.02148 h -0.0293 c 0.0041,-0.0094 0.0141,-0.01591 0.01758,-0.02539 4.9e-4,0.0014 0.0015,0.0026 0.002,0.0039 7.42e-4,-0.0019 -7.21e-4,-0.0039 0,-0.0059 2.73e-4,-7.24e-4 0.0017,-0.0012 0.002,-0.002 z"
           id="path30" />
        <path
           style="font-size:5.33333px;font-family:'Cambria Math';-inkscape-font-specification:'Cambria Math';text-align:center;baseline-shift:baseline;white-space:pre;display:inline;overflow:visible;vector-effect:none;fill:#483725;stroke-linejoin:round;paint-order:stroke fill markers;enable-background:accumulate;stop-color:#000000;stop-opacity:1"
           d="m 33.89974,19.03692 q 0,0.151041 0.01563,0.229166 0.01823,0.07552 0.0599,0.125 0.04427,0.04687 0.125,0.07552 0.08073,0.02604 0.203125,0.04167 0.122396,0.01302 0.322916,0.01823 v 0.190104 h -1.924478 v -0.190104 q 0.289063,-0.01302 0.411458,-0.03386 0.125,-0.02344 0.190104,-0.06771 0.0651,-0.04427 0.09375,-0.125 0.03125,-0.08073 0.03125,-0.26302 v -2.111978 q 0,-0.104167 -0.03646,-0.151042 -0.03646,-0.04948 -0.106771,-0.04948 -0.08333,0 -0.236979,0.08594 -0.153645,0.08594 -0.380208,0.236979 l -0.114583,-0.20052 1.218749,-0.726562 h 0.143229 q -0.01563,0.249999 -0.01563,0.692708 z m 2.591145,0.721353 q -0.5625,0 -0.838542,-0.442708 -0.273437,-0.442708 -0.273437,-1.343749 0,-0.479166 0.08333,-0.828124 0.08594,-0.348959 0.236979,-0.575521 0.153646,-0.229166 0.367188,-0.338541 0.213541,-0.109375 0.466145,-0.109375 0.570312,0 0.848958,0.440104 0.278646,0.440103 0.278646,1.330728 0,0.921874 -0.299479,1.395832 -0.296875,0.471354 -0.869791,0.471354 z m -0.604167,-1.864582 q 0,0.848958 0.15625,1.247395 0.158854,0.395833 0.489583,0.395833 0.315104,0 0.466146,-0.372395 0.153646,-0.375 0.153646,-1.158854 0,-0.598958 -0.07813,-0.968749 -0.07813,-0.372396 -0.21875,-0.533854 -0.138021,-0.161458 -0.335938,-0.161458 -0.179687,0 -0.302083,0.10677 -0.119791,0.106771 -0.195312,0.307292 -0.07292,0.200521 -0.104167,0.489583 -0.03125,0.286458 -0.03125,0.648437 z"
           id="path31" />
      </g>
      <g
         id="text10"
         style="opacity:1"
         transform="matrix(-0.29837078,-0.17226445,0.17226445,-0.29837078,13.638686,25.183925)">
        <path
           style="font-weight:bold;font-size:5.33333px;font-family:'Cambria Math';-inkscape-font-specification:'Cambria Math Bold';text-align:center;baseline-shift:baseline;white-space:pre;display:inline;overflow:visible;vector-effect:none;fill:#dbcca4;stroke-linejoin:round;paint-order:stroke fill markers;enable-background:accumulate;stop-color:#000000;stop-opacity:1"
           d="m 34.003906,15.871094 a 0.29028052,0.29028052 0 0 0 -0.289062,0.273437 l -0.05273,0.84375 a 0.29028052,0.29028052 0 0 0 0.289063,0.308594 h 0.224609 a 0.29028052,0.29028052 0 0 0 0.279297,-0.212891 c 0.03107,-0.111188 0.06084,-0.187808 0.06055,-0.1875 -3e-6,3e-6 8e-6,-0.002 0,-0.002 a 0.29028052,0.29028052 0 0 0 0.0039,0 c -4.59e-4,1.47e-4 0.03168,-0.0078 0.08398,-0.0078 h 0.705078 l -1.226563,2.595703 a 0.29028052,0.29028052 0 0 0 -0.02734,0.125 v 0.126953 a 0.29028052,0.29028052 0 0 0 0.291016,0.291016 h 0.376953 a 0.29028052,0.29028052 0 0 0 0.265625,-0.173829 l 1.515625,-3.447265 a 0.29028052,0.29028052 0 0 0 0.02539,-0.117188 v -0.125 a 0.29028052,0.29028052 0 0 0 -0.291016,-0.291015 z m 0.345703,0.46875 c -8.26e-4,2.41e-4 -0.0011,0.0017 -0.002,0.002 -0.0019,5.94e-4 -0.0039,-6.14e-4 -0.0059,0 z"
           id="path24" />
        <path
           style="font-weight:bold;font-size:5.33333px;font-family:'Cambria Math';-inkscape-font-specification:'Cambria Math Bold';text-align:center;baseline-shift:baseline;white-space:pre;display:inline;overflow:visible;vector-effect:none;fill:#483725;stroke-linejoin:round;paint-order:stroke fill markers;enable-background:accumulate;stop-color:#000000;stop-opacity:1"
           d="m 36.238281,16.286921 -1.515625,3.447915 h -0.377604 v -0.127604 l 1.403645,-2.971353 v -0.03906 h -1.145832 q -0.106771,0 -0.171875,0.02083 -0.0625,0.01823 -0.106771,0.05469 -0.04167,0.03646 -0.07031,0.09635 -0.02865,0.0599 -0.07813,0.236979 h -0.223958 l 0.05208,-0.84375 h 2.234374 z"
           id="path25" />
      </g>
      <g
         id="text13"
         style="opacity:1"
         transform="matrix(0.17226445,0.29837078,-0.29837078,0.17226445,12.991561,-7.250347)">
        <path
           style="font-size:5.33333px;font-family:'Cambria Math';-inkscape-font-specification:'Cambria Math';text-align:center;baseline-shift:baseline;white-space:pre;display:inline;overflow:visible;vector-effect:none;fill:#dbcca4;stroke-linejoin:round;paint-order:stroke fill markers;enable-background:accumulate;stop-color:#000000;stop-opacity:1"
           d="m 35.064453,15.830078 c -0.175781,0 -0.363197,0.02681 -0.564453,0.07617 -0.205696,0.04912 -0.418629,0.126926 -0.642578,0.232422 a 0.29028052,0.29028052 0 0 0 -0.167969,0.263672 v 0.5 a 0.29028052,0.29028052 0 0 0 0.291016,0.289062 h 0.314453 a 0.29028052,0.29028052 0 0 0 0.277344,-0.203125 c 0.04461,-0.142737 0.101241,-0.224127 0.15625,-0.269531 0.05501,-0.0454 0.114137,-0.06836 0.222656,-0.06836 0.08764,0 0.13395,0.01619 0.162109,0.03516 a 0.29028052,0.29028052 0 0 0 0.002,0.002 c 0.03938,0.02599 0.06211,0.05261 0.08398,0.105469 a 0.29028052,0.29028052 0 0 0 0,0.002 c 0.024,0.057 0.04102,0.133174 0.04102,0.232422 0,0.0569 -0.0083,0.112747 -0.02344,0.171875 -0.01391,0.05253 -0.0382,0.117794 -0.07813,0.193359 a 0.29028052,0.29028052 0 0 0 -0.002,0.002 c -0.0343,0.06607 -0.09719,0.163184 -0.1875,0.279297 -0.07895,0.10217 -0.220989,0.268769 -0.419922,0.488281 a 0.29028052,0.29028052 0 0 0 -0.002,0.002 c -0.238862,0.265601 -0.42586,0.498192 -0.564453,0.707032 -0.135745,0.204547 -0.247066,0.408624 -0.330079,0.611328 a 0.29028052,0.29028052 0 0 0 -0.02148,0.109375 v 0.125 a 0.29028052,0.29028052 0 0 0 0.291016,0.291015 h 2.142578 a 0.29028052,0.29028052 0 0 0 0.291015,-0.273437 l 0.04297,-0.761719 a 0.29028052,0.29028052 0 0 0 -0.289062,-0.30664 h -0.220703 a 0.29028052,0.29028052 0 0 0 -0.275391,0.197265 c -0.0235,0.06903 -0.0401,0.112898 -0.05078,0.136719 -0.02228,0.0045 -0.07522,0.0098 -0.148438,0.0098 h -0.382812 c 0.113588,-0.142446 0.180187,-0.256995 0.33789,-0.423829 a 0.29028052,0.29028052 0 0 0 0.002,-0.002 c 0.196774,-0.208963 0.33477,-0.356976 0.417969,-0.449218 a 0.29028052,0.29028052 0 0 0 0.002,-0.002 c 0.08417,-0.09515 0.161641,-0.190071 0.232422,-0.283203 0.07331,-0.09646 0.133537,-0.189589 0.181641,-0.283203 l 0.002,-0.002 c 0.04975,-0.09559 0.08617,-0.194786 0.109375,-0.296875 0.02441,-0.101976 0.03711,-0.208262 0.03711,-0.318359 0,-0.328396 -0.115123,-0.636008 -0.349609,-0.835938 -0.235859,-0.203584 -0.554352,-0.283203 -0.919922,-0.283203 z"
           id="path14" />
        <path
           style="font-size:5.33333px;font-family:'Cambria Math';-inkscape-font-specification:'Cambria Math';text-align:center;baseline-shift:baseline;white-space:pre;display:inline;overflow:visible;vector-effect:none;fill:#483725;stroke-linejoin:round;paint-order:stroke fill markers;enable-background:accumulate;stop-color:#000000;stop-opacity:1"
           d="m 35.394531,19.29994 q 0.127604,0 0.205729,-0.01563 0.07813,-0.01563 0.125,-0.05208 0.04687,-0.03646 0.07292,-0.09375 0.02864,-0.0599 0.07031,-0.182292 h 0.221354 l -0.04427,0.760417 h -2.143228 v -0.125 q 0.11198,-0.273438 0.302084,-0.559896 0.190104,-0.286458 0.539062,-0.674479 0.302083,-0.333333 0.434895,-0.505208 0.145834,-0.187499 0.216146,-0.322916 0.07292,-0.138021 0.104167,-0.257812 0.03125,-0.122396 0.03125,-0.244792 0,-0.195312 -0.0625,-0.34375 -0.0625,-0.151041 -0.192709,-0.236979 -0.127604,-0.08594 -0.322916,-0.08594 -0.486979,0 -0.65625,0.541666 h -0.315104 v -0.5 q 0.315104,-0.148437 0.588542,-0.213541 0.276041,-0.06771 0.494791,-0.06771 0.484375,0 0.73177,0.213541 0.247396,0.210938 0.247396,0.614583 0,0.138021 -0.02865,0.255208 -0.02604,0.114584 -0.08594,0.229167 -0.05729,0.111979 -0.15625,0.242187 -0.09896,0.130208 -0.21875,0.265625 -0.119791,0.132812 -0.414062,0.445312 -0.494792,0.523437 -0.726562,0.914062 z"
           id="path15" />
      </g>
      <g
         id="text15"
         style="opacity:1"
         transform="matrix(-0.29837078,0.17226445,-0.17226445,-0.29837078,25.100743,12.829847)">
        <path
           style="font-size:5.33333px;font-family:'Cambria Math';-inkscape-font-specification:'Cambria Math';text-align:center;baseline-shift:baseline;white-space:pre;display:inline;overflow:visible;vector-effect:none;fill:#dbcca4;stroke-linejoin:round;paint-order:stroke fill markers;enable-background:accumulate;stop-color:#000000;stop-opacity:1"
           d="m 35.792969,15.699219 a 0.29028052,0.29028052 0 0 0 -0.244141,0.171875 0.29028052,0.29028052 0 0 0 -0.002,0 h -1.433594 a 0.29028052,0.29028052 0 0 0 -0.291015,0.291015 V 17.875 a 0.29028052,0.29028052 0 0 0 0.144531,0.25 l 0.207031,0.123047 a 0.29028052,0.29028052 0 0 0 0.236328,0.02539 c 0.08566,-0.02754 0.164171,-0.0455 0.232422,-0.05664 a 0.29028052,0.29028052 0 0 0 0.0059,-0.002 c 0.0616,-0.01132 0.146704,-0.01758 0.251954,-0.01758 0.103596,0 0.178636,0.01852 0.238281,0.04883 0.0478,0.02429 0.08502,0.05899 0.125,0.136718 a 0.29028052,0.29028052 0 0 0 0.002,0.002 c 0.0343,0.06575 0.06055,0.171096 0.06055,0.322265 0,0.234664 -0.05277,0.367006 -0.109375,0.433594 -0.05758,0.06774 -0.128074,0.105469 -0.300781,0.105469 -0.117358,0 -0.180895,-0.02542 -0.228516,-0.0625 h -0.002 c -0.04401,-0.03577 -0.09437,-0.106792 -0.134766,-0.244141 a 0.29028052,0.29028052 0 0 0 -0.279297,-0.208984 h -0.314453 a 0.29028052,0.29028052 0 0 0 -0.291015,0.291015 v 0.552735 a 0.29028052,0.29028052 0 0 0 0.189453,0.271484 c 0.355419,0.133517 0.70487,0.203125 1.044922,0.203125 0.285098,0 0.54713,-0.04961 0.777343,-0.158203 0.231017,-0.10897 0.422495,-0.279522 0.548828,-0.496094 0.126839,-0.217437 0.185547,-0.473022 0.185547,-0.746094 0,-0.245193 -0.05496,-0.477797 -0.167968,-0.679687 -0.112413,-0.202343 -0.280899,-0.366815 -0.486329,-0.474609 -0.20555,-0.109479 -0.439111,-0.16211 -0.685546,-0.16211 -0.107698,0 -0.215115,0.01243 -0.322266,0.0293 v -0.476562 h 1.207031 a 0.29028052,0.29028052 0 0 0 0.289063,-0.271485 l 0.03906,-0.605469 a 0.29028052,0.29028052 0 0 0 -0.289062,-0.308593 z"
           id="path20" />
        <path
           style="font-size:5.33333px;font-family:'Cambria Math';-inkscape-font-specification:'Cambria Math';text-align:center;baseline-shift:baseline;white-space:pre;display:inline;overflow:visible;vector-effect:none;fill:#483725;stroke-linejoin:round;paint-order:stroke fill markers;enable-background:accumulate;stop-color:#000000;stop-opacity:1"
           d="m 33.957032,19.573378 v -0.552083 h 0.315104 q 0.07813,0.265624 0.234375,0.390624 0.158854,0.125 0.408854,0.125 0.346354,0 0.523437,-0.208333 0.177083,-0.208333 0.177083,-0.622395 0,-0.276042 -0.09375,-0.455729 -0.09375,-0.182292 -0.252604,-0.263021 -0.158854,-0.08073 -0.369791,-0.08073 -0.177084,0 -0.304688,0.02344 -0.127604,0.02083 -0.273437,0.06771 l -0.208333,-0.122396 v -1.713541 h 1.434895 q 0.08854,0 0.127604,-0.01302 0.03906,-0.01563 0.0625,-0.04427 0.02344,-0.03125 0.05469,-0.114584 h 0.203125 l -0.03906,0.604167 h -1.497395 v 1.143228 q 0.135416,-0.05729 0.29427,-0.08594 0.158854,-0.02865 0.317709,-0.02865 0.309895,0 0.549478,0.127604 0.239584,0.125 0.369792,0.359375 0.130208,0.23177 0.130208,0.539062 0,0.348958 -0.145833,0.598958 -0.145833,0.25 -0.421875,0.380208 -0.276041,0.130208 -0.653645,0.130208 -0.450521,0 -0.942708,-0.184895 z"
           id="path21" />
      </g>
      <g
         id="text17"
         style="opacity:1"
         transform="matrix(0.29837078,-0.17226445,0.17226445,0.29837078,-7.31873,5.0277413)">
        <path
           style="font-size:5.33333px;font-family:'Cambria Math';-inkscape-font-specification:'Cambria Math';text-align:center;baseline-shift:baseline;white-space:pre;display:inline;overflow:visible;vector-effect:none;fill:#dbcca4;stroke-linejoin:round;paint-order:stroke fill markers;enable-background:accumulate;stop-color:#000000;stop-opacity:1"
           d="m 33.771484,15.830078 a 0.29028052,0.29028052 0 0 0 -0.148437,0.04102 l -1.21875,0.726562 a 0.29028052,0.29028052 0 0 0 -0.103516,0.392578 l 0.115235,0.201172 a 0.29028052,0.29028052 0 0 0 0.412109,0.09766 c 0.126386,-0.08426 0.224205,-0.143238 0.310547,-0.193359 v 1.941406 c 0,0.101076 -0.01564,0.160749 -0.01172,0.152344 -0.0035,0.001 -0.01688,0.0083 -0.06641,0.01758 -0.05526,0.0092 -0.185442,0.02093 -0.371094,0.0293 a 0.29028052,0.29028052 0 0 0 -0.277344,0.291016 v 0.189453 a 0.29028052,0.29028052 0 0 0 0.289063,0.291015 h 1.925781 a 0.29028052,0.29028052 0 0 0 0.289063,-0.291015 v -0.189453 a 0.29028052,0.29028052 0 0 0 -0.28125,-0.291016 c -0.128937,-0.0034 -0.231714,-0.01023 -0.300782,-0.01758 -0.06178,-0.0083 -0.108061,-0.01859 -0.136718,-0.02734 -0.0035,-0.0237 -0.0078,-0.07292 -0.0078,-0.154297 V 16.8125 c 0,-0.291724 0.0059,-0.517811 0.01563,-0.673828 a 0.29028052,0.29028052 0 0 0 -0.289062,-0.308594 z m 2.953125,0 a 0.29028052,0.29028052 0 0 0 -0.148437,0.04102 l -1.21875,0.726562 a 0.29028052,0.29028052 0 0 0 -0.103516,0.392578 l 0.115235,0.201172 a 0.29028052,0.29028052 0 0 0 0.412109,0.09766 c 0.126386,-0.08426 0.224205,-0.143238 0.310547,-0.193359 v 1.941406 c 0,0.101076 -0.01564,0.160749 -0.01172,0.152344 -0.0035,0.001 -0.01688,0.0083 -0.06641,0.01758 -0.05526,0.0092 -0.185443,0.02093 -0.371094,0.0293 a 0.29028052,0.29028052 0 0 0 -0.277344,0.291016 v 0.189453 a 0.29028052,0.29028052 0 0 0 0.289063,0.291015 h 1.925781 a 0.29028052,0.29028052 0 0 0 0.289063,-0.291015 v -0.189453 a 0.29028052,0.29028052 0 0 0 -0.28125,-0.291016 c -0.128938,-0.0034 -0.231714,-0.01023 -0.300782,-0.01758 -0.06178,-0.0083 -0.108061,-0.01859 -0.136718,-0.02734 -0.0035,-0.0237 -0.0078,-0.07292 -0.0078,-0.154297 V 16.8125 c 0,-0.291724 0.0059,-0.517811 0.01563,-0.673828 a 0.29028052,0.29028052 0 0 0 -0.289062,-0.308594 z m -3.109375,0.720703 c -2.45e-4,0.01596 -0.0018,0.02847 -0.002,0.04492 -0.0094,-0.01173 -0.02799,-0.009 -0.03906,-0.01953 z m 2.953125,0 c -2.45e-4,0.01596 -0.0018,0.02847 -0.002,0.04492 -0.0094,-0.01173 -0.02799,-0.009 -0.03906,-0.01953 z m -2.898437,2.845703 -0.002,0.0078 c 0.0027,0.0073 0.0068,0.01423 0.0098,0.02148 h -0.0293 c 0.0041,-0.0094 0.0141,-0.01591 0.01758,-0.02539 4.9e-4,0.0014 0.0015,0.0026 0.002,0.0039 7.42e-4,-0.0019 -7.21e-4,-0.0039 0,-0.0059 2.73e-4,-7.24e-4 0.0017,-0.0012 0.002,-0.002 z m 2.953125,0 -0.002,0.0078 c 0.0027,0.0073 0.0068,0.01423 0.0098,0.02148 h -0.0293 c 0.0041,-0.0094 0.0141,-0.01591 0.01758,-0.02539 4.9e-4,0.0014 0.0015,0.0026 0.002,0.0039 7.42e-4,-0.0019 -7.21e-4,-0.0039 0,-0.0059 2.73e-4,-7.24e-4 0.0017,-0.0012 0.002,-0.002 z"
           id="path32" />
        <path
           style="font-size:5.33333px;font-family:'Cambria Math';-inkscape-font-specification:'Cambria Math';text-align:center;baseline-shift:baseline;white-space:pre;display:inline;overflow:visible;vector-effect:none;fill:#483725;stroke-linejoin:round;paint-order:stroke fill markers;enable-background:accumulate;stop-color:#000000;stop-opacity:1"
           d="m 33.89974,19.03692 q 0,0.151041 0.01563,0.229166 0.01823,0.07552 0.0599,0.125 0.04427,0.04687 0.125,0.07552 0.08073,0.02604 0.203125,0.04167 0.122396,0.01302 0.322916,0.01823 v 0.190104 h -1.924478 v -0.190104 q 0.289063,-0.01302 0.411458,-0.03386 0.125,-0.02344 0.190104,-0.06771 0.0651,-0.04427 0.09375,-0.125 0.03125,-0.08073 0.03125,-0.26302 v -2.111978 q 0,-0.104167 -0.03646,-0.151042 -0.03646,-0.04948 -0.106771,-0.04948 -0.08333,0 -0.236979,0.08594 -0.153645,0.08594 -0.380208,0.236979 l -0.114583,-0.20052 1.218749,-0.726562 h 0.143229 q -0.01563,0.249999 -0.01563,0.692708 z m 2.953124,0 q 0,0.151041 0.01563,0.229166 0.01823,0.07552 0.0599,0.125 0.04427,0.04687 0.125,0.07552 0.08073,0.02604 0.203125,0.04167 0.122396,0.01302 0.322917,0.01823 v 0.190104 h -1.924478 v -0.190104 q 0.289062,-0.01302 0.411458,-0.03386 0.125,-0.02344 0.190104,-0.06771 0.0651,-0.04427 0.09375,-0.125 0.03125,-0.08073 0.03125,-0.26302 v -2.111978 q 0,-0.104167 -0.03646,-0.151042 -0.03646,-0.04948 -0.10677,-0.04948 -0.08333,0 -0.236979,0.08594 -0.153646,0.08594 -0.380209,0.236979 l -0.114583,-0.20052 1.21875,-0.726562 h 0.143229 q -0.01563,0.249999 -0.01563,0.692708 z"
           id="path33" />
      </g>
      <g
         id="text18"
         style="opacity:1"
         transform="matrix(-0.17226445,-0.29837078,0.29837078,-0.17226445,4.854503,25.318059)">
        <path
           style="font-weight:bold;font-size:5.33333px;font-family:'Cambria Math';-inkscape-font-specification:'Cambria Math Bold';text-align:center;baseline-shift:baseline;white-space:pre;display:inline;overflow:visible;vector-effect:none;fill:#dbcca4;stroke-linejoin:round;paint-order:stroke fill markers;enable-background:accumulate;stop-color:#000000;stop-opacity:1"
           d="m 35.060547,15.830078 c -0.255529,0 -0.499015,0.04741 -0.720703,0.144531 -0.220254,0.09742 -0.407174,0.242267 -0.539063,0.429688 a 0.29028052,0.29028052 0 0 0 -0.002,0.002 c -0.129949,0.187963 -0.197266,0.41311 -0.197266,0.644531 0,0.329831 0.273602,0.527343 0.5,0.746094 -0.04981,0.03285 -0.110485,0.05815 -0.154296,0.0957 -0.117332,0.100225 -0.210118,0.225736 -0.277344,0.369141 -0.07354,0.156878 -0.105469,0.333172 -0.105469,0.517578 0,0.247262 0.06205,0.482434 0.189453,0.68164 a 0.29028052,0.29028052 0 0 0 0.002,0.0039 c 0.127944,0.1942 0.31181,0.34549 0.529297,0.443359 a 0.29028052,0.29028052 0 0 0 0.0039,0.002 c 0.218115,0.09502 0.4617,0.138672 0.72461,0.138672 0.279232,0 0.53723,-0.04697 0.765625,-0.150391 a 0.29028052,0.29028052 0 0 0 0.002,-0.002 c 0.228819,-0.104786 0.420016,-0.26403 0.548828,-0.46875 0.127754,-0.203038 0.191406,-0.44002 0.191406,-0.689453 0,-0.253096 -0.06674,-0.495084 -0.203125,-0.693359 -0.05973,-0.08753 -0.169528,-0.125888 -0.251953,-0.19336 0.07637,-0.0645 0.180784,-0.104287 0.236328,-0.185546 a 0.29028052,0.29028052 0 0 0 0.002,0 c 0.128264,-0.19002 0.189454,-0.419736 0.189454,-0.658204 0,-0.230974 -0.05655,-0.45057 -0.177735,-0.634765 -0.119651,-0.186821 -0.300397,-0.326708 -0.513672,-0.414063 h -0.002 c -0.216438,-0.09022 -0.463396,-0.128906 -0.740234,-0.128906 z m -0.0039,0.802734 c 0.08925,0 0.151931,0.015 0.205078,0.04297 0.04467,0.02351 0.07691,0.05327 0.109375,0.117188 a 0.29028052,0.29028052 0 0 0 0.002,0.0059 c 0.02992,0.05622 0.05078,0.138992 0.05078,0.259766 0,0.109323 -0.01725,0.1931 -0.04687,0.259765 a 0.29028052,0.29028052 0 0 0 -0.002,0.002 c -0.02455,0.05637 -0.04971,0.08357 -0.09766,0.111329 -0.04362,0.02461 -0.110915,0.04492 -0.216797,0.04492 -0.09255,0 -0.15325,-0.01441 -0.19336,-0.03125 l -0.002,-0.002 c -0.04891,-0.02339 -0.08137,-0.04663 -0.105468,-0.07617 -0.02636,-0.03231 -0.04756,-0.07146 -0.0625,-0.126953 -0.01714,-0.06367 -0.02539,-0.133418 -0.02539,-0.21289 0,-0.168069 0.03766,-0.250926 0.08984,-0.304688 0.05297,-0.05455 0.129154,-0.08984 0.294922,-0.08984 z M 34.1875,17.925781 c 0.0408,0.02998 0.03498,0.09181 0.08008,0.117188 -0.0021,0.0028 -0.0018,0.0069 -0.0039,0.0098 l -0.08594,-0.109375 z m 0.855469,0.347656 c 0.09184,0 0.15326,0.01837 0.208984,0.05273 a 0.29028052,0.29028052 0 0 0 0.0039,0.002 c 0.05313,0.03188 0.09236,0.07287 0.128907,0.150391 a 0.29028052,0.29028052 0 0 0 0,0.002 c 0.03469,0.07253 0.05859,0.17128 0.05859,0.304687 0,0.122924 -0.02245,0.212619 -0.05469,0.28125 a 0.29028052,0.29028052 0 0 0 0,0.0039 c -0.03019,0.06642 -0.06281,0.09982 -0.113281,0.128907 -0.04948,0.02783 -0.116203,0.04687 -0.21875,0.04687 -0.09493,0 -0.158953,-0.01621 -0.199219,-0.03516 -0.05275,-0.02482 -0.08834,-0.05205 -0.117188,-0.08789 -0.02827,-0.03703 -0.05159,-0.08279 -0.06836,-0.144531 v -0.002 c -0.01884,-0.07225 -0.0293,-0.152379 -0.0293,-0.242187 0,-0.08175 0.0097,-0.152837 0.02539,-0.216797 0.01483,-0.05614 0.03449,-0.09529 0.06055,-0.128906 0.02598,-0.03166 0.05686,-0.05852 0.107421,-0.08203 0.04058,-0.0183 0.108633,-0.0332 0.207032,-0.0332 z"
           id="path26" />
        <path
           style="font-weight:bold;font-size:5.33333px;font-family:'Cambria Math';-inkscape-font-specification:'Cambria Math Bold';text-align:center;baseline-shift:baseline;white-space:pre;display:inline;overflow:visible;vector-effect:none;fill:#483725;stroke-linejoin:round;paint-order:stroke fill markers;enable-background:accumulate;stop-color:#000000;stop-opacity:1"
           d="m 35.628906,17.839004 0.0052,0.03385 q 0.294271,0.114583 0.445312,0.335937 0.151042,0.21875 0.151042,0.528646 0,0.304687 -0.145833,0.536458 -0.145833,0.23177 -0.424479,0.359374 -0.276042,0.125 -0.645833,0.125 -0.346354,0 -0.609375,-0.114583 -0.260416,-0.117187 -0.406249,-0.338541 -0.14323,-0.223959 -0.14323,-0.526042 0,-0.226562 0.07813,-0.393229 0.07813,-0.166666 0.203125,-0.273437 0.127604,-0.109375 0.320313,-0.197917 l -0.0052,-0.03385 q -0.559895,-0.242187 -0.559895,-0.830728 0,-0.268229 0.145833,-0.479167 0.148437,-0.210937 0.419271,-0.330729 0.273437,-0.119791 0.604166,-0.119791 0.375,0 0.630208,0.10677 0.255208,0.104167 0.382812,0.304688 0.130208,0.197916 0.130208,0.476562 0,0.286458 -0.140625,0.494791 -0.140624,0.205729 -0.434895,0.335938 z m -1.247395,-0.8125 q 0,0.153646 0.03646,0.289062 0.03646,0.135417 0.117188,0.234375 0.08073,0.09896 0.208333,0.158854 0.130208,0.05729 0.317708,0.05729 0.216146,0 0.361979,-0.08333 0.148437,-0.08594 0.21875,-0.247396 0.07292,-0.164062 0.07292,-0.377604 0,-0.234375 -0.08594,-0.395833 -0.08333,-0.164062 -0.231771,-0.242187 -0.148437,-0.07813 -0.341145,-0.07813 -0.328125,0 -0.502604,0.179687 -0.171875,0.177083 -0.171875,0.505208 z m -0.02865,1.708332 q 0,0.169271 0.03906,0.317709 0.03906,0.145833 0.122396,0.252604 0.08594,0.10677 0.21875,0.16927 0.132813,0.0625 0.322917,0.0625 0.213541,0 0.364583,-0.08594 0.153645,-0.08854 0.23177,-0.260417 0.08073,-0.171875 0.08073,-0.406249 0,-0.25 -0.08594,-0.429688 -0.08594,-0.182291 -0.242187,-0.276041 -0.15625,-0.09635 -0.361979,-0.09635 -0.192708,0 -0.325521,0.0599 -0.130208,0.0599 -0.213541,0.161459 -0.08073,0.101562 -0.117188,0.239583 -0.03385,0.135417 -0.03385,0.291666 z"
           id="path27" />
      </g>
    </g>
    <g
       id="g12"
       style="display:inline;fill:#ac997c;fill-opacity:1"
       transform="matrix(0.85463904,0,0,0.85463904,1.3090325,1.3154176)">
      <path
         d="M 3.1491618,2.5693522 C 3.8874394,2.3394441 4.713617,2.3987415 5.6425496,1.9549194 6.574565,1.5096245 7.0479516,0.82649853 7.694104,0.396875 5.958916,0.66028905 4.3902669,1.4381399 3.1491618,2.5693522 Z"
         style="clip-rule:evenodd;display:inline;fill:#ac997c;stroke-width:2.70187;stroke-linecap:round;stroke-linejoin:round;fill-opacity:1"
         id="path12" />
      <path
         d="M 0.3229777,9.5792603 C 0.60414373,8.8591476 1.1644067,8.2498519 1.396814,7.2471029 1.6301259,6.2404501 1.3919509,5.4438723 1.4588257,4.670516 0.72407525,5.9461974 0.30385742,7.4246944 0.30385742,8.9994507 c 0,0.1948067 0.006454,0.3881544 0.0191203,0.5798096 z"
         style="clip-rule:evenodd;display:inline;fill:#ac997c;stroke-width:2.70187;stroke-linecap:round;stroke-linejoin:round;fill-opacity:1"
         id="path11" />
      <path
         d="M 4.00389,16.116846 C 3.6383166,15.456956 3.5022167,14.65847 2.8799276,13.870988 2.2465144,13.069429 1.4867686,12.756915 0.92655843,12.232845 1.5583003,13.805801 2.6367721,15.153152 4.00389,16.116846 Z"
         style="clip-rule:evenodd;display:inline;fill:#ac997c;stroke-width:2.70187;stroke-linecap:round;stroke-linejoin:round;fill-opacity:1"
         id="path9" />
      <path
         d="M 11.425659,17.359147 C 10.684286,17.233139 9.9775067,16.843021 8.9767131,16.839282 7.9758053,16.835582 7.2659717,17.22056 6.5236328,17.34106 c 0.7867568,0.234508 1.6201049,0.360702 2.4820191,0.360702 0.8395027,0 1.6513741,-0.119714 2.4200071,-0.342615 z"
         style="clip-rule:evenodd;display:inline;fill:#ac997c;stroke-width:2.70187;stroke-linecap:round;stroke-linejoin:round;fill-opacity:1"
         id="path8" />
      <path
         d="m 17.059941,12.29279 c -0.563986,0.519757 -1.326019,0.826904 -1.965255,1.623673 -0.628,0.782765 -0.769751,1.579944 -1.139982,2.237073 1.374389,-0.953911 2.462178,-2.293593 3.105237,-3.860746 z"
         style="clip-rule:evenodd;display:inline;fill:#ac997c;stroke-width:2.70187;stroke-linecap:round;stroke-linejoin:round;fill-opacity:1"
         id="path6" />
      <path
         d="m 16.583484,4.7258097 c 0.06157,0.7739931 -0.182582,1.5688047 0.04341,2.5776205 0.225037,1.0045558 0.781017,1.6180485 1.056783,2.3404256 0.01564,-0.2127451 0.02325,-0.4277332 0.02325,-0.6444051 0,-1.5521477 -0.408157,-3.0105577 -1.123446,-4.273641 z"
         style="clip-rule:evenodd;display:inline;fill:#ac997c;stroke-width:2.70187;stroke-linecap:round;stroke-linejoin:round;fill-opacity:1"
         id="path4" />
      <path
         d="m 10.380245,0.40669352 c 0.643172,0.43441623 1.11138,1.12132738 2.040186,1.57354738 0.925994,0.4508518 1.752622,0.3972764 2.489253,0.6330363 C 13.676113,1.4720579 12.112715,0.68279889 10.380245,0.40669352 Z"
         style="clip-rule:evenodd;display:inline;fill:#ac997c;stroke-width:2.70187;stroke-linecap:round;stroke-linejoin:round;fill-opacity:1"
         id="path3" />
    </g>
  </g>
</svg>
