<?xml version="1.0" encoding="UTF-8" standalone="no"?>
<!-- Created with Inkscape (http://www.inkscape.org/) -->

<svg
   width="8mm"
   height="8mm"
   viewBox="0 0 8 8"
   version="1.1"
   id="svg1"
   inkscape:version="1.4.2 (f4327f4, 2025-05-13)"
   sodipodi:docname="8mm-fg.svg"
   xml:space="preserve"
   xmlns:inkscape="http://www.inkscape.org/namespaces/inkscape"
   xmlns:sodipodi="http://sodipodi.sourceforge.net/DTD/sodipodi-0.dtd"
   xmlns="http://www.w3.org/2000/svg"
   xmlns:svg="http://www.w3.org/2000/svg"><sodipodi:namedview
     id="namedview1"
     pagecolor="#ffffff"
     bordercolor="#000000"
     borderopacity="0.25"
     inkscape:showpageshadow="2"
     inkscape:pageopacity="0.0"
     inkscape:pagecheckerboard="0"
     inkscape:deskcolor="#d1d1d1"
     inkscape:document-units="mm"
     inkscape:zoom="22.627417"
     inkscape:cx="11.711456"
     inkscape:cy="3.5134368"
     inkscape:window-width="2560"
     inkscape:window-height="1494"
     inkscape:window-x="-11"
     inkscape:window-y="-11"
     inkscape:window-maximized="1"
     inkscape:current-layer="layer1"
     showgrid="true"
     showguides="false"><inkscape:grid
       id="grid1"
       units="mm"
       originx="0"
       originy="0"
       spacingx="1.27"
       spacingy="0.49999999"
       empcolor="#0099e5"
       empopacity="0.30196078"
       color="#0099e5"
       opacity="0.14901961"
       empspacing="4"
       enabled="true"
       visible="true" /></sodipodi:namedview><defs
     id="defs1"><inkscape:path-effect
       effect="fillet_chamfer"
       id="path-effect25"
       is_visible="true"
       lpeversion="1"
       nodesatellites_param="F,0,0,1,0,0,0,1 @ F,0,0,1,0,0,0,1 @ F,0,0,1,0,0,0,1 @ F,0,0,1,0,0,0,1 @ F,0,0,1,0,0,0,1 @ F,0,0,1,0,0,0,1 @ F,0,0,1,0,0,0,1 @ F,0,0,1,0,0,0,1 @ F,0,0,1,0,0,0,1 @ F,0,0,1,0,0,0,1 @ F,0,0,1,0,0,0,1 @ F,0,0,1,0,0,0,1 @ F,0,0,1,0,0,0,1 @ F,0,0,1,0,0,0,1 @ F,0,0,1,0,0,0,1 @ F,0,0,1,0,0,0,1 @ F,0,0,1,0,0,0,1 @ F,0,0,1,0,0,0,1 @ F,0,0,1,0,0,0,1 @ F,0,0,1,0,0,0,1 | F,0,0,1,0,0,0,1 @ F,0,0,1,0,0,0,1 @ F,0,0,1,0,0,0,1 @ F,0,0,1,0,0,0,1 @ F,0,0,1,0,0,0,1 @ F,0,0,1,0,0,0,1 @ F,0,0,1,0,0,0,1 @ F,0,0,1,0,0,0,1 @ F,0,0,1,0,0,0,1 @ F,0,0,1,0,0,0,1 @ F,0,0,1,0,0,0,1 @ F,0,0,1,0,0,0,1 @ F,0,0,1,0,0,0,1 @ F,0,0,1,0,0,0,1 @ F,0,0,1,0,0,0,1 @ F,0,0,1,0,0,0,1 @ F,0,0,1,0,0,0,1 @ F,0,0,1,0,0,0,1 @ F,0,0,1,0,0,0,1 @ F,0,0,1,0,0,0,1 @ F,0,0,1,0,0,0,1 @ F,0,0,1,0,0,0,1 @ F,0,0,1,0,0,0,1 @ F,0,0,1,0,0,0,1 @ F,0,0,1,0,0,0,1 @ F,0,0,1,0,0,0,1 @ F,0,0,1,0,0,0,1 @ F,0,0,1,0,0,0,1 @ F,0,0,1,0,0,0,1 @ F,0,0,1,0,0,0,1 @ F,0,0,1,0,0,0,1 @ F,0,0,1,0,0,0,1 @ F,0,0,1,0,0,0,1 @ F,0,0,1,0,0,0,1 @ F,0,0,1,0,0,0,1 @ F,0,0,1,0,0,0,1 @ F,0,0,1,0,0,0,1 @ F,0,0,1,0,0,0,1 @ F,0,0,1,0,0,0,1 @ F,0,0,1,0,0,0,1 @ F,0,0,1,0,0,0,1 @ F,0,0,1,0,0,0,1 @ F,0,0,1,0,0,0,1 @ F,0,0,1,0,0,0,1 @ F,0,0,1,0,0,0,1 @ F,0,0,1,0,0,0,1 @ F,0,0,1,0,0,0,1 @ F,0,0,1,0,0,0,1 @ F,0,0,1,0,0,0,1 @ F,0,0,1,0,0,0,1 @ F,0,0,1,0,0,0,1 @ F,0,0,1,0,0,0,1 @ F,0,0,1,0,0,0,1 @ F,0,0,1,0,0,0,1 @ F,0,0,1,0,0,0,1 @ F,0,0,1,0,0,0,1 @ F,0,0,1,0,0,0,1 @ F,0,0,1,0,0,0,1 @ F,0,0,1,0,0,0,1 @ F,0,0,1,0,0,0,1 @ F,0,0,1,0,0,0,1 @ F,0,0,1,0,0,0,1 @ F,0,0,1,0,0,0,1 @ F,0,0,1,0,0,0,1 @ F,0,0,1,0,0,0,1 @ F,0,0,1,0,0,0,1 @ F,0,0,1,0,0,0,1 @ F,0,0,1,0,0,0,1"
       radius="0"
       unit="px"
       method="auto"
       mode="F"
       chamfer_steps="1"
       flexible="false"
       use_knot_distance="true"
       apply_no_radius="true"
       apply_with_radius="true"
       only_selected="false"
       hide_knots="false" /><inkscape:path-effect
       effect="fillet_chamfer"
       id="path-effect24"
       is_visible="true"
       lpeversion="1"
       nodesatellites_param="F,0,0,1,0,0,0,1 @ F,0,0,1,0,0,0,1 @ F,0,0,1,0,0,0,1 @ F,0,0,1,0,0,0,1 @ F,0,0,1,0,0,0,1 @ F,0,0,1,0,0,0,1 @ F,0,0,1,0,0,0,1 @ F,0,0,1,0,0,0,1 @ F,0,0,1,0,0,0,1 @ F,0,0,1,0,0,0,1 @ F,0,0,1,0,0,0,1 @ F,0,0,1,0,0,0,1 @ F,0,0,1,0,0,0,1 @ F,0,0,1,0,0,0,1 @ F,0,0,1,0,0,0,1 @ F,0,0,1,0,0,0,1 @ F,0,0,1,0,0,0,1 @ F,0,0,1,0,0,0,1 @ F,0,0,1,0,0,0,1 @ F,0,0,1,0,0,0,1 | F,0,0,1,0,0.23748373,0,1 @ F,0,0,1,0,0,0,1 @ F,0,0,1,0,0,0,1 @ F,0,0,1,0,0,0,1 @ F,0,0,1,0,0,0,1 @ F,0,0,1,0,0.23748373,0,1 @ F,0,0,1,0,0,0,1 @ F,0,0,1,0,0,0,1 @ F,0,0,1,0,0,0,1 @ F,0,0,1,0,0,0,1 @ F,0,0,1,0,0,0,1 @ F,0,0,1,0,0,0,1 @ F,0,0,1,0,0,0,1 @ F,0,0,1,0,0,0,1 @ F,0,0,1,0,0,0,1 @ F,0,0,1,0,0,0,1 @ F,0,0,1,0,0,0,1 @ F,0,0,1,0,0,0,1 @ F,0,0,1,0,0,0,1 @ F,0,0,1,0,0,0,1 @ F,0,0,1,0,0,0,1 @ F,0,0,1,0,0,0,1 @ F,0,0,1,0,0,0,1 @ F,0,0,1,0,0,0,1 @ F,0,0,1,0,0,0,1 @ F,0,0,1,0,0,0,1 @ F,0,0,1,0,0,0,1 @ F,0,0,1,0,0,0,1 @ F,0,0,1,0,0,0,1 @ F,0,0,1,0,0,0,1 @ F,0,0,1,0,0,0,1 @ F,0,0,1,0,0,0,1 @ F,0,0,1,0,0,0,1 @ F,0,0,1,0,0,0,1 @ F,0,0,1,0,0,0,1 @ F,0,0,1,0,0,0,1 @ F,0,0,1,0,0,0,1 @ F,0,0,1,0,0,0,1 @ F,0,0,1,0,0,0,1 @ F,0,0,1,0,0,0,1 @ F,0,0,1,0,0,0,1 @ F,0,0,1,0,0,0,1 @ F,0,0,1,0,0,0,1 @ F,0,0,1,0,0,0,1 @ F,0,0,1,0,0,0,1 @ F,0,0,1,0,0,0,1 @ F,0,0,1,0,0,0,1 @ F,0,0,1,0,0,0,1 @ F,0,0,1,0,0,0,1 @ F,0,0,1,0,0,0,1 @ F,0,0,1,0,0,0,1 @ F,0,0,1,0,0,0,1 @ F,0,0,1,0,0,0,1 @ F,0,0,1,0,0,0,1 @ F,0,0,1,0,0,0,1 @ F,0,0,1,0,0,0,1 @ F,0,0,1,0,0,0,1 @ F,0,0,1,0,0,0,1 @ F,0,0,1,0,0,0,1 @ F,0,0,1,0,0,0,1 @ F,0,0,1,0,0,0,1 @ F,0,0,1,0,0,0,1 @ F,0,0,1,0,0,0,1 @ F,0,0,1,0,0,0,1 @ F,0,0,1,0,0,0,1 @ F,0,0,1,0,0,0,1 @ F,0,0,1,0,0,0,1 @ F,0,0,1,0,0,0,1"
       radius="0"
       unit="px"
       method="auto"
       mode="F"
       chamfer_steps="1"
       flexible="false"
       use_knot_distance="true"
       apply_no_radius="true"
       apply_with_radius="true"
       only_selected="false"
       hide_knots="false" /><rect
       x="4.1056012"
       y="5.6011949"
       width="27.993364"
       height="34.4045"
       id="rect1" /></defs><g
     inkscape:label="Layer 1"
     inkscape:groupmode="layer"
     id="layer1"><g
       id="g1"
       transform="translate(-144.46249,-116.41666)" /><circle
       style="fill:none;fill-opacity:1;stroke:#332a11;stroke-width:0.373999;stroke-dasharray:none;stroke-opacity:1"
       id="path27"
       cx="4"
       cy="4"
       r="3.7126999" /><path
       sodipodi:type="star"
       style="opacity:1;fill:none;fill-opacity:1;stroke:#d2ba94;stroke-width:0.612271;stroke-dasharray:none;stroke-opacity:1"
       id="path25"
       inkscape:flatsided="false"
       sodipodi:sides="8"
       sodipodi:cx="0"
       sodipodi:cy="0"
       sodipodi:r1="5.6568542"
       sodipodi:r2="5.6568542"
       sodipodi:arg1="0.78539816"
       sodipodi:arg2="1.1780972"
       inkscape:rounded="0.66"
       inkscape:randomized="0"
       d="M 3.9999999,3.9999999 C 2.9699232,5.0300767 3.5106448,4.6687781 2.1647846,5.2262517 0.81892415,5.7837253 1.4567489,5.6568541 1.921887e-8,5.6568542 -1.4567485,5.6568542 -0.81892396,5.7837254 -2.1647841,5.2262519 -3.5106446,4.6687782 -2.9699229,5.0300769 -3.9999999,3.9999999 -5.0300767,2.9699232 -4.6687781,3.5106448 -5.2262517,2.1647846 -5.7837253,0.81892415 -5.6568541,1.4567489 -5.6568542,1.9218872e-8 -5.6568542,-1.4567485 -5.7837254,-0.81892396 -5.2262519,-2.1647841 c 0.5574737,-1.3458605 0.196175,-0.8051388 1.226252,-1.8352158 1.0300767,-1.0300768 0.4893551,-0.6687782 1.8352153,-1.2262518 C -0.81892415,-5.7837253 -1.4567489,-5.6568541 -1.9218872e-8,-5.6568542 1.4567485,-5.6568542 0.81892396,-5.7837254 2.1647841,-5.2262519 c 1.3458605,0.5574737 0.8051388,0.196175 1.8352158,1.226252 1.0300768,1.0300767 0.6687782,0.4893551 1.2262518,1.8352153 C 5.7837253,-0.81892415 5.6568541,-1.4567489 5.6568542,-1.9218872e-8 5.6568542,1.4567485 5.7837254,0.81892396 5.2262519,2.1647841 4.6687782,3.5106446 5.0300769,2.9699229 3.9999999,3.9999999 Z"
       transform="matrix(-0.2309984,-0.57604951,0.57605213,-0.23099186,4,4)" /><path
       d="M 3.7460246,0.68419606 V 1.2340335 a 2.691,2.691 0 0 1 0.2537313,-0.011886 2.691,2.691 0 0 1 0.254248,0.011886 V 0.68419606 Z"
       style="fill:#332a11;stroke-width:0.38"
       id="path29" /><path
       sodipodi:type="star"
       style="fill:none;fill-opacity:1;stroke:#332a11;stroke-width:0.554489;stroke-dasharray:none;stroke-opacity:1"
       id="path26"
       inkscape:flatsided="false"
       sodipodi:sides="8"
       sodipodi:cx="0"
       sodipodi:cy="0"
       sodipodi:r1="5.6568542"
       sodipodi:r2="5.3230996"
       sodipodi:arg1="0.78539816"
       sodipodi:arg2="1.1780972"
       inkscape:rounded="0.66"
       inkscape:randomized="0"
       d="M 3.9999999,3.9999999 C 2.9887053,5.0112946 3.3583824,4.370594 2.0370623,4.9179027 0.71574183,5.4652115 1.4301869,5.6568541 1.921887e-8,5.6568542 -1.4301866,5.6568542 -0.71574165,5.4652116 -2.0370618,4.9179029 -3.3583822,4.370594 -2.988705,5.0112948 -3.9999999,3.9999999 -5.0112946,2.9887053 -4.370594,3.3583824 -4.9179027,2.0370623 -5.4652115,0.71574183 -5.6568541,1.4301869 -5.6568542,1.9218872e-8 -5.6568542,-1.4301866 -5.4652116,-0.71574165 -4.9179029,-2.0370618 -4.370594,-3.3583822 -5.0112948,-2.988705 -3.9999999,-3.9999999 -2.9887053,-5.0112946 -3.3583824,-4.370594 -2.0370623,-4.9179027 -0.71574183,-5.4652115 -1.4301869,-5.6568541 -1.9218872e-8,-5.6568542 1.4301866,-5.6568542 0.71574165,-5.4652116 2.0370618,-4.9179029 3.3583822,-4.370594 2.988705,-5.0112948 3.9999999,-3.9999999 5.0112946,-2.9887053 4.370594,-3.3583824 4.9179027,-2.0370623 5.4652115,-0.71574183 5.6568541,-1.4301869 5.6568542,-1.9218872e-8 5.6568542,1.4301866 5.4652116,0.71574165 4.9179029,2.0370618 4.370594,3.3583822 5.0112948,2.988705 3.9999999,3.9999999 Z"
       transform="matrix(-0.25104326,-0.62603615,0.626039,-0.25103616,4,4)" /><path
       d="M 4.2540039,1.3208496 A 2.691,2.691 0 0 0 3.9997559,1.308964 2.691,2.691 0 0 0 3.7460246,1.3208496 v 1.453658 h 0.5079793 z"
       style="fill:#604e3b;stroke-width:0.373999"
       id="path30" /><rect
       style="fill:#604e3b;fill-opacity:1;stroke:none;stroke-width:0.380002;stroke-dasharray:none;stroke-opacity:1"
       id="rect25-1"
       width="0.50797927"
       height="0.25820994"
       x="3.7460246"
       y="0.45062923" /><path
       d="m 4.2540039,1.0746811 a 2.691,0.69591009 0 0 0 -0.254248,-0.00307 2.691,0.69591009 0 0 0 -0.2537313,0.00307 v 0.3759254 h 0.5079793 z"
       style="fill:#695641;fill-opacity:1;stroke-width:0.373999"
       id="path30-1" /></g></svg>
