<?xml version="1.0" encoding="UTF-8" standalone="no"?>
<!-- Created with Inkscape (http://www.inkscape.org/) -->

<svg
   width="71.120003mm"
   height="128.5mm"
   viewBox="0 0 71.120003 128.5"
   version="1.1"
   id="svg1"
   xml:space="preserve"
   inkscape:version="1.4.2 (f4327f4, 2025-05-13)"
   sodipodi:docname="Pilfer.svg"
   xmlns:inkscape="http://www.inkscape.org/namespaces/inkscape"
   xmlns:sodipodi="http://sodipodi.sourceforge.net/DTD/sodipodi-0.dtd"
   xmlns="http://www.w3.org/2000/svg"
   xmlns:svg="http://www.w3.org/2000/svg"><sodipodi:namedview
     id="namedview1"
     pagecolor="#ffffff"
     bordercolor="#000000"
     borderopacity="0.25"
     inkscape:showpageshadow="2"
     inkscape:pageopacity="0.0"
     inkscape:pagecheckerboard="0"
     inkscape:deskcolor="#d1d1d1"
     inkscape:document-units="mm"
     showgrid="true"
     showguides="true"
     inkscape:zoom="1.4487061"
     inkscape:cx="-60.743862"
     inkscape:cy="294.05551"
     inkscape:window-width="2560"
     inkscape:window-height="1494"
     inkscape:window-x="-11"
     inkscape:window-y="-11"
     inkscape:window-maximized="1"
     inkscape:current-layer="g17"><inkscape:grid
       id="grid1"
       units="mm"
       originx="0"
       originy="0"
       spacingx="1.2700001"
       spacingy="0.50000001"
       empcolor="#0099e5"
       empopacity="0.30196078"
       color="#0099e5"
       opacity="0.14901961"
       empspacing="4"
       enabled="true"
       visible="true" /></sodipodi:namedview><defs
     id="defs1"><rect
       x="4.8000005"
       y="0"
       width="71.662504"
       height="36.732775"
       id="rect8" /><inkscape:path-effect
       effect="fillet_chamfer"
       id="path-effect8"
       is_visible="true"
       lpeversion="1"
       nodesatellites_param="F,0,0,1,0,0.4999998,0,1 @ F,0,0,1,0,0.4999998,0,1 @ F,0,0,1,0,0.49999987,0,1 @ F,0,0,1,0,0.49999987,0,1"
       radius="0"
       unit="px"
       method="auto"
       mode="F"
       chamfer_steps="1"
       flexible="false"
       use_knot_distance="true"
       apply_no_radius="true"
       apply_with_radius="true"
       only_selected="false"
       hide_knots="false" /><rect
       x="172.80002"
       y="54.803148"
       width="39.303619"
       height="22.677166"
       id="rect5" /><inkscape:path-effect
       effect="fillet_chamfer"
       id="path-effect15"
       is_visible="true"
       lpeversion="1"
       nodesatellites_param="F,0,0,1,0,0,0,1 @ F,0,0,1,0,1.9999996,0,1 @ F,0,0,1,0,0,0,1"
       radius="0"
       unit="px"
       method="auto"
       mode="F"
       chamfer_steps="1"
       flexible="false"
       use_knot_distance="true"
       apply_no_radius="true"
       apply_with_radius="true"
       only_selected="false"
       hide_knots="false" /><inkscape:path-effect
       effect="fillet_chamfer"
       id="path-effect11"
       is_visible="true"
       lpeversion="1"
       nodesatellites_param="F,0,0,1,0,0,0,1 @ F,0,0,1,0,4.3580381,0,1 @ F,0,0,1,0,3.0725299,0,1 @ F,0,0,1,0,4.5,0,1 @ F,0,0,1,0,4.620001,0,1 @ F,0,0,1,0,0,0,1"
       radius="0"
       unit="px"
       method="auto"
       mode="F"
       chamfer_steps="1"
       flexible="false"
       use_knot_distance="true"
       apply_no_radius="true"
       apply_with_radius="true"
       only_selected="false"
       hide_knots="false" /><inkscape:path-effect
       effect="fillet_chamfer"
       id="path-effect10"
       is_visible="true"
       lpeversion="1"
       nodesatellites_param="F,0,0,1,0,0,0,1 @ F,0,0,1,0,0,0,1 @ F,0,0,1,0,0,0,1 @ F,0,0,1,0,5.4999999,0,1 @ F,0,0,1,0,0,0,1 @ F,0,0,1,0,0,0,1"
       radius="0"
       unit="px"
       method="auto"
       mode="F"
       chamfer_steps="1"
       flexible="false"
       use_knot_distance="true"
       apply_no_radius="true"
       apply_with_radius="true"
       only_selected="false"
       hide_knots="false" /><inkscape:path-effect
       effect="fillet_chamfer"
       id="path-effect9"
       is_visible="true"
       lpeversion="1"
       nodesatellites_param="F,0,0,1,0,0,0,1 @ F,0,0,1,0,0,0,1 @ F,0,0,1,0,0,0,1 @ F,0,0,1,0,0,0,1 @ F,0,0,1,0,3.8100008,0,1 @ F,0,0,1,0,0,0,1"
       radius="0"
       unit="px"
       method="auto"
       mode="F"
       chamfer_steps="1"
       flexible="false"
       use_knot_distance="true"
       apply_no_radius="true"
       apply_with_radius="true"
       only_selected="false"
       hide_knots="false" /><inkscape:path-effect
       effect="fillet_chamfer"
       id="path-effect7"
       is_visible="true"
       lpeversion="1"
       nodesatellites_param="F,0,0,1,0,0.62500093,0,1 @ F,0,0,1,0,0.62500093,0,1 @ F,0,0,1,0,0.62499903,0,1 @ F,0,0,1,0,0.62499903,0,1"
       radius="0"
       unit="px"
       method="auto"
       mode="F"
       chamfer_steps="1"
       flexible="false"
       use_knot_distance="true"
       apply_no_radius="true"
       apply_with_radius="true"
       only_selected="false"
       hide_knots="false" /><inkscape:path-effect
       effect="fillet_chamfer"
       id="path-effect6"
       is_visible="true"
       lpeversion="1"
       nodesatellites_param="F,0,0,1,0,0.62500093,0,1 @ F,0,0,1,0,0.62500093,0,1 @ F,0,0,1,0,0.62499903,0,1 @ F,0,0,1,0,0.62499903,0,1"
       radius="0"
       unit="px"
       method="auto"
       mode="F"
       chamfer_steps="1"
       flexible="false"
       use_knot_distance="true"
       apply_no_radius="true"
       apply_with_radius="true"
       only_selected="false"
       hide_knots="false" /><inkscape:path-effect
       effect="fillet_chamfer"
       id="path-effect5"
       is_visible="true"
       lpeversion="1"
       nodesatellites_param="F,0,0,1,0,0.62500006,0,1 @ F,0,0,1,0,0.62500006,0,1 @ F,0,0,1,0,0.63720703,0,1 @ F,0,0,1,0,0.62499991,0,1"
       radius="0"
       unit="px"
       method="auto"
       mode="F"
       chamfer_steps="1"
       flexible="false"
       use_knot_distance="true"
       apply_no_radius="true"
       apply_with_radius="true"
       only_selected="false"
       hide_knots="false" /><inkscape:path-effect
       effect="fillet_chamfer"
       id="path-effect14"
       is_visible="true"
       lpeversion="1"
       nodesatellites_param="F,0,0,1,0,0,0,1 @ F,0,0,1,0,6.2919708,0,1 @ F,0,0,1,0,0,0,1"
       radius="0"
       unit="px"
       method="auto"
       mode="F"
       chamfer_steps="1"
       flexible="false"
       use_knot_distance="true"
       apply_no_radius="true"
       apply_with_radius="true"
       only_selected="false"
       hide_knots="false" /><inkscape:path-effect
       effect="fillet_chamfer"
       id="path-effect13"
       is_visible="true"
       lpeversion="1"
       nodesatellites_param="F,0,0,1,0,0,0,1 @ F,0,0,1,0,2.0000003,0,1 @ F,0,0,1,0,0,0,1"
       radius="0"
       unit="px"
       method="auto"
       mode="F"
       chamfer_steps="1"
       flexible="false"
       use_knot_distance="true"
       apply_no_radius="true"
       apply_with_radius="true"
       only_selected="false"
       hide_knots="false" /><inkscape:path-effect
       effect="fillet_chamfer"
       id="path-effect12"
       is_visible="true"
       lpeversion="1"
       nodesatellites_param="F,0,0,1,0,0,0,1 @ F,0,0,1,0,4.4999977,0,1 @ F,0,0,1,0,4.4999977,0,1 @ F,0,0,1,0,0,0,1"
       radius="0"
       unit="px"
       method="auto"
       mode="F"
       chamfer_steps="1"
       flexible="false"
       use_knot_distance="true"
       apply_no_radius="true"
       apply_with_radius="true"
       only_selected="false"
       hide_knots="false" /><rect
       x="0"
       y="0.018666668"
       width="93.125006"
       height="19.116002"
       id="rect10" /><rect
       x="4.1984465"
       y="67.617086"
       width="46.579014"
       height="16.471169"
       id="rect7" /><linearGradient
       id="linearGradient4"
       x1="0"
       y1="0"
       x2="1"
       y2="0"
       gradientUnits="userSpaceOnUse"
       gradientTransform="matrix(0,-1.5574892,-1.5574892,0,20.984952,4.1397768)"><stop
         offset="0.20512821"
         style="stop-color:#cee6e8;stop-opacity:1;"
         id="stop3" /><stop
         offset="0.4991453"
         style="stop-color:#6fc3ee;stop-opacity:0;"
         id="stop4" /></linearGradient><linearGradient
       id="_Linear1"
       x1="0"
       y1="0"
       x2="1"
       y2="0"
       gradientUnits="userSpaceOnUse"
       gradientTransform="matrix(0,-1.5574892,-1.5574892,0,4.3677418,127.65582)"
       spreadMethod="pad"><stop
         offset="0"
         style="stop-color:#eed26f;stop-opacity:1"
         id="stop93" /><stop
         offset="1"
         style="stop-color:#eed26f;stop-opacity:0"
         id="stop94" /></linearGradient><linearGradient
       id="_Linear2"
       x1="4.9920942e-08"
       y1="0"
       x2="0.99999988"
       y2="5.5511151e-17"
       gradientUnits="userSpaceOnUse"
       gradientTransform="matrix(0,1.5574892,-1.5574892,0,4.3677418,124.54079)"><stop
         offset="0"
         style="stop-color:#cba55c;stop-opacity:1"
         id="stop95" /><stop
         offset="1"
         style="stop-color:#cba55c;stop-opacity:0"
         id="stop96" /></linearGradient><linearGradient
       id="_Linear3"
       x1="0"
       y1="0"
       x2="1"
       y2="0"
       gradientUnits="userSpaceOnUse"
       gradientTransform="matrix(0,-3.1149785,3.1149785,0,2.5825945,127.65264)"><stop
         offset="0"
         style="stop-color:#c0bdb7;stop-opacity:1"
         id="stop97" /><stop
         offset="1"
         style="stop-color:#bab4a9;stop-opacity:1"
         id="stop98" /></linearGradient><linearGradient
       id="_Linear4"
       x1="0"
       y1="0"
       x2="1"
       y2="0"
       gradientUnits="userSpaceOnUse"
       gradientTransform="matrix(0,-1.5574892,-1.5574892,0,20.984952,4.1397768)"><stop
         offset="0"
         style="stop-color:#cee6e8;stop-opacity:1;"
         id="stop99" /><stop
         offset="1"
         style="stop-color:#6fc3ee;stop-opacity:0;"
         id="stop100" /></linearGradient><linearGradient
       id="_Linear5"
       x1="0"
       y1="0"
       x2="1"
       y2="0"
       gradientUnits="userSpaceOnUse"
       gradientTransform="matrix(0,1.5574892,-1.5574892,0,20.984952,1.0247877)"><stop
         offset="0"
         style="stop-color:#619aa1;stop-opacity:1;"
         id="stop101" /><stop
         offset="1"
         style="stop-color:#5ca4cb;stop-opacity:0;"
         id="stop102" /></linearGradient><linearGradient
       id="_Linear6"
       x1="0"
       y1="0"
       x2="1"
       y2="0"
       gradientUnits="userSpaceOnUse"
       gradientTransform="matrix(0,-3.1149785,3.1149785,0,22.811247,4.1397768)"><stop
         offset="0"
         style="stop-color:#c0bdb7;stop-opacity:1"
         id="stop103" /><stop
         offset="1"
         style="stop-color:#bab4a9;stop-opacity:1"
         id="stop104" /></linearGradient><inkscape:path-effect
       effect="fillet_chamfer"
       id="path-effect14-2"
       is_visible="true"
       lpeversion="1"
       nodesatellites_param="F,0,0,1,0,0,0,1 @ F,0,0,1,0,6.2919708,0,1 @ F,0,0,1,0,0,0,1"
       radius="0"
       unit="px"
       method="auto"
       mode="F"
       chamfer_steps="1"
       flexible="false"
       use_knot_distance="true"
       apply_no_radius="true"
       apply_with_radius="true"
       only_selected="false"
       hide_knots="false" /><inkscape:path-effect
       effect="fillet_chamfer"
       id="path-effect13-0"
       is_visible="true"
       lpeversion="1"
       nodesatellites_param="F,0,0,1,0,0,0,1 @ F,0,0,1,0,2.000001,0,1 @ F,0,0,1,0,0,0,1"
       radius="0"
       unit="px"
       method="auto"
       mode="F"
       chamfer_steps="1"
       flexible="false"
       use_knot_distance="true"
       apply_no_radius="true"
       apply_with_radius="true"
       only_selected="false"
       hide_knots="false" /><inkscape:path-effect
       effect="fillet_chamfer"
       id="path-effect14-2-1"
       is_visible="true"
       lpeversion="1"
       nodesatellites_param="F,0,0,1,0,0,0,1 @ F,0,0,1,0,6.2919708,0,1 @ F,0,0,1,0,0,0,1"
       radius="0"
       unit="px"
       method="auto"
       mode="F"
       chamfer_steps="1"
       flexible="false"
       use_knot_distance="true"
       apply_no_radius="true"
       apply_with_radius="true"
       only_selected="false"
       hide_knots="false" /><inkscape:path-effect
       effect="fillet_chamfer"
       id="path-effect14-4"
       is_visible="true"
       lpeversion="1"
       nodesatellites_param="F,0,0,1,0,0,0,1 @ F,0,0,1,0,6.2919708,0,1 @ F,0,0,1,0,0,0,1"
       radius="0"
       unit="px"
       method="auto"
       mode="F"
       chamfer_steps="1"
       flexible="false"
       use_knot_distance="true"
       apply_no_radius="true"
       apply_with_radius="true"
       only_selected="false"
       hide_knots="false" /></defs><rect
     x="-1.7480833e-06"
     y="8.8817842e-16"
     width="71.120003"
     height="128.5"
     style="clip-rule:evenodd;display:inline;opacity:1;fill:#f26621;fill-opacity:0.774323;fill-rule:evenodd;stroke-width:0.615039;stroke-linejoin:bevel;stroke-miterlimit:1.5;stroke-dasharray:none"
     id="rect3"
     sodipodi:insensitive="true" /><g
     id="g17"
     inkscape:label="Switch"
     style="display:inline"
     transform="matrix(1,0,0,0.79999998,-1.4210772e-6,6.7999999)"><path
       id="rect4"
       d="m 27.295005,8.999999 h 4.749998 A 0.62500093,0.62500093 45 0 1 32.670004,9.625 v 8.75 a 0.62499903,0.62499903 135 0 1 -0.624999,0.624999 H 27.295003 A 0.62499903,0.62499903 45 0 1 26.670004,18.375 v -8.75 a 0.62500093,0.62500093 135 0 1 0.625001,-0.625001 z"
       style="fill:#190013;fill-opacity:1;stroke:none;stroke-width:0.0460212;paint-order:markers fill stroke" /><path
       id="rect4-5"
       d="m 33.185005,30.875 h 4.75 a 0.62500006,0.62500006 45 0 1 0.625,0.625 v 8.737793 A 0.63720703,0.63720703 135 0 1 37.922798,40.875 h -4.737793 a 0.62499991,0.62499991 45 0 1 -0.625,-0.625 V 31.5 a 0.62500006,0.62500006 135 0 1 0.625,-0.625 z"
       style="display:inline;fill:#fdd04b;fill-opacity:1;stroke:none;stroke-width:0.0460212;paint-order:markers fill stroke" /><path
       id="rect4-8"
       d="m 39.075006,8.999999 h 4.749998 A 0.62500093,0.62500093 45 0 1 44.450005,9.625 v 8.75 a 0.62499903,0.62499903 135 0 1 -0.624999,0.624999 H 39.075004 A 0.62499903,0.62499903 45 0 1 38.450005,18.375 v -8.75 a 0.62500093,0.62500093 135 0 1 0.625001,-0.625001 z"
       style="fill:#190013;fill-opacity:1;stroke:none;stroke-width:0.0460212;paint-order:markers fill stroke" /></g><g
     inkscape:groupmode="layer"
     id="layer2"
     inkscape:label="Guidelines"
     sodipodi:insensitive="true"
     style="display:none"><rect
       style="fill:none;fill-opacity:1;stroke:#000000;stroke-width:0.16301;stroke-dasharray:none;stroke-opacity:1;paint-order:markers fill stroke"
       id="rect2"
       width="66.040009"
       height="114.5"
       x="2.5400002"
       y="7"
       inkscape:label="Outer Border" /><rect
       style="fill:none;fill-opacity:1;stroke:#000000;stroke-width:0.153857;stroke-dasharray:none;stroke-opacity:1;paint-order:markers fill stroke"
       id="rect1"
       width="60.961437"
       height="110.5"
       x="5.0792875"
       y="9"
       inkscape:label="Inner Border" /></g><path
     style="font-size:18.6667px;font-family:Voxel;-inkscape-font-specification:Voxel;white-space:pre;fill:#f4eff1;stroke-width:0.734664;stroke-dasharray:1.46933, 0.734664;paint-order:markers fill stroke;fill-opacity:1"
     d="m 26.497592,4.8582664 v 0.096605 c 0,0.0069 0,0.020701 0,0.027603 -0.03053,0.089705 -0.06105,0.1173062 -0.160268,0.1380072 -0.0076,0.0069 -0.02289,0.0069 -0.03053,0.0069 h -0.221322 -0.41975 -0.412117 -0.228954 c -0.0076,0 -0.0229,0 -0.03053,-0.0069 -0.09921,-0.020701 -0.129741,-0.048303 -0.152636,-0.1380072 -0.0076,-0.0069 -0.0076,-0.020701 -0.0076,-0.027603 v -0.096605 c 0,-0.055203 -0.05342,-0.1104057 -0.122109,-0.1104057 h -0.09921 c -0.01526,0 -0.0229,0 -0.03816,0 -0.09158,-0.027603 -0.122109,-0.055203 -0.152636,-0.1380072 0,-0.0138 -0.0076,-0.020701 -0.0076,-0.034501 V 4.3752427 3.9957227 3.6231032 3.4229929 c 0,-0.0138 0.0076,-0.020701 0.0076,-0.034501 0.03053,-0.089705 0.06105,-0.1173061 0.175531,-0.1449076 0,0 0,0 0,0 h 0.114477 c 0.06869,0 0.122109,-0.048303 0.122109,-0.1104057 V 2.8709652 2.4914456 2.2913349 c 0,-0.013799 0,-0.020701 0.0076,-0.027603 0.02289,-0.089705 0.05342,-0.1173058 0.152636,-0.1449073 0.0076,0 0.0229,0 0.03053,0 H 25.1315 c 0.06105,0 0.122109,-0.048302 0.122109,-0.1104057 V 1.7393049 1.5391946 c 0,-0.013799 0,-0.020701 0,-0.034501 0.03053,-0.089705 0.06105,-0.1104056 0.175531,-0.138007 0,0 0,0 0,0 h 0.114477 c 0.06869,0 0.122109,-0.055203 0.122109,-0.1104058 v -0.096608 c 0,-0.0069 0,-0.020701 0.0076,-0.027601 0.03053,-0.096605 0.06105,-0.1173061 0.167899,-0.14490756 0,0 0,0 0,0 h 0.244218 0.412117 0.419749 0.236586 c 0,0 0,0 0,0 0.114478,0.0276015 0.145005,0.0483026 0.175532,0.14490756 0,0.0069 0,0.020701 0,0.027601 v 0.096605 c 0,0.055203 0.05342,0.1104058 0.122109,0.1104058 h 0.122109 c 0,0 0,0 0,0 0.106845,0.027601 0.137372,0.048302 0.167899,0.1380071 0.0076,0.013799 0.0076,0.020701 0.0076,0.034501 v 0.2001103 0.37952 0.3726195 0.2001103 c 0,0.013799 0,0.020701 -0.0076,0.034501 -0.03053,0.089705 -0.05342,0.1104061 -0.152636,0.1380072 -0.0076,0.0069 -0.0229,0.0069 -0.03053,0.0069 h -0.106845 c -0.06869,0 -0.122109,0.048303 -0.122109,0.1104057 v 0.2622138 0.3795196 0.2001107 c 0,0.0138 0,0.020701 0,0.034501 -0.03053,0.089705 -0.06105,0.1104057 -0.175532,0.1380072 0,0 0,0 0,0 h -0.06105 c 0,0 0,0 0,0 -0.114477,-0.027603 -0.145005,-0.048303 -0.175532,-0.1380072 0,-0.013799 0,-0.020701 0,-0.034501 v -0.089705 c 0,-0.062104 -0.05342,-0.1104061 -0.122109,-0.1104061 H 26.6197 c -0.06869,0 -0.122109,0.048303 -0.122109,0.1104061 v 0.089705 c 0,0.0138 0,0.020701 0,0.034501 -0.03053,0.089705 -0.06105,0.1104057 -0.175531,0.1380072 0,0 0,0 0,0 h -0.114477 c -0.06869,0 -0.122108,0.048303 -0.122108,0.1104057 v 0.1587086 c 0,0.062103 0.05342,0.1104057 0.122108,0.1104057 h 0.1679 c 0.06869,0 0.122109,-0.048303 0.122109,-0.1104057 v -0.089705 c 0,-0.013799 0,-0.020701 0.0076,-0.034501 0.03053,-0.089705 0.05342,-0.1104057 0.152636,-0.1380072 0.0076,0 0.0229,-0.0069 0.03816,-0.0069 h 0.0229 c 0.01526,0 0.02289,0.0069 0.03816,0.0069 0.09921,0.027603 0.122108,0.048303 0.152636,0.1380072 0.0076,0.0138 0.0076,0.020701 0.0076,0.034501 V 4.375238 4.5753483 c 0,0.0138 0,0.020701 -0.0076,0.034501 -0.03053,0.082804 -0.05342,0.1104057 -0.152636,0.1380072 -0.01526,0 -0.0229,0 -0.03816,0 h -0.09921 c -0.06869,0 -0.122109,0.055203 -0.122109,0.1104057 z m 1.663733,0.1242062 c -0.03053,0.089705 -0.06106,0.1173062 -0.152636,0.1380072 -0.01526,0.0069 -0.0229,0.0069 -0.03816,0.0069 h -0.03053 c -0.0076,0 -0.0229,0 -0.03053,-0.0069 -0.09921,-0.020701 -0.12974,-0.048303 -0.160268,-0.1380072 0,-0.0069 0,-0.020701 0,-0.027603 v -0.096605 c 0,-0.055203 -0.05342,-0.1104057 -0.122108,-0.1104057 h -0.09921 c -0.01526,0 -0.0229,0 -0.03816,0 -0.09921,-0.027603 -0.122109,-0.055203 -0.152636,-0.1380072 0,-0.013799 -0.0076,-0.020701 -0.0076,-0.034501 V 4.3752412 4.1751305 c 0,-0.0138 0.0076,-0.020701 0.0076,-0.034501 0.03053,-0.089705 0.05342,-0.1104057 0.152636,-0.1380072 0.01526,0 0.0229,-0.0069 0.03816,-0.0069 h 0.09921 c 0.06869,0 0.122108,-0.048303 0.122108,-0.1035052 V 3.6231017 3.2435821 3.0434718 c 0,-0.0069 0,-0.020701 0,-0.027603 0.03053,-0.089705 0.06105,-0.1173061 0.160268,-0.1449076 0.0076,0 0.0229,0 0.03053,0 h 0.106845 c 0.06105,0 0.114477,-0.048303 0.114477,-0.1104057 V 2.4914419 2.1188223 1.7393024 1.4701884 c 0,-0.055203 -0.05342,-0.1035054 -0.114477,-0.1035054 h -0.106845 c -0.0076,0 -0.0229,-0.0069 -0.03053,-0.0069 -0.09921,-0.027601 -0.12974,-0.055203 -0.160268,-0.1380072 0,-0.013801 0,-0.020701 0,-0.034502 v -0.089704 c 0,-0.062103 -0.05342,-0.11040579 -0.122108,-0.11040579 h -0.09921 c -0.01526,0 -0.0229,0 -0.03816,-0.0069 -0.09921,-0.020701 -0.122109,-0.0483025 -0.152636,-0.1380072 0,-0.0069 -0.0076,-0.020701 -0.0076,-0.0276015 v -0.0966049 c 0,-0.0552029 -0.05342,-0.11040576 -0.122108,-0.11040576 h -0.290008 -0.419749 -0.412117 -0.297641 c -0.06869,0 -0.122109,0.0552029 -0.122109,0.11040576 v 0.096605 c 0,0.0069 0,0.020701 -0.0076,0.0276015 -0.0229,0.0897047 -0.05342,0.11730612 -0.152637,0.1380072 -0.0076,0.0069 -0.02289,0.0069 -0.03053,0.0069 h -0.106845 c -0.06105,0 -0.114477,0.0483025 -0.114477,0.11040579 v 0.089705 c 0,0.013801 -0.0076,0.020701 -0.0076,0.034502 -0.03053,0.082804 -0.05342,0.1104058 -0.152636,0.1380072 -0.01526,0 -0.0229,0.0069 -0.03816,0.0069 h -0.09921 c -0.06869,0 -0.122109,0.048303 -0.122109,0.1035055 v 0.2691139 0.2001107 c 0,0.013799 0,0.020701 -0.0076,0.034501 -0.03053,0.089705 -0.05342,0.1173061 -0.1679,0.1449077 0,0 0,0 0,0 h -0.122108 c -0.06105,0 -0.122109,0.048303 -0.122109,0.1104056 V 2.491442 2.8709616 3.0710719 c 0,0.0069 0,0.020701 0,0.027603 -0.03053,0.089705 -0.06105,0.1173062 -0.152636,0.1449077 -0.01526,0 -0.0229,0 -0.03816,0 h -0.09921 c -0.06869,0 -0.122109,0.048303 -0.122109,0.1104057 v 0.2691139 0.3726195 0.37952 0.2691139 c 0,0.055203 0.05342,0.1035056 0.122109,0.1035056 h 0.09921 c 0.01526,0 0.0229,0.0069 0.03816,0.0069 0.09158,0.027603 0.122109,0.055203 0.152636,0.1380072 0,0.013799 0,0.020701 0,0.034501 v 0.089705 c 0,0.062103 0.06105,0.1104057 0.122109,0.1104057 h 0.122109 c 0,0 0,0 0,0 0.114477,0.027603 0.137372,0.048303 0.167899,0.1449077 0.0076,0.0069 0.0076,0.020701 0.0076,0.027603 v 0.096605 c 0,0.055203 0.05342,0.110406 0.122109,0.110406 h 0.29764 0.412118 0.419749 0.290008 c 0.06869,0 0.122109,-0.055203 0.122109,-0.110406 v -0.096605 c 0,-0.0069 0,-0.020701 0.0076,-0.027603 0.03053,-0.089705 0.05342,-0.1173062 0.152636,-0.1380072 0.01526,-0.0069 0.0229,-0.0069 0.03816,-0.0069 h 0.09921 c 0.06869,0 0.122109,-0.048303 0.122109,-0.1104057 V 4.927269 c 0,-0.0138 0,-0.020701 0,-0.034501 0.03053,-0.082804 0.06105,-0.1104057 0.160268,-0.1380072 0.0076,0 0.0229,-0.0069 0.03053,-0.0069 h 0.03053 c 0.0076,0 0.0229,0.0069 0.03053,0.0069 0.09921,0.027603 0.12974,0.055203 0.160267,0.1380072 0,0.013799 0,0.020701 0,0.034501 v 0.089705 c 0,0.062103 0.05342,0.1104057 0.122109,0.1104057 h 0.106845 c 0.0076,0 0.0229,0 0.03053,0.0069 0.09921,0.020701 0.122109,0.048303 0.152636,0.1380072 0.0076,0.0069 0.0076,0.020701 0.0076,0.027603 v 0.096605 c 0,0.055203 0.05342,0.110406 0.122109,0.110406 h 0.175531 c 0.06105,0 0.114477,-0.055203 0.114477,-0.110406 v -0.096605 c 0,-0.0069 0.0076,-0.020701 0.0076,-0.027603 0.03053,-0.089705 0.05342,-0.1173062 0.152636,-0.1380072 0.01526,-0.0069 0.02289,-0.0069 0.03816,-0.0069 h 0.09921 c 0.06869,0 0.122109,-0.048303 0.122109,-0.1104057 V 4.8582654 c 0,-0.055203 -0.05342,-0.1104057 -0.122109,-0.1104057 h -0.175531 c -0.06869,0 -0.122109,0.055203 -0.122109,0.1104057 v 0.096605 c 0,0.0069 0,0.020701 0,0.027603 z m 3.999072,-0.9867514 v 0.37952 0.2001103 c 0,0.0138 -0.0076,0.020701 -0.0076,0.034501 -0.03053,0.082804 -0.06105,0.1104057 -0.152636,0.1380072 -0.01526,0 -0.0229,0 -0.03816,0 h -0.09921 c -0.06869,0 -0.122109,0.048302 -0.122109,0.1104057 V 4.95487 c 0,0.0069 0,0.020701 -0.0076,0.027603 -0.0229,0.089705 -0.05342,0.1173062 -0.152637,0.1380072 -0.0076,0.0069 -0.02289,0.0069 -0.03053,0.0069 H 31.320964 30.908846 30.489097 30.07698 29.657231 29.435908 c -0.0076,0 -0.02289,0 -0.03053,-0.0069 -0.09921,-0.020701 -0.129741,-0.048303 -0.160268,-0.1380072 0,-0.0069 0,-0.020701 0,-0.027603 V 4.7478592 4.3752397 4.175129 c 0,-0.013799 0,-0.020701 0,-0.034501 0.03053,-0.089705 0.06105,-0.1104057 0.160268,-0.1380072 0.0076,0 0.02289,-0.0069 0.03053,-0.0069 h 0.09921 c 0.06869,0 0.122109,-0.048303 0.122109,-0.1104057 V 3.6231002 3.4229899 c 0,-0.0138 0,-0.027603 0.0076,-0.034501 0.03053,-0.089705 0.05342,-0.1104061 0.152636,-0.1380072 0.01526,-0.0069 0.0229,-0.0069 0.03816,-0.0069 h 0.09921 c 0.06869,0 0.122109,-0.048303 0.122109,-0.1104057 V 2.8709611 2.4914415 2.2913308 c 0,-0.013799 0,-0.020701 0,-0.034501 0.03053,-0.082805 0.06105,-0.1104057 0.160268,-0.1380072 0.0076,0 0.02289,0 0.03053,0 h 0.106845 c 0.06106,0 0.114478,-0.055203 0.114478,-0.1104057 V 1.7393035 1.3597837 1.1596733 c 0,-0.0069 0.0076,-0.020701 0.0076,-0.027601 0.03053,-0.096605 0.06105,-0.1173061 0.1679,-0.14490756 0,0 0,0 0,0 h 0.244217 0.412118 0.244217 c 0,0 0,0 0,0 0.114477,0.0276015 0.137373,0.0483026 0.1679,0.14490756 0.0076,0.0069 0.0076,0.020701 0.0076,0.027601 v 0.096605 c 0,0.055203 0.05342,0.1035054 0.122109,0.1035054 h 0.09921 c 0.01526,0 0.0229,0.0069 0.03816,0.0069 0.09158,0.027602 0.122109,0.055203 0.152636,0.1380071 0,0.013799 0.0076,0.020701 0.0076,0.034501 v 0.2001103 0.2691143 c 0,0.055203 0.05342,0.1104057 0.114476,0.1104057 h 0.106846 c 0.0076,0 0.02289,0 0.03053,0 0.09921,0.027603 0.129741,0.055203 0.152636,0.1380072 0.0076,0.013799 0.0076,0.020701 0.0076,0.034501 V 2.491441 2.8709606 3.0710709 c 0,0.0069 0,0.020701 -0.0076,0.027603 -0.0229,0.089705 -0.05342,0.1173062 -0.152636,0.1449077 -0.0076,0 -0.0229,0 -0.03053,0 h -0.106846 c -0.06105,0 -0.114476,0.048303 -0.114476,0.1104057 v 0.269113 z M 32.992263,2.8709626 V 2.491443 2.2223287 c 0,-0.055203 -0.05342,-0.1035052 -0.122108,-0.1035052 h -0.106846 c -0.0076,0 -0.02289,-0.0069 -0.03053,-0.0069 -0.09921,-0.027603 -0.122109,-0.055203 -0.152636,-0.1380072 -0.0076,-0.013799 -0.0076,-0.020701 -0.0076,-0.0345 V 1.7393035 1.4701895 c 0,-0.055203 -0.05342,-0.1104058 -0.122109,-0.1104058 h -0.09921 c -0.01526,0 -0.02289,0 -0.03816,0 -0.09158,-0.027601 -0.122108,-0.055203 -0.152636,-0.1380072 0,-0.013801 0,-0.020701 0,-0.034502 v -0.089705 c 0,-0.062103 -0.06105,-0.11040579 -0.122108,-0.11040579 h -0.106846 c -0.0076,0 -0.02289,0 -0.03053,-0.0069 -0.09921,-0.0276015 -0.129741,-0.0483025 -0.152636,-0.1380072 -0.0076,-0.0069 -0.0076,-0.020701 -0.0076,-0.0276015 v -0.0966049 c 0,-0.0621032 -0.05342,-0.11040576 -0.122109,-0.11040576 h -0.29764 -0.412118 -0.29764 c -0.06869,0 -0.122109,0.0483025 -0.122109,0.11040576 v 0.096605 c 0,0.0069 0,0.020701 0,0.0276015 -0.03053,0.0897047 -0.06105,0.11040576 -0.152636,0.1380072 -0.01526,0.0069 -0.02289,0.0069 -0.03816,0.0069 h -0.03053 c -0.0076,0 -0.0229,0 -0.03053,-0.0069 -0.09921,-0.0276015 -0.129741,-0.0483025 -0.160268,-0.1380072 0,-0.0069 0,-0.020701 0,-0.0276015 v -0.096605 c 0,-0.0621032 -0.05342,-0.11040576 -0.122109,-0.11040576 H 29.77927 c -0.06869,0 -0.122109,0.0483025 -0.122109,0.11040576 v 0.096605 c 0,0.0069 0,0.020701 0,0.0276015 -0.03053,0.0897047 -0.06105,0.11040576 -0.160268,0.1380072 -0.0076,0.0069 -0.02289,0.0069 -0.03053,0.0069 h -0.09921 c -0.06869,0 -0.122109,0.0483025 -0.122109,0.11040579 v 0.1587082 c 0,0.055203 0.05342,0.1035054 0.122109,0.1035054 h 0.1679 c 0.06869,0 0.122109,-0.048303 0.122109,-0.1035054 v -0.096605 c 0,-0.0069 0,-0.020701 0.0076,-0.027601 0.03053,-0.096605 0.06105,-0.1173061 0.167899,-0.14490754 0,0 0,0 0,0 h 0.06869 c 0,0 0,0 0,0 0.106845,0.0276015 0.137372,0.0483026 0.167899,0.14490754 0.0076,0.0069 0.0076,0.020701 0.0076,0.027601 V 1.3597832 1.739303 1.9394137 c 0,0.013799 0,0.020701 -0.0076,0.0345 -0.03053,0.082804 -0.05342,0.1104057 -0.152636,0.1380072 -0.0076,0 -0.02289,0.0069 -0.03053,0.0069 h -0.106846 c -0.06869,0 -0.122108,0.048303 -0.122108,0.1035052 V 2.491443 2.8709626 3.0710729 c 0,0.0069 0,0.020701 0,0.027603 -0.03053,0.089705 -0.06105,0.1173062 -0.160268,0.1449077 -0.0076,0 -0.02289,0 -0.03053,0 h -0.09921 c -0.06869,0 -0.122109,0.048303 -0.122109,0.1104057 v 0.2691139 0.2001107 c 0,0.0069 0,0.020701 -0.0076,0.027603 -0.03053,0.089705 -0.05342,0.1173058 -0.152636,0.1449073 -0.01526,0 -0.0229,0 -0.03816,0 h -0.09921 c -0.06869,0 -0.122109,0.048303 -0.122109,0.1104057 v 0.2691143 0.3726195 0.2070108 c 0,0.0069 0,0.020701 0,0.027603 -0.03053,0.089705 -0.06105,0.1173062 -0.160268,0.1380072 -0.0076,0.0069 -0.02289,0.0069 -0.03053,0.0069 h -0.106844 c -0.06105,0 -0.114478,0.048303 -0.114478,0.1104057 V 5.396499 c 0,0.055203 0.05342,0.1035056 0.114478,0.1035056 h 0.175531 c 0.06869,0 0.122109,-0.048302 0.122109,-0.1035056 V 5.299894 c 0,-0.0069 0,-0.020701 0.0076,-0.027603 0.03053,-0.096605 0.06105,-0.1173062 0.167899,-0.1449077 0,0 0,0 0,0 h 0.06869 c 0,0 0,0 0,0 0.106846,0.027603 0.137373,0.048303 0.1679,0.1449077 0.0076,0.0069 0.0076,0.020701 0.0076,0.027603 v 0.096605 c 0,0.055203 0.05342,0.1035056 0.122109,0.1035056 h 0.290008 0.419749 0.412118 0.419749 0.412117 0.29764 c 0.06869,0 0.122109,-0.048302 0.122109,-0.1035056 V 5.299894 c 0,-0.0069 0,-0.020701 0.0076,-0.027603 0.03053,-0.096605 0.05342,-0.1173062 0.1679,-0.1449077 0,0 0,0 0,0 h 0.122109 c 0.06105,0 0.122109,-0.048303 0.122109,-0.1104057 v -0.089705 c 0,-0.0138 0,-0.020701 0,-0.034501 0.03053,-0.089705 0.06105,-0.1104057 0.152636,-0.1380072 0.01526,0 0.02289,-0.0069 0.03816,-0.0069 h 0.09921 c 0.06869,0 0.122109,-0.048303 0.122109,-0.1035056 V 4.3752449 3.9957249 3.6231054 3.4229951 c 0,-0.0138 0,-0.027603 0.0076,-0.034501 0.03053,-0.089705 0.05342,-0.1104061 0.152636,-0.1380072 0.0076,-0.0069 0.02289,-0.0069 0.03053,-0.0069 h 0.106846 c 0.06869,0 0.122109,-0.048303 0.122109,-0.1104057 V 2.8709663 Z m 5.449115,-1.1316591 v 0.37952 0.3726195 0.2001103 c 0,0.0138 0,0.020701 -0.0076,0.034501 -0.03053,0.089705 -0.05342,0.1104061 -0.152636,0.1380072 -0.0076,0 -0.02289,0.0069 -0.03053,0.0069 h -0.106843 c -0.06869,0 -0.122109,0.048303 -0.122109,0.1104057 V 3.243581 3.6231006 3.8232113 c 0,0.0069 0,0.020701 0,0.027603 -0.03053,0.089705 -0.06105,0.1173058 -0.160268,0.1449073 -0.0076,0 -0.01526,0 -0.03053,0 h -0.09921 c -0.06869,0 -0.122108,0.048303 -0.122108,0.1104057 v 0.2691143 0.3726195 0.2070108 c 0,0.0069 0,0.020701 -0.0076,0.027603 -0.03053,0.089705 -0.05342,0.1173062 -0.152637,0.1380072 -0.0076,0.0069 -0.02289,0.0069 -0.03816,0.0069 h -0.221321 -0.412117 -0.41975 -0.412117 -0.228954 c -0.0076,0 -0.0229,0 -0.03053,-0.0069 -0.09921,-0.020701 -0.12974,-0.048303 -0.152636,-0.1380072 -0.0076,-0.0069 -0.0076,-0.020701 -0.0076,-0.027603 V 4.7478618 4.3752423 3.9957223 3.6231028 3.4229925 c 0,-0.013799 0,-0.020701 0.0076,-0.034501 0.0229,-0.089705 0.05342,-0.1104061 0.152636,-0.1380072 0.0076,-0.0069 0.0229,-0.0069 0.03053,-0.0069 h 0.106845 c 0.06869,0 0.122109,-0.048303 0.122109,-0.1104057 V 2.8709637 2.4914441 2.2913334 c 0,-0.0138 0,-0.020701 0,-0.034501 0.03053,-0.082805 0.06105,-0.1104057 0.152636,-0.1380072 0.01526,0 0.02289,0 0.03816,0 h 0.09921 c 0.06869,0 0.122109,-0.055203 0.122109,-0.1104057 V 1.7393035 1.3597837 1.1596733 c 0,-0.0069 0,-0.020701 0.0076,-0.027601 0.03053,-0.089705 0.05342,-0.1173061 0.152636,-0.1380072 0.0076,-0.0069 0.02289,-0.0069 0.03053,-0.0069 h 0.228954 0.412117 0.41975 0.412117 0.228954 c 0.0076,0 0.0229,0 0.03053,0.0069 0.09921,0.020701 0.122108,0.0483025 0.152636,0.1380072 0.0076,0.0069 0.0076,0.020701 0.0076,0.027601 v 0.2001104 z m 0.160268,-0.75903955 c -0.09921,-0.020701 -0.12974,-0.0483025 -0.152636,-0.1380072 -0.0076,-0.0069 -0.0076,-0.020701 -0.0076,-0.0276015 v -0.096605 c 0,-0.0621032 -0.05342,-0.11040576 -0.122109,-0.11040576 h -0.29764 -0.412117 -0.41975 -0.412117 -0.29764 c -0.06869,0 -0.122109,0.0483025 -0.122109,0.11040576 v 0.096605 c 0,0.0069 0,0.020701 -0.0076,0.0276015 -0.0229,0.096605 -0.05342,0.11730612 -0.1679,0.14490756 0,0 0,0 0,0 H 36.06032 c -0.06106,0 -0.114478,0.0483025 -0.114478,0.11040569 v 0.2622137 0.3795197 0.2001107 c 0,0.013799 -0.0076,0.020701 -0.0076,0.0345 -0.03053,0.089705 -0.06105,0.1173062 -0.175531,0.1449077 0,0 0,0 0,0 h -0.114477 c -0.06869,0 -0.122109,0.048303 -0.122109,0.1035052 v 0.2691143 0.3795196 0.2001104 c 0,0.0069 0,0.020701 -0.0076,0.027603 -0.03053,0.096605 -0.05342,0.1173061 -0.1679,0.1449077 0,0 0,0 0,0 h -0.122109 c -0.06105,0 -0.114477,0.048303 -0.114477,0.1104056 v 0.269114 0.3726195 0.37952 0.3726195 0.2691139 c 0,0.062103 0.05342,0.1104057 0.114477,0.1104057 h 0.122109 c 0,0 0,0 0,0 0.114477,0.027603 0.137372,0.048303 0.1679,0.1449077 0.0076,0.0069 0.0076,0.020701 0.0076,0.027603 v 0.096605 c 0,0.055203 0.05342,0.1035056 0.122109,0.1035056 h 0.29764 0.412117 0.419749 0.412117 0.297641 c 0.06869,0 0.122109,-0.048303 0.122109,-0.1035056 v -0.096605 c 0,-0.0069 0,-0.020701 0,-0.027603 0.03053,-0.096605 0.06105,-0.1173062 0.175531,-0.1449077 0,0 0,0 0,0 h 0.114477 c 0.06869,0 0.122109,-0.048303 0.122109,-0.1104057 V 4.7478608 4.3752413 4.1751306 c 0,-0.0138 0.0076,-0.020701 0.0076,-0.034501 0.03053,-0.089705 0.05342,-0.1104057 0.152636,-0.1380072 0.01526,0 0.0229,-0.0069 0.03816,-0.0069 h 0.09921 c 0.06869,0 0.122109,-0.048303 0.122109,-0.1104057 V 3.6231018 3.2435822 3.0434718 c 0,-0.013799 0,-0.020701 0.0076,-0.027603 0.0229,-0.089705 0.05342,-0.1173061 0.152636,-0.1449077 0.0076,0 0.0229,0 0.03053,0 h 0.106845 c 0.06105,0 0.114477,-0.048303 0.114477,-0.1104056 V 2.491443 2.1188235 1.7393035 1.3597837 1.0975701 c 0,-0.062103 -0.05342,-0.11040579 -0.114477,-0.11040579 h -0.106845 c -0.0076,0 -0.02289,0 -0.03053,-0.0069 z m 3.96854,0.75903955 v 0.37952 0.3726195 0.2001103 c 0,0.0138 0,0.020701 -0.0076,0.034501 -0.03053,0.089705 -0.05342,0.1104061 -0.152636,0.1380072 -0.0076,0 -0.02289,0.0069 -0.03053,0.0069 h -0.106846 c -0.06869,0 -0.122108,0.048303 -0.122108,0.1104057 V 3.243581 3.6231006 3.8232113 c 0,0.0069 0,0.020701 0,0.027603 -0.03053,0.089705 -0.06106,0.1173058 -0.160268,0.1449073 -0.0076,0 -0.01526,0 -0.03053,0 h -0.09921 c -0.06869,0 -0.122109,0.048303 -0.122109,0.1104057 v 0.2691143 0.3726195 0.2070108 c 0,0.0069 0,0.020701 -0.0076,0.027603 -0.03053,0.089705 -0.05342,0.1173062 -0.152636,0.1380072 -0.0076,0.0069 -0.0229,0.0069 -0.03816,0.0069 h -0.221322 -0.412117 -0.41975 -0.412117 -0.228954 c -0.0076,0 -0.0229,0 -0.03053,-0.0069 -0.09921,-0.020701 -0.12974,-0.048303 -0.152636,-0.1380072 -0.0076,-0.0069 -0.0076,-0.020701 -0.0076,-0.027603 V 4.7478618 4.3752423 3.9957223 3.6231028 3.4229925 c 0,-0.013799 0,-0.020701 0.0076,-0.034501 0.0229,-0.089705 0.05342,-0.1104061 0.152636,-0.1380072 0.0076,-0.0069 0.0229,-0.0069 0.03053,-0.0069 h 0.106845 c 0.06869,0 0.122109,-0.048303 0.122109,-0.1104057 V 2.8709637 2.4914441 2.2913334 c 0,-0.0138 0,-0.020701 0,-0.034501 0.03053,-0.082805 0.06105,-0.1104057 0.152636,-0.1380072 0.01526,0 0.02289,0 0.03816,0 h 0.09921 c 0.06869,0 0.122109,-0.055203 0.122109,-0.1104057 V 1.7393035 1.3597837 1.1596733 c 0,-0.0069 0,-0.020701 0.0076,-0.027601 0.03053,-0.089705 0.05342,-0.1173061 0.152636,-0.1380072 0.0076,-0.0069 0.0229,-0.0069 0.03053,-0.0069 h 0.228955 0.412117 0.419749 0.412117 0.228954 c 0.0076,0 0.0229,0 0.03053,0.0069 0.09921,0.020701 0.122109,0.0483025 0.152636,0.1380072 0.0076,0.0069 0.0076,0.020701 0.0076,0.027601 v 0.2001104 z m 0.160268,-0.75903955 c -0.09921,-0.020701 -0.12974,-0.0483025 -0.152636,-0.1380072 -0.0076,-0.0069 -0.0076,-0.020701 -0.0076,-0.0276015 v -0.096605 c 0,-0.0621032 -0.05342,-0.11040576 -0.122109,-0.11040576 h -0.29764 -0.412117 -0.41975 -0.412117 -0.29764 c -0.06869,0 -0.122109,0.0483025 -0.122109,0.11040576 v 0.096605 c 0,0.0069 0,0.020701 -0.0076,0.0276015 -0.02289,0.096605 -0.05342,0.11730612 -0.1679,0.14490756 0,0 0,0 0,0 h -0.122108 c -0.06106,0 -0.114478,0.0483025 -0.114478,0.11040569 v 0.2622137 0.3795197 0.2001107 c 0,0.013799 -0.0076,0.020701 -0.0076,0.0345 -0.03053,0.089705 -0.06105,0.1173062 -0.175532,0.1449077 0,0 0,0 0,0 h -0.114476 c -0.06869,0 -0.122109,0.048303 -0.122109,0.1035052 v 0.2691143 0.3795196 0.2001104 c 0,0.0069 0,0.020701 -0.0076,0.027603 -0.03053,0.096605 -0.05342,0.1173061 -0.1679,0.1449077 0,0 0,0 0,0 h -0.122109 c -0.06105,0 -0.114477,0.048303 -0.114477,0.1104056 v 0.269114 0.3726195 0.37952 0.3726195 0.2691139 c 0,0.062103 0.05342,0.1104057 0.114477,0.1104057 h 0.122109 c 0,0 0,0 0,0 0.114477,0.027603 0.137372,0.048303 0.1679,0.1449077 0.0076,0.0069 0.0076,0.020701 0.0076,0.027603 v 0.096605 c 0,0.055203 0.05342,0.1035056 0.122109,0.1035056 h 0.29764 0.412117 0.41975 0.412117 0.29764 c 0.06869,0 0.122109,-0.048303 0.122109,-0.1035056 v -0.096605 c 0,-0.0069 0,-0.020701 0,-0.027603 0.03053,-0.096605 0.06106,-0.1173062 0.175531,-0.1449077 0,0 0,0 0,0 h 0.114478 c 0.06869,0 0.122108,-0.048303 0.122108,-0.1104057 V 4.7478608 4.3752413 4.1751306 c 0,-0.0138 0.0076,-0.020701 0.0076,-0.034501 0.03053,-0.089705 0.05342,-0.1104057 0.152636,-0.1380072 0.01526,0 0.0229,-0.0069 0.03816,-0.0069 h 0.09921 c 0.06869,0 0.122108,-0.048303 0.122108,-0.1104057 V 3.6231018 3.2435822 3.0434718 c 0,-0.013799 0,-0.020701 0.0076,-0.027603 0.0229,-0.089705 0.05342,-0.1173061 0.152637,-0.1449077 0.0076,0 0.02289,0 0.03053,0 h 0.106845 c 0.06105,0 0.114477,-0.048303 0.114477,-0.1104056 V 2.491443 2.1188235 1.7393035 1.3597837 1.0975701 c 0,-0.062103 -0.05342,-0.11040579 -0.114477,-0.11040579 H 42.76098 c -0.0076,0 -0.0229,0 -0.03053,-0.0069 z m 3.96854,-0.16560864 v -0.096605 c 0,-0.0552029 -0.05342,-0.11040576 -0.122109,-0.11040576 h -0.29764 -0.412118 -0.419749 -0.412117 -0.297641 c -0.06869,0 -0.122108,0.0552029 -0.122108,0.11040576 v 0.096605 c 0,0.0069 0,0.020701 -0.0076,0.0276015 -0.0229,0.0897047 -0.05342,0.11730612 -0.152637,0.1380072 -0.0076,0.0069 -0.02289,0.0069 -0.03053,0.0069 H 44.3179 c -0.06106,0 -0.114478,0.0483025 -0.114478,0.11040579 v 0.089705 c 0,0.013801 -0.0076,0.020701 -0.0076,0.034502 -0.03053,0.082804 -0.05342,0.1104058 -0.152636,0.1380072 -0.01526,0 -0.02289,0 -0.03816,0 h -0.09921 c -0.06869,0 -0.122109,0.055203 -0.122109,0.1104058 v 0.269114 0.2691143 c 0,0.055203 0.05342,0.1104057 0.122109,0.1104057 h 0.175532 c 0.06869,0 0.122108,-0.055203 0.122108,-0.1104057 V 1.7393035 1.5391931 c 0,-0.013799 0,-0.020701 0,-0.034501 0.03053,-0.082804 0.06105,-0.1104056 0.152636,-0.138007 0.01526,0 0.0229,-0.0069 0.03816,-0.0069 h 0.09921 c 0.06869,0 0.122109,-0.048303 0.122109,-0.1035054 v -0.096606 c 0,-0.0069 0,-0.020701 0.0076,-0.027601 0.03053,-0.089705 0.05342,-0.1173061 0.152636,-0.1380072 0.0076,-0.0069 0.0229,-0.0069 0.03053,-0.0069 h 0.228954 0.412117 0.419749 0.412118 0.228954 c 0.0076,0 0.02289,0 0.03053,0.0069 0.09921,0.020701 0.122109,0.0483025 0.152636,0.1380072 0.0076,0.0069 0.0076,0.020701 0.0076,0.027601 v 0.2001104 0.3795198 0.2001107 c 0,0.013799 0,0.020701 -0.0076,0.0345 -0.03053,0.089705 -0.05342,0.1104057 -0.152636,0.1380072 -0.0076,0 -0.02289,0.0069 -0.03053,0.0069 h -0.106845 c -0.06869,0 -0.122109,0.048303 -0.122109,0.1035052 v 0.096605 c 0,0.0069 0,0.020701 0,0.027603 -0.03053,0.089705 -0.06106,0.1173062 -0.160268,0.1380072 -0.0076,0.0069 -0.01526,0.0069 -0.03053,0.0069 h -0.09921 c -0.06869,0 -0.122109,0.048302 -0.122109,0.1104057 v 0.089705 c 0,0.013799 0,0.020701 -0.0076,0.0345 -0.03053,0.089705 -0.05342,0.1104061 -0.152636,0.1380072 -0.01526,0 -0.02289,0.0069 -0.03816,0.0069 h -0.221323 -0.412117 -0.419749 -0.29764 c -0.06106,0 -0.114478,0.048303 -0.114478,0.1104057 v 0.089705 c 0,0.0069 -0.0076,0.020701 -0.0076,0.027603 -0.03053,0.089705 -0.05342,0.1173062 -0.152636,0.1449077 -0.01526,0 -0.0229,0 -0.03816,0 h -0.09921 c -0.06869,0 -0.122109,0.048303 -0.122109,0.1104057 V 3.623105 3.8232157 c 0,0.0138 0,0.020701 -0.0076,0.027603 -0.02289,0.089705 -0.05342,0.1173058 -0.152636,0.1449073 -0.0076,0 -0.02289,0 -0.03053,0 h -0.106846 c -0.06105,0 -0.114477,0.048303 -0.114477,0.1104057 V 4.375246 4.7478655 5.1273852 5.3964991 c 0,0.055203 0.05342,0.1035056 0.114477,0.1035056 h 0.297641 0.419749 0.412117 0.41975 0.412117 0.419749 0.290009 c 0.06869,0 0.122108,-0.048303 0.122108,-0.1035056 v -0.096605 c 0,-0.0069 0.0076,-0.020701 0.0076,-0.027603 0.03053,-0.089705 0.05342,-0.1173061 0.152637,-0.1380072 0.01526,-0.0069 0.02289,-0.0069 0.03816,-0.0069 h 0.09921 c 0.06869,0 0.122108,-0.048303 0.122108,-0.1104057 V 4.8582686 c 0,-0.055203 -0.05342,-0.1104057 -0.122108,-0.1104057 h -0.175532 c -0.06869,0 -0.122109,0.055203 -0.122109,0.1104057 v 0.096605 c 0,0.0069 0,0.020701 0,0.027603 -0.03053,0.089705 -0.06105,0.1173062 -0.160268,0.1380072 -0.0076,0.0069 -0.01526,0.0069 -0.03053,0.0069 h -0.221322 -0.41975 -0.412117 -0.419749 -0.412117 -0.228954 c -0.0076,0 -0.0229,0 -0.03053,-0.0069 -0.09921,-0.020701 -0.12974,-0.048303 -0.152636,-0.1380072 -0.0076,-0.0069 -0.0076,-0.020701 -0.0076,-0.027603 V 4.7478629 4.3752434 4.1751327 c 0,-0.013799 0,-0.020701 0.0076,-0.034501 0.02289,-0.089705 0.05342,-0.1104057 0.152636,-0.1380072 0.0076,0 0.02289,-0.0069 0.03053,-0.0069 h 0.106845 c 0.06869,0 0.122109,-0.048303 0.122109,-0.1104057 V 3.6231039 3.4229936 c 0,-0.013799 0,-0.020701 0,-0.034501 0.03053,-0.089705 0.06105,-0.1104061 0.152636,-0.1380072 0.01526,-0.0069 0.0229,-0.0069 0.03816,-0.0069 h 0.221322 0.41975 0.412117 0.29764 c 0.06869,0 0.122109,-0.048303 0.122109,-0.1104057 V 3.043474 c 0,-0.013799 0,-0.020701 0,-0.027603 0.03053,-0.089705 0.06105,-0.1173062 0.160268,-0.1449077 0.0076,0 0.0229,0 0.03053,0 h 0.09921 c 0.06869,0 0.122109,-0.048303 0.122109,-0.1104057 v -0.096605 c 0,-0.0069 0.0076,-0.020701 0.0076,-0.027603 0.03053,-0.089705 0.05342,-0.1104057 0.152636,-0.1380072 0.01526,-0.0069 0.0229,-0.0069 0.03816,-0.0069 h 0.09921 c 0.06869,0 0.122109,-0.048303 0.122109,-0.1104061 v -0.089705 c 0,-0.013799 0,-0.020701 0.0076,-0.034501 0.0229,-0.082805 0.05342,-0.1104057 0.152636,-0.1380072 0.0076,0 0.0229,0 0.03053,0 h 0.106845 c 0.06105,0 0.114477,-0.055203 0.114477,-0.1104057 V 1.7393035 1.3597837 1.0975701 c 0,-0.062103 -0.05342,-0.11040579 -0.114477,-0.11040579 h -0.106845 c -0.0076,0 -0.0229,0 -0.03053,-0.0069 -0.09921,-0.020701 -0.12974,-0.0483025 -0.152636,-0.1380072 -0.0076,-0.0069 -0.0076,-0.020701 -0.0076,-0.0276015 z"
     id="text8"
     aria-label="QD 002" /><g
     id="g18"
     inkscape:label="Lights"
     style="display:inline"
     transform="translate(-1.4618529e-6,2.4999999)"
     sodipodi:insensitive="true"><circle
       style="fill:#000000;fill-opacity:1;stroke:none;stroke-width:0.02075;paint-order:markers fill stroke"
       id="path4-1-2-1"
       cx="35.560005"
       cy="13.25"
       r="1.2499999" /><circle
       style="fill:#000000;fill-opacity:1;stroke:none;stroke-width:0.02075;paint-order:markers fill stroke"
       id="path4-1-2-1-8"
       cx="22.860004"
       cy="100"
       r="1.2499999" /><circle
       style="fill:#000000;fill-opacity:1;stroke:none;stroke-width:0.02075;paint-order:markers fill stroke"
       id="path4-1-2-1-8-0"
       cx="27.960003"
       cy="102.5"
       r="1.2499999" /><circle
       style="fill:#000000;fill-opacity:1;stroke:none;stroke-width:0.02075;paint-order:markers fill stroke"
       id="path4-1-2-1-9"
       cx="35.560005"
       cy="17.75"
       r="1.2499999" /></g><path
     id="path20"
     style="display:inline;fill:#f4eff1;stroke-width:0.499999;stroke-dasharray:1, 0.499999;paint-order:markers fill stroke"
     d="M 35.560004,4.9999999 H 0 V 123.5 h 10.160001 l -0.0264,-62.220749 0.314193,-6.530351 0.956013,-5.731433 2.491322,-9.512598 6.334497,-19.271692 1.333769,-1.215946 1.917712,-0.738456 3.162598,-0.261483 h 0.02636 v -3.517615 c 2e-4,-0.275957 0.279822,-0.499608 0.624768,-0.499711 h 4.750097 c 0.344946,1.03e-4 0.624568,0.223754 0.624768,0.499711 v 3.505729 l 2.890263,-0.0057 v -0.999923 c -0.690399,3.2e-5 -1.250087,-0.559654 -1.250058,-1.250053 -2.9e-5,-0.690397 0.559656,-1.250082 1.250053,-1.250053 z m -5e-5,0 v 9.4996771 c 0.690397,-2.9e-5 1.250082,0.559656 1.250053,1.250053 2.9e-5,0.690397 -0.559656,1.250082 -1.250053,1.250053 v 0.999939 H 38.4497 v -3.500045 c 2e-4,-0.276118 0.280137,-0.499837 0.625285,-0.499711 h 4.750098 c 0.344946,1.03e-4 0.624568,0.223754 0.624768,0.499711 v 3.500045 l 3.162599,0.261483 1.917195,0.738456 1.334285,1.215946 6.334497,19.271692 2.491321,9.512598 0.956015,5.731433 0.314191,6.530351 V 123.49976 L 71.120007,123.5 V 4.9999999 Z m 13.195577,3.999755 h 16.008326 c 0.274021,-1.794e-4 0.496218,0.22387 0.496093,0.5002283 v 6.9995718 c 1.25e-4,0.276358 -0.222072,0.500407 -0.496093,0.500228 H 48.755531 C 48.481712,16.999675 48.259829,16.77571 48.259954,16.499555 V 9.4999832 c -1.25e-4,-0.276155 0.221757,-0.5001202 0.495577,-0.5002283 z" /><g
     id="g24"
     style="stroke:#cbcbcb;stroke-opacity:1"><path
       style="display:inline;fill:none;fill-opacity:1;stroke:#cbcbcb;stroke-width:0.5;stroke-linecap:round;stroke-dasharray:none;stroke-opacity:1;paint-order:markers fill stroke"
       d="m 29.210004,18 c -5.132198,0 -7.301578,0 -8.951619,2.212599"
       id="path8-2"
       sodipodi:nodetypes="cc" /><path
       style="display:inline;fill:none;fill-opacity:1;stroke:#cbcbcb;stroke-width:0.5;stroke-linecap:round;stroke-dasharray:none;stroke-opacity:1;paint-order:markers fill stroke"
       d="M 50.864078,20.215892 C 49.213734,18 47.044748,18 41.910005,18"
       id="path8-3-2"
       sodipodi:nodetypes="cc" /><path
       style="display:inline;fill:none;fill-opacity:1;stroke:#cbcbcb;stroke-width:0.5;stroke-linecap:butt;stroke-dasharray:none;stroke-opacity:1;paint-order:markers fill stroke"
       d="m 13.747762,37.004963 -1.913278,6.929973 A 46.432172,46.432172 97.717076 0 0 10.159997,56.29197 l 5e-6,64.70803"
       id="path5-1"
       sodipodi:nodetypes="ccc"
       inkscape:original-d="M 13.747762,37.004963 10.159997,49.999999 10.160002,121"
       inkscape:path-effect="#path-effect14-4"
       transform="translate(-1.4618529e-6,2.4999999)" /><path
       style="display:inline;fill:none;fill-opacity:1;stroke:#cbcbcb;stroke-width:0.5;stroke-linecap:butt;stroke-dasharray:none;stroke-opacity:1;paint-order:markers fill stroke"
       d="m 13.921423,35.487411 -2.182811,8.421868 a 49.354194,49.354194 97.265176 0 0 -1.57861,12.382691 l 5e-5,63.20779"
       id="path5-0-6"
       sodipodi:nodetypes="ccc"
       transform="matrix(-1,0,0,1,71.120006,3.9999989)"
       inkscape:original-d="m 13.921423,35.487411 -3.761426,14.512588 5.5e-5,69.499761"
       inkscape:path-effect="#path-effect14-2-1" /><path
       style="fill:#f2db00;fill-opacity:1;stroke-width:0.499999;stroke-dasharray:none;paint-order:markers fill stroke;stroke:#cbcbcb;stroke-opacity:1"
       d="m 50.863931,20.215607 6.334651,19.271801"
       id="path22" /><path
       style="fill:#f2db00;fill-opacity:1;stroke:#cbcbcb;stroke-width:0.499999;stroke-dasharray:none;stroke-opacity:1;paint-order:markers fill stroke"
       d="M 13.74776,39.504963 20.229624,20.233177"
       id="path23" /><path
       style="fill:#f2db00;fill-opacity:1;stroke:#cbcbcb;stroke-width:0.499999;stroke-linecap:butt;stroke-dasharray:none;stroke-opacity:1;paint-order:markers fill stroke"
       d="M 29.210002,17.999999 H 41.910005"
       id="path24" /></g><g
     id="g20"
     inkscape:label="Lights"
     style="display:inline"
     transform="translate(-1.4618529e-6,2.4999999)"><circle
       style="fill:#190013;fill-opacity:1;stroke:none;stroke-width:0.02075;paint-order:markers fill stroke"
       id="circle14"
       cx="35.560005"
       cy="13.25"
       r="1.2499999" /><circle
       style="fill:#190013;fill-opacity:1;stroke:none;stroke-width:0.02075;paint-order:markers fill stroke"
       id="circle15"
       cx="22.860004"
       cy="100"
       r="1.2499999" /><circle
       style="fill:#190013;fill-opacity:1;stroke:none;stroke-width:0.02075;paint-order:markers fill stroke"
       id="circle16"
       cx="27.960003"
       cy="102.5"
       r="1.2499999" /><circle
       style="fill:#190013;fill-opacity:1;stroke:none;stroke-width:0.02075;paint-order:markers fill stroke"
       id="circle17"
       cx="35.560005"
       cy="17.75"
       r="1.2499999" /></g><g
     id="g15"
     inkscape:label="Lines"
     style="display:inline;stroke-width:0.5;stroke-dasharray:none"
     transform="translate(-1.4618529e-6,2.4999999)"><path
       style="fill:none;fill-opacity:1;stroke:#190013;stroke-width:0.5;stroke-linecap:round;stroke-dasharray:none;stroke-opacity:1;paint-order:markers fill stroke"
       d="m 20.913532,65.002502 1.278946,3.612182 a 11.640983,11.640983 80.25137 0 1 0.667524,3.885315 v 17.5"
       id="path6"
       sodipodi:nodetypes="ccc"
       inkscape:path-effect="#path-effect13"
       inkscape:original-d="m 20.913532,65.002502 1.94647,5.497497 v 19.5"
       transform="translate(-3.1296166e-6,-3.0000007)" /><path
       style="baseline-shift:baseline;display:inline;overflow:visible;vector-effect:none;fill:#fdd04b;stroke-dasharray:1, 0.5;paint-order:markers fill stroke;enable-background:accumulate;stop-color:#000000;stop-opacity:1;opacity:1;fill-opacity:1"
       d="m 34.587891,32.75 c -0.308413,0.01709 -0.643188,-0.0129 -1,0.0059 l 0.02734,0.5 c 0.309124,-0.01625 0.642942,0.01392 1,-0.0059 z m 0.513671,0 v 0.5 h 0.458985 v -0.5 z m -2.035156,0.06055 c -0.34774,0.0543 -0.690495,0.146813 -1.017578,0.27539 l 0.183594,0.464844 c 0.29332,-0.115305 0.599218,-0.197541 0.910156,-0.246094 z m -1.496094,0.49414 c -0.311757,0.162868 -0.604386,0.361161 -0.873046,0.587891 l 0.322265,0.380859 c 0.240705,-0.203137 0.50419,-0.379628 0.783203,-0.52539 z M 30.3125,34.251953 c -0.243274,0.253601 -0.457589,0.533873 -0.640625,0.833984 l 0.425781,0.259766 c 0.16408,-0.26903 0.357965,-0.520577 0.576172,-0.748047 z m -0.890625,1.296875 c -0.150468,0.318148 -0.264814,0.652996 -0.341797,0.996094 l 0.486328,0.109375 c 0.06894,-0.307269 0.172122,-0.608154 0.306641,-0.892578 z m -0.429688,1.511719 c -0.04461,0.357818 -0.03001,0.703344 -0.03125,1.029297 l 0.5,0.002 c 0.0013,-0.339592 -0.01064,-0.664126 0.02734,-0.96875 z m -0.03125,1.529297 v 1 h 0.5 v -1 z m 0,1.5 v 1 h 0.5 v -1 z m 0,1.5 v 1 h 0.5 v -1 z m 0,1.5 v 1 h 0.5 v -1 z m 0,1.5 v 1 h 0.5 v -1 z m 0,1.5 v 1 h 0.5 v -1 z m 0,1.5 v 1 h 0.5 v -1 z m 0,1.5 v 1 h 0.5 v -1 z m 0,1.5 v 1 h 0.5 v -1 z m 0,1.5 v 1 h 0.5 v -1 z m 0,1.5 v 1 h 0.5 v -1 z m 0,1.5 v 1 h 0.5 v -1 z m 0,1.5 v 1 h 0.5 v -1 z m 0,1.5 v 1 h 0.5 v -1 z m 0,1.5 v 1 h 0.5 v -1 z m 0,1.5 v 1 h 0.5 v -1 z m 0,1.5 v 1 h 0.5 v -1 z m 0,1.5 v 1 h 0.5 v -1 z m 0,1.5 v 1 h 0.5 v -1 z m 0,1.5 v 1 h 0.5 v -1 z m 0,1.5 v 1 h 0.5 v -1 z m 0,1.5 v 1 h 0.5 v -1 z m 0,1.5 v 1 h 0.5 v -1 z m 0,1.5 v 1 h 0.5 v -1 z m 0,1.5 v 1 h 0.5 v -1 z m 0,1.5 v 1 h 0.5 v -1 z m 0,1.5 v 1 h 0.5 v -1 z m 0,1.5 v 1 h 0.5 v -1 z m 0,1.5 v 1 h 0.5 v -1 z m 0,1.5 v 1 h 0.5 v -1 z m 0,1.5 v 1 h 0.5 v -1 z m 0,1.5 v 1 h 0.5 v -1 z m 0,1.5 v 1 h 0.5 v -1 z m 0,1.5 v 1 h 0.5 v -1 z m 0,1.5 v 1 h 0.5 v -1 z m 0,1.5 v 0.05078 l -0.0039,0.542969 -0.0078,0.402343 0.5,0.0098 0.0078,-0.408203 0.0039,-0.544922 v -0.05273 z m -0.02344,1.49414 -0.0039,0.179688 -0.02148,0.541015 -0.01367,0.271485 0.498047,0.02539 0.01367,-0.27539 0.02148,-0.544922 0.0059,-0.183594 z m -0.06836,1.490235 -0.01758,0.308593 -0.03906,0.539063 -0.01367,0.142578 0.498047,0.04297 0.01367,-0.146485 0.03906,-0.544921 0.01953,-0.3125 z m -0.113282,1.486328 -0.04102,0.4375 -0.05859,0.537109 v 0.01563 l 0.496094,0.05859 0.002,-0.01758 0.05859,-0.542969 0.04102,-0.441406 z m -0.158203,1.486328 -0.0039,0.02539 -0.07031,0.535156 -0.05859,0.423828 0.49414,0.07031 0.06055,-0.427734 0.07031,-0.541016 0.0039,-0.02734 z m -0.207031,1.476562 -0.02344,0.154297 -0.08789,0.533203 -0.05078,0.292969 0.492187,0.08789 0.05273,-0.296875 0.08789,-0.539063 0.02344,-0.15625 z m -0.25,1.472657 -0.179688,0.982426 0.492188,0.0898 0.179687,-0.98438 z m -0.267578,1.474606 -0.179688,0.98438 0.492188,0.0898 0.179687,-0.98437 z"
       id="path9" /><path
       style="fill:none;fill-opacity:1;stroke:#190013;stroke-width:0.5;stroke-linecap:round;stroke-dasharray:none;stroke-opacity:1;paint-order:markers fill stroke"
       d="m 20.912857,65.000596 1.279621,3.614087 A 11.640987,11.640987 80.251369 0 1 22.860002,72.5 v 17.499999"
       id="path6-5"
       sodipodi:nodetypes="ccc"
       inkscape:path-effect="#path-effect13-0"
       inkscape:original-d="m 20.912857,65.000596 1.947145,5.499403 v 19.5"
       transform="matrix(-1,0,0,1,71.120004,-3.0000016)" /><path
       style="fill:none;fill-opacity:1;stroke:#190013;stroke-width:0.5;stroke-linecap:round;stroke-dasharray:none;stroke-opacity:1;paint-order:markers fill stroke"
       d="m 35.560001,87.499998 3e-6,-17.999999 a 22.352185,22.352185 95.113029 0 1 0.355064,-3.96823 l 1.629312,-9.03177"
       id="path7"
       sodipodi:nodetypes="ccc"
       inkscape:path-effect="#path-effect15"
       inkscape:original-d="m 35.560001,87.499998 3e-6,-19.999999 1.984376,-11" /><path
       style="fill:none;fill-opacity:1;stroke:#000000;stroke-width:0.5;stroke-dasharray:none;stroke-opacity:1;paint-order:markers fill stroke"
       d="M 35.560001,113 V 99"
       id="path7-1"
       sodipodi:nodetypes="cc" /><path
       style="fill:none;fill-opacity:1;stroke:#000000;stroke-width:0.5;stroke-linecap:round;stroke-dasharray:none;stroke-opacity:1;paint-order:markers fill stroke"
       d="m 29.210005,15.5 c -5.132198,0 -7.301578,0 -8.951619,2.212599"
       id="path8"
       sodipodi:nodetypes="cc" /><path
       style="fill:none;fill-opacity:1;stroke:#000000;stroke-width:0.5;stroke-linecap:round;stroke-dasharray:none;stroke-opacity:1;paint-order:markers fill stroke"
       d="M 50.864079,17.715892 C 49.213735,15.5 47.044749,15.5 41.910006,15.5"
       id="path8-3"
       sodipodi:nodetypes="cc" /><path
       style="fill:none;fill-opacity:1;stroke:#000000;stroke-width:0.5;stroke-dasharray:none;stroke-opacity:1;paint-order:markers fill stroke"
       d="m 10.160001,111.5 0,-4 a 4.4999977,4.4999977 135 0 1 4.499998,-4.5 h 29.100008 a 4.4999977,4.4999977 45 0 1 4.499998,4.5 v 4"
       id="path10"
       inkscape:path-effect="#path-effect12"
       inkscape:original-d="M 10.160001,111.5 V 103 h 38.100004 v 8.5"
       transform="translate(-3.1296166e-6,-3.0000007)" /><path
       style="fill:none;fill-opacity:1;stroke:#000000;stroke-width:0.5;stroke-dasharray:none;stroke-opacity:1;paint-order:markers fill stroke;stroke-linecap:round"
       d="m 10.159998,108.5 h 12.700001 c 0,0 3.810001,-8.5 12.7,-8.5 8.890003,0 12.700003,8.5 12.700003,8.5 h 12.7"
       id="path12"
       sodipodi:nodetypes="ccscc" /><path
       style="baseline-shift:baseline;display:inline;overflow:visible;opacity:1;fill:#ff0000;stroke-width:0.5;stroke-dasharray:none;paint-order:markers fill stroke;enable-background:accumulate;stop-color:#000000;stop-opacity:1"
       d="m 39.925781,99 v 0.5 h 1 V 99 Z m 1.5,0 v 0.5 h 1 V 99 Z m 1.5,0 v 0.5 h 1 V 99 Z m 1.5,0 v 0.5 h 1 V 99 Z m 1.5,0 v 0.5 h 1 V 99 Z m 1.5,0 v 0.5 h 1 V 99 Z m 1.5,0 v 0.5 h 1 V 99 Z m 1.5,0 v 0.5 h 1 V 99 Z m 1.5,0 v 0.5 h 1 V 99 Z m 1.5,0 v 0.5 h 0.78711 V 99 Z"
       id="path19" /><path
       style="display:inline;fill:none;fill-opacity:1;stroke:#190013;stroke-width:0.5;stroke-linecap:round;stroke-dasharray:none;stroke-opacity:1;paint-order:markers fill stroke"
       d="m 13.747762,37.004963 -1.913278,6.929973 A 46.432168,46.432168 97.717075 0 0 10.159998,56.29197 l 3e-6,36.208028"
       id="path5"
       sodipodi:nodetypes="ccc"
       inkscape:original-d="m 13.747762,37.004963 -3.587765,12.995036 4e-6,42.499999"
       inkscape:path-effect="#path-effect14" /><path
       style="display:inline;fill:none;fill-opacity:1;stroke:#190013;stroke-width:0.5;stroke-linecap:round;stroke-dasharray:none;stroke-opacity:1;paint-order:markers fill stroke"
       d="m 13.921423,35.487411 -2.182811,8.421868 A 49.354331,49.354331 97.265196 0 0 10.159998,56.29197 l 3e-6,36.208028"
       id="path5-0"
       sodipodi:nodetypes="ccc"
       transform="matrix(-1,0,0,1,71.120004,1.4999986)"
       inkscape:original-d="m 13.921423,35.487411 -3.761426,14.512588 4e-6,42.499999"
       inkscape:path-effect="#path-effect14-2" /></g><g
     id="g19"
     inkscape:label="Ports"
     transform="translate(-1.4618529e-6,2.4999999)"
     sodipodi:insensitive="true"
     style="display:inline"><circle
       style="fill:#000000;fill-opacity:1;stroke:none;stroke-width:0.0664;paint-order:markers fill stroke"
       id="path4-1-2-2-6-2"
       cx="10.159993"
       cy="108.5"
       r="4" /><circle
       style="fill:#000000;fill-opacity:1;stroke:none;stroke-width:0.0664;paint-order:markers fill stroke"
       id="path4-1-2-2-6-2-1"
       cx="22.859993"
       cy="108.5"
       r="4" /><circle
       style="fill:#000000;fill-opacity:1;stroke:none;stroke-width:0.0664;paint-order:markers fill stroke"
       id="path4-1-2-2-6-2-1-2"
       cx="35.560005"
       cy="100"
       r="4" /><circle
       style="fill:#000000;fill-opacity:1;stroke:none;stroke-width:0.0664;paint-order:markers fill stroke"
       id="path4-1-2-2-6-2-1-2-1"
       cx="48.260006"
       cy="108.5"
       r="4" /><circle
       style="fill:#ff0000;fill-opacity:1;stroke:none;stroke-width:0.0664;paint-order:markers fill stroke"
       id="path4-1-2-2-6-2-1-2-1-6"
       cx="54.400002"
       cy="99.300003"
       r="4" /><circle
       style="fill:#000000;fill-opacity:1;stroke:none;stroke-width:0.0664;paint-order:markers fill stroke"
       id="path4-1-2-2-6-2-1-2-1-0"
       cx="60.960007"
       cy="108.5"
       r="4" /><circle
       style="fill:#000000;fill-opacity:1;stroke:none;stroke-width:0.0664;paint-order:markers fill stroke"
       id="path4-1-2-2-6-2-0"
       cx="10.159997"
       cy="90.5"
       r="4" /><circle
       style="fill:#000000;fill-opacity:1;stroke:none;stroke-width:0.0664;paint-order:markers fill stroke"
       id="path4-1-2-2-6-2-1-9"
       cx="22.859999"
       cy="88.5"
       r="4" /><circle
       style="fill:#000000;fill-opacity:1;stroke:none;stroke-width:0.0664;paint-order:markers fill stroke"
       id="path4-1-2-2-6-2-1-2-0"
       cx="35.560005"
       cy="87.5"
       r="4" /><circle
       style="fill:#000000;fill-opacity:1;stroke:none;stroke-width:0.0664;paint-order:markers fill stroke"
       id="path4-1-2-2-6-2-1-2-1-06"
       cx="48.260006"
       cy="88.5"
       r="4" /><circle
       style="fill:#000000;fill-opacity:1;stroke:none;stroke-width:0.0664;paint-order:markers fill stroke"
       id="path4-1-2-2-6-2-1-2-1-0-1"
       cx="60.960007"
       cy="90.5"
       r="4" /></g></svg>
