<?xml version="1.0" encoding="UTF-8" standalone="no"?>
<!-- Created with Inkscape (http://www.inkscape.org/) -->

<svg
   width="8mm"
   height="8mm"
   viewBox="0 0 8 8"
   version="1.1"
   id="svg1"
   inkscape:version="1.4.3 (0d15f75042, 2025-12-25)"
   sodipodi:docname="BlendBTN1.svg"
   xmlns:inkscape="http://www.inkscape.org/namespaces/inkscape"
   xmlns:sodipodi="http://sodipodi.sourceforge.net/DTD/sodipodi-0.dtd"
   xmlns="http://www.w3.org/2000/svg"
   xmlns:svg="http://www.w3.org/2000/svg">
  <sodipodi:namedview
     id="namedview1"
     pagecolor="#ffffff"
     bordercolor="#999999"
     borderopacity="1"
     inkscape:showpageshadow="2"
     inkscape:pageopacity="0"
     inkscape:pagecheckerboard="0"
     inkscape:deskcolor="#d1d1d1"
     inkscape:document-units="mm"
     inkscape:zoom="14.825788"
     inkscape:cx="14.164509"
     inkscape:cy="22.764389"
     inkscape:window-width="1707"
     inkscape:window-height="957"
     inkscape:window-x="0"
     inkscape:window-y="0"
     inkscape:window-maximized="1"
     inkscape:current-layer="layer1"
     showgrid="true">
    <inkscape:grid
       id="grid1"
       units="mm"
       originx="0"
       originy="0"
       spacingx="0.49999999"
       spacingy="0.49999999"
       empcolor="#0099e5"
       empopacity="0.30196078"
       color="#0099e5"
       opacity="0.14901961"
       empspacing="5"
       enabled="true"
       visible="true" />
  </sodipodi:namedview>
  <defs
     id="defs1" />
  <g
     inkscape:label="Layer 1"
     inkscape:groupmode="layer"
     id="layer1">
    <path
       d="M 3.9997559,0 A 4,4 0 0 0 0,3.9997559 4,4 0 0 0 3.9997559,8.0000285 4,4 0 0 0 8.0000285,3.9997559 4,4 0 0 0 3.9997559,0 Z m 0,0.50022786 A 3.5,3.5 0 0 1 7.4998006,3.9997559 3.5,3.5 0 0 1 3.9997559,7.4998006 3.5,3.5 0 0 1 0.50022786,3.9997559 3.5,3.5 0 0 1 3.9997559,0.50022786 Z"
       style="fill:#191413;stroke-width:0.499999;stroke-linecap:square;paint-order:stroke markers fill"
       id="path5" />
    <path
       d="m 4.3811279,3.4075439 v 0.6289022 h 0.3214274 c 0.056445,0 0.1072899,-0.012231 0.1524455,-0.03669 0.045156,-0.024459 0.081849,-0.059933 0.1100708,-0.1069703 0.028222,-0.047037 0.042375,-0.1036468 0.042375,-0.1694987 0,-0.065852 -0.014153,-0.1219447 -0.042375,-0.1689819 C 4.9368493,3.5072679 4.8994542,3.4712774 4.852417,3.446818 4.8072613,3.4204772 4.7571185,3.4075439 4.7025553,3.4075439 Z"
       style="fill:#191413;stroke-width:0.499999;stroke-linecap:square;paint-order:stroke markers fill"
       id="path7" />
    <path
       d="M 3.9997559,0.99993896 A 3,3 0 0 0 0.99993896,3.9997559 3,3 0 0 0 3.9997559,7.0000895 3,3 0 0 0 7.0000895,3.9997559 3,3 0 0 0 3.9997559,0.99993896 Z M 2.5181925,3.0122192 h 0.4743897 v 1.4112834 c 0,0.045156 0.016074,0.084473 0.048059,0.118339 0.031985,0.033867 0.071302,0.050643 0.118339,0.050643 h 0.521932 v 0.3953247 h -0.550354 c -0.1222967,0 -0.2292346,-0.027085 -0.3214274,-0.081649 C 2.7169381,4.8515971 2.6454739,4.7789139 2.5946737,4.6886027 2.5438737,4.5982914 2.5181925,4.4985224 2.5181925,4.3893962 Z m 1.3885458,0 h 0.8495605 c 0.1317041,0 0.2520921,0.030226 0.3612183,0.090434 0.1110077,0.060207 0.1997648,0.1439025 0.2656169,0.2511475 0.065852,0.1053632 0.098702,0.2276726 0.098702,0.3669026 0,0.13923 -0.03285,0.2634608 -0.098702,0.3725871 C 5.3172819,4.2005351 5.2297439,4.2842301 5.1206177,4.3444377 5.0114914,4.4046452 4.8898844,4.4348714 4.7562988,4.4348714 H 4.3811279 V 4.9878092 H 3.9067383 Z"
       style="fill:#191413;stroke-width:0.499999;stroke-linecap:square;paint-order:stroke markers fill"
       id="path6" />
  </g>
</svg>
