<?xml version="1.0" encoding="UTF-8" standalone="no"?>
<!-- Created with Inkscape (http://www.inkscape.org/) -->

<svg
   width="8mm"
   height="8mm"
   viewBox="0 0 8 8"
   version="1.1"
   id="svg1"
   inkscape:version="1.4.3 (0d15f75042, 2025-12-25)"
   sodipodi:docname="BlendBTN2.svg"
   xmlns:inkscape="http://www.inkscape.org/namespaces/inkscape"
   xmlns:sodipodi="http://sodipodi.sourceforge.net/DTD/sodipodi-0.dtd"
   xmlns="http://www.w3.org/2000/svg"
   xmlns:svg="http://www.w3.org/2000/svg">
  <sodipodi:namedview
     id="namedview1"
     pagecolor="#ffffff"
     bordercolor="#999999"
     borderopacity="1"
     inkscape:showpageshadow="2"
     inkscape:pageopacity="0"
     inkscape:pagecheckerboard="0"
     inkscape:deskcolor="#d1d1d1"
     inkscape:document-units="mm"
     inkscape:zoom="16.364485"
     inkscape:cx="10.571674"
     inkscape:cy="24.657055"
     inkscape:window-width="1707"
     inkscape:window-height="957"
     inkscape:window-x="0"
     inkscape:window-y="0"
     inkscape:window-maximized="1"
     inkscape:current-layer="layer1"
     showgrid="true">
    <inkscape:grid
       id="grid1"
       units="mm"
       originx="0"
       originy="0"
       spacingx="0.49999999"
       spacingy="0.49999999"
       empcolor="#0099e5"
       empopacity="0.30196078"
       color="#0099e5"
       opacity="0.14901961"
       empspacing="5"
       enabled="true"
       visible="true" />
  </sodipodi:namedview>
  <defs
     id="defs1" />
  <g
     inkscape:label="Layer 1"
     inkscape:groupmode="layer"
     id="layer1">
    <path
       d="M 3.9997559,0 A 4,4 0 0 0 0,3.9997559 4,4 0 0 0 3.9997559,8.0000285 4,4 0 0 0 8.0000285,3.9997559 4,4 0 0 0 3.9997559,0 Z m 0,0.50022786 A 3.5,3.5 0 0 1 7.4998006,3.9997559 3.5,3.5 0 0 1 3.9997559,7.4998006 3.5,3.5 0 0 1 0.50022786,3.9997559 3.5,3.5 0 0 1 3.9997559,0.50022786 Z"
       style="fill:#191413;stroke-width:0.499999;stroke-linecap:square;paint-order:stroke markers fill"
       id="path3" />
    <path
       d="m 4.7180583,3.4075439 v 0.6289022 h 0.3219441 c 0.056445,0 0.1072898,-0.012231 0.1524455,-0.03669 0.045156,-0.024459 0.081849,-0.059933 0.1100708,-0.1069703 0.028223,-0.047037 0.042375,-0.1036468 0.042375,-0.1694987 0,-0.065852 -0.014152,-0.1219447 -0.042375,-0.1689819 C 5.2742965,3.5072679 5.2363845,3.4712774 5.1893473,3.446818 5.1441917,3.4204772 5.0945656,3.4075439 5.0400024,3.4075439 Z"
       style="fill:#191413;stroke-width:0.499999;stroke-linecap:square;paint-order:stroke markers fill"
       id="path5" />
    <path
       d="M 3.9997559,0.99993896 A 3,3 0 0 0 0.99993896,3.9997559 3,3 0 0 0 3.9997559,7.0000895 3,3 0 0 0 7.0000895,3.9997559 3,3 0 0 0 3.9997559,0.99993896 Z M 2.1812622,3.0122192 H 2.6551351 V 3.7883993 H 3.4256307 V 3.0122192 h 0.4743896 v 1.97559 H 3.4256307 V 4.1832072 H 2.6551351 v 0.804602 H 2.1812622 Z m 2.0629232,0 h 0.8495605 c 0.1317041,0 0.252092,0.030226 0.3612183,0.090434 0.1110077,0.060207 0.199248,0.1439025 0.2651001,0.2511475 0.065852,0.1053632 0.098702,0.2276726 0.098702,0.3669026 0,0.13923 -0.03285,0.2634608 -0.098702,0.3725871 C 5.6542123,4.2005349 5.5666743,4.2842301 5.457548,4.3444377 5.3484217,4.404645 5.2273315,4.4348714 5.0937459,4.4348714 H 4.7180583 V 4.9878092 H 4.2441854 Z"
       style="fill:#191413;stroke-width:0.499999;stroke-linecap:square;paint-order:stroke markers fill"
       id="path4" />
  </g>
</svg>
