<?xml version="1.0" encoding="UTF-8" standalone="no"?>
<!-- Created with Inkscape (http://www.inkscape.org/) -->

<svg
   width="8mm"
   height="8mm"
   viewBox="0 0 8 8"
   version="1.1"
   id="svg1"
   inkscape:version="1.4.3 (0d15f75042, 2025-12-25)"
   sodipodi:docname="BlendBTN3.svg"
   xmlns:inkscape="http://www.inkscape.org/namespaces/inkscape"
   xmlns:sodipodi="http://sodipodi.sourceforge.net/DTD/sodipodi-0.dtd"
   xmlns="http://www.w3.org/2000/svg"
   xmlns:svg="http://www.w3.org/2000/svg">
  <sodipodi:namedview
     id="namedview1"
     pagecolor="#ffffff"
     bordercolor="#999999"
     borderopacity="1"
     inkscape:showpageshadow="2"
     inkscape:pageopacity="0"
     inkscape:pagecheckerboard="0"
     inkscape:deskcolor="#d1d1d1"
     inkscape:document-units="mm"
     inkscape:zoom="9.8819624"
     inkscape:cx="40.983762"
     inkscape:cy="17.456047"
     inkscape:window-width="1707"
     inkscape:window-height="957"
     inkscape:window-x="0"
     inkscape:window-y="0"
     inkscape:window-maximized="1"
     inkscape:current-layer="layer1"
     showgrid="true">
    <inkscape:grid
       id="grid1"
       units="mm"
       originx="0"
       originy="0"
       spacingx="0.49999999"
       spacingy="0.49999999"
       empcolor="#0099e5"
       empopacity="0.30196078"
       color="#0099e5"
       opacity="0.14901961"
       empspacing="5"
       enabled="true"
       visible="true" />
  </sodipodi:namedview>
  <defs
     id="defs1" />
  <g
     inkscape:label="Layer 1"
     inkscape:groupmode="layer"
     id="layer1">
    <path
       d="M 3.9997559,0 A 4,4 0 0 0 0,3.9997559 4,4 0 0 0 3.9997559,8.0000285 4,4 0 0 0 8.0000285,3.9997559 4,4 0 0 0 3.9997559,0 Z m 0,0.50022786 A 3.5,3.5 0 0 1 7.4998006,3.9997559 3.5,3.5 0 0 1 3.9997559,7.4998006 3.5,3.5 0 0 1 0.50022786,3.9997559 3.5,3.5 0 0 1 3.9997559,0.50022786 Z"
       style="fill:#191413;stroke-width:0.499999;stroke-linecap:square;paint-order:stroke markers fill"
       id="path3" />
    <path
       d="m 2.6845907,4.1780396 v 0.4175455 h 0.5818766 c 0.039511,0 0.074283,-0.00961 0.1043864,-0.028422 0.031985,-0.018815 0.05715,-0.043979 0.075964,-0.075964 0.018815,-0.031985 0.028422,-0.066757 0.028422,-0.1043864 0,-0.039511 -0.00961,-0.074283 -0.028422,-0.1043864 -0.018815,-0.031985 -0.043979,-0.057666 -0.075964,-0.076481 -0.030104,-0.018815 -0.064875,-0.027905 -0.1043864,-0.027905 z"
       style="fill:#191413;stroke-width:0.499999;stroke-linecap:square;paint-order:stroke markers fill"
       id="path7" />
    <path
       d="m 4.6886027,3.4075439 v 0.6289022 h 0.3219442 c 0.056445,0 0.1072899,-0.012231 0.1524455,-0.03669 0.045156,-0.024459 0.081849,-0.059933 0.1100708,-0.1069703 0.028222,-0.047037 0.041858,-0.1036468 0.041858,-0.1694987 0,-0.065852 -0.013636,-0.1219447 -0.041858,-0.1689819 C 5.2448409,3.5072679 5.206929,3.4712774 5.1598918,3.446818 5.1147361,3.4204772 5.06511,3.4075439 5.0105469,3.4075439 Z"
       style="fill:#191413;stroke-width:0.499999;stroke-linecap:square;paint-order:stroke markers fill"
       id="path6" />
    <path
       d="m 2.6845907,3.4075439 v 0.3922242 h 0.5338175 c 0.03763,0 0.07048,-0.00839 0.098702,-0.025322 0.030104,-0.018815 0.053347,-0.042574 0.07028,-0.070797 0.016933,-0.030104 0.025838,-0.062954 0.025838,-0.098702 0,-0.03763 -0.0089,-0.07048 -0.025838,-0.098702 -0.016933,-0.030104 -0.040176,-0.053863 -0.07028,-0.070797 -0.028222,-0.018815 -0.061072,-0.027905 -0.098702,-0.027905 z"
       style="fill:#191413;stroke-width:0.499999;stroke-linecap:square;paint-order:stroke markers fill"
       id="path5" />
    <path
       d="M 3.9997559,0.99993896 A 3,3 0 0 0 0.99993896,3.9997559 3,3 0 0 0 3.9997559,7.0000895 3,3 0 0 0 7.0000895,3.9997559 3,3 0 0 0 3.9997559,0.99993896 Z M 2.2107178,3.0122192 h 1.1456665 c 0.097837,0 0.1865944,0.021838 0.2656168,0.065112 0.080904,0.043274 0.1446824,0.1032096 0.1917196,0.1803508 0.048919,0.077141 0.07338,0.1685218 0.07338,0.2738851 0,0.062089 -0.012231,0.1213226 -0.03669,0.1777669 -0.022578,0.056445 -0.055428,0.1060708 -0.098702,0.1493449 -0.041393,0.043274 -0.089614,0.078045 -0.1441773,0.1043864 0.063971,0.026341 0.1205802,0.064253 0.1694987,0.1131714 0.0508,0.048919 0.090117,0.1055281 0.1183391,0.1694987 0.030104,0.063971 0.045475,0.1322943 0.045475,0.2056722 0,0.1072447 -0.025681,0.2012494 -0.076481,0.2821533 -0.048919,0.080904 -0.1146186,0.1439801 -0.197404,0.1891357 -0.082785,0.043274 -0.1748686,0.065112 -0.2764689,0.065112 H 2.2107178 Z m 2.004012,0 h 0.8490438 c 0.1317041,0 0.2520921,0.030226 0.3612183,0.090434 0.1110077,0.060207 0.1997648,0.1439025 0.2656168,0.2511475 0.065852,0.1053632 0.098702,0.2276726 0.098702,0.3669026 0,0.13923 -0.03285,0.2634608 -0.098702,0.3725871 C 5.6247567,4.2005351 5.5372186,4.2842301 5.4280924,4.3444377 5.3189662,4.4046452 5.1973591,4.4348714 5.0637736,4.4348714 H 4.6886027 V 4.9878092 H 4.2147298 Z"
       style="fill:#191413;stroke-width:0.499999;stroke-linecap:square;paint-order:stroke markers fill"
       id="path4" />
  </g>
</svg>
