<?xml version="1.0" encoding="UTF-8" standalone="no"?>
<!-- Created with Inkscape (http://www.inkscape.org/) -->

<svg
   width="8mm"
   height="8mm"
   viewBox="0 0 8 8"
   version="1.1"
   id="svg1"
   inkscape:version="1.4.3 (0d15f75042, 2025-12-25)"
   sodipodi:docname="BlendBTN4.svg"
   xmlns:inkscape="http://www.inkscape.org/namespaces/inkscape"
   xmlns:sodipodi="http://sodipodi.sourceforge.net/DTD/sodipodi-0.dtd"
   xmlns="http://www.w3.org/2000/svg"
   xmlns:svg="http://www.w3.org/2000/svg">
  <sodipodi:namedview
     id="namedview1"
     pagecolor="#ffffff"
     bordercolor="#999999"
     borderopacity="1"
     inkscape:showpageshadow="2"
     inkscape:pageopacity="0"
     inkscape:pagecheckerboard="0"
     inkscape:deskcolor="#d1d1d1"
     inkscape:document-units="mm"
     inkscape:zoom="13.148994"
     inkscape:cx="13.461106"
     inkscape:cy="10.533125"
     inkscape:window-width="1707"
     inkscape:window-height="957"
     inkscape:window-x="0"
     inkscape:window-y="0"
     inkscape:window-maximized="1"
     inkscape:current-layer="layer1"
     showgrid="true">
    <inkscape:grid
       id="grid1"
       units="mm"
       originx="0"
       originy="0"
       spacingx="0.49999999"
       spacingy="0.49999999"
       empcolor="#0099e5"
       empopacity="0.30196078"
       color="#0099e5"
       opacity="0.14901961"
       empspacing="5"
       enabled="true"
       visible="true" />
  </sodipodi:namedview>
  <defs
     id="defs1" />
  <g
     inkscape:label="Layer 1"
     inkscape:groupmode="layer"
     id="layer1">
    <path
       d="M 3.9997559,0 A 4,4 0 0 0 0,3.9997559 4,4 0 0 0 3.9997559,8.0000285 4,4 0 0 0 8.0000285,3.9997559 4,4 0 0 0 3.9997559,0 Z m 0,0.50022786 A 3.5,3.5 0 0 1 7.4998006,3.9997559 3.5,3.5 0 0 1 3.9997559,7.4998006 3.5,3.5 0 0 1 0.50022786,3.9997559 3.5,3.5 0 0 1 3.9997559,0.50022786 Z"
       style="fill:#191413;stroke-width:0.499999;stroke-linecap:square;paint-order:stroke markers fill"
       id="path3" />
    <path
       d="M 3.9997559,0.99993896 A 3,3 0 0 0 0.99993896,3.9997559 3,3 0 0 0 3.9997559,7.0000895 3,3 0 0 0 7.0000895,3.9997559 3,3 0 0 0 3.9997559,0.99993896 Z M 3.6064982,2.9781128 c 0.1204151,0 0.2273531,0.026384 0.3214274,0.079065 0.094074,0.052682 0.1686791,0.1241462 0.2232422,0.2144572 0.054563,0.090311 0.081649,0.1951423 0.081649,0.313676 v 0.8635132 c 0,0.030104 0.00769,0.058409 0.022738,0.084749 0.015052,0.024459 0.033749,0.043859 0.056327,0.058911 0.024459,0.013171 0.050842,0.020154 0.079065,0.020154 0.030104,0 0.057189,-0.00698 0.081649,-0.020154 0.026341,-0.015052 0.04696,-0.034452 0.062012,-0.058911 0.015052,-0.026341 0.022738,-0.054645 0.022738,-0.084749 V 3.0122192 h 0.4599202 v 1.4024984 c 0,0.1166522 -0.027085,0.2214831 -0.081649,0.313676 -0.054563,0.092193 -0.129168,0.1643593 -0.2232421,0.217041 -0.094074,0.0508 -0.20031,0.075964 -0.3188436,0.075964 -0.1185337,0 -0.2247693,-0.025164 -0.3188436,-0.075964 C 3.9806124,4.8927528 3.9065244,4.8205864 3.8519613,4.7283936 3.7973982,4.6362007 3.7697957,4.5313698 3.7697957,4.4147176 V 3.5512044 c 0,-0.030104 -0.00717,-0.057189 -0.022221,-0.081649 -0.015052,-0.024459 -0.034969,-0.044376 -0.059428,-0.059428 -0.024459,-0.015052 -0.051545,-0.022738 -0.081649,-0.022738 -0.030104,0 -0.057706,0.00769 -0.082165,0.022738 -0.024459,0.015052 -0.043859,0.034968 -0.058911,0.059428 -0.013171,0.024459 -0.020154,0.051545 -0.020154,0.081649 V 4.9878092 H 2.9827637 V 3.5853109 c 0,-0.1185337 0.026384,-0.2233646 0.079065,-0.313676 0.054563,-0.090311 0.1286513,-0.1617755 0.2227254,-0.2144572 0.095956,-0.052681 0.2034105,-0.079065 0.3219442,-0.079065 z"
       style="fill:#191413;stroke-width:0.499999;stroke-linecap:square;paint-order:stroke markers fill"
       id="path4" />
  </g>
</svg>
