<?xml version="1.0" encoding="UTF-8" standalone="no"?>
<!-- Created with Inkscape (http://www.inkscape.org/) -->

<svg
   width="8mm"
   height="8mm"
   viewBox="0 0 8 8"
   version="1.1"
   id="svg1"
   inkscape:version="1.4.3 (0d15f75042, 2025-12-25)"
   sodipodi:docname="WaveBTN1.svg"
   xmlns:inkscape="http://www.inkscape.org/namespaces/inkscape"
   xmlns:sodipodi="http://sodipodi.sourceforge.net/DTD/sodipodi-0.dtd"
   xmlns="http://www.w3.org/2000/svg"
   xmlns:svg="http://www.w3.org/2000/svg">
  <sodipodi:namedview
     id="namedview1"
     pagecolor="#ffffff"
     bordercolor="#999999"
     borderopacity="1"
     inkscape:showpageshadow="2"
     inkscape:pageopacity="0"
     inkscape:pagecheckerboard="0"
     inkscape:deskcolor="#d1d1d1"
     inkscape:document-units="mm"
     inkscape:zoom="18.401125"
     inkscape:cx="21.629112"
     inkscape:cy="18.123892"
     inkscape:window-width="1707"
     inkscape:window-height="957"
     inkscape:window-x="0"
     inkscape:window-y="0"
     inkscape:window-maximized="1"
     inkscape:current-layer="layer1"
     showgrid="true">
    <inkscape:grid
       id="grid1"
       units="mm"
       originx="0"
       originy="0"
       spacingx="0.49999999"
       spacingy="0.49999999"
       empcolor="#0099e5"
       empopacity="0.30196078"
       color="#0099e5"
       opacity="0.14901961"
       empspacing="5"
       enabled="true"
       visible="true" />
  </sodipodi:namedview>
  <defs
     id="defs1" />
  <g
     inkscape:label="Layer 1"
     inkscape:groupmode="layer"
     id="layer1">
    <path
       d="M 3.9997559,0 A 4,4 0 0 0 0,3.9997559 4,4 0 0 0 3.9997559,8.0000285 4,4 0 0 0 8.0000285,3.9997559 4,4 0 0 0 3.9997559,0 Z m 0,0.50022786 A 3.5,3.5 0 0 1 7.4998006,3.9997559 3.5,3.5 0 0 1 3.9997559,7.4998006 3.5,3.5 0 0 1 0.50022786,3.9997559 3.5,3.5 0 0 1 3.9997559,0.50022786 Z"
       style="fill:#191413;stroke-width:0.499999;stroke-linecap:square;paint-order:stroke markers fill"
       id="path3" />
    <path
       d="M 3.9997559,0.99993896 C 2.3430446,1.00004 1.00004,2.3430446 0.99993896,3.9997559 0.99975471,5.6566689 2.3428429,6.9999884 3.9997559,7.0000895 5.6568707,7.0002738 7.0002738,5.6568707 7.0000895,3.9997559 6.9999884,2.3428429 5.6566689,0.99975471 3.9997559,0.99993896 Z M 5.3774495,2.3559285 h 0.2144572 c 0.04406,4.611e-4 0.084594,0.011999 0.1214397,0.034107 0.037629,0.022577 0.067339,0.052804 0.089917,0.090434 0.018219,0.030365 0.029039,0.062919 0.032556,0.098185 L 6.0461426,3.9222412 5.5578003,3.9956217 5.3836507,2.878894 5.3185384,2.9135173 5.1547241,3.0881836 c -0.010094,0.01362 -0.021649,0.025729 -0.034106,0.03669 L 4.9413005,3.3160767 c -0.00978,0.012911 -0.020613,0.024148 -0.032556,0.034623 L 4.7309774,3.5403524 c -0.00998,0.013389 -0.02131,0.025368 -0.03359,0.036173 l -0.1793172,0.190686 c -0.00978,0.012911 -0.020613,0.024665 -0.032556,0.03514 l -0.1793172,0.190686 c -0.00978,0.012911 -0.020613,0.024666 -0.032556,0.03514 l -0.1788005,0.190686 c -0.00963,0.012723 -0.020818,0.024266 -0.032556,0.034623 L 3.8829671,4.4446899 c -0.010228,0.013507 -0.021508,0.02585 -0.034106,0.03669 L 3.6710937,4.670516 c -0.010229,0.013509 -0.021506,0.025849 -0.034106,0.03669 L 3.4597371,4.896342 c -0.010227,0.013506 -0.021508,0.025851 -0.034106,0.03669 L 3.2478638,5.122168 c -0.010228,0.013507 -0.021507,0.02585 -0.034107,0.03669 L 3.0375407,5.3459269 C 3.0206645,5.36865 3.000547,5.38798 2.9770793,5.4032878 L 2.8246338,5.5453979 c -0.020294,0.026783 -0.04531,0.048304 -0.074931,0.064596 -0.036844,0.022107 -0.077379,0.033645 -0.1214397,0.034106 h -0.00258 -0.2118733 c -0.045155,0 -0.086393,-0.011528 -0.1240235,-0.034106 -0.037629,-0.020696 -0.066636,-0.049703 -0.087333,-0.087333 -0.016269,-0.027114 -0.02646,-0.05631 -0.031006,-0.087333 l -0.2118734,-1.4397054 0.4883423,-0.07338 0.1694987,1.1539347 0.020154,-0.01912 C 2.65182,5.036142 2.6694183,5.0177839 2.6897583,5.0022786 L 2.8489217,4.8317464 c 0.013997,-0.020686 0.031242,-0.038836 0.05116,-0.05426 0,0 5.167e-4,-5.168e-4 5.167e-4,-5.168e-4 L 3.0597616,4.6069539 c 0.014513,-0.021671 0.032265,-0.040904 0.053227,-0.056844 l 0.1586466,-0.168982 c 0.014117,-0.021079 0.031459,-0.03912 0.051677,-0.054777 0,0 5.167e-4,-5.168e-4 5.167e-4,-5.168e-4 l 0.160197,-0.1715657 c 0.014129,-0.020877 0.030999,-0.038744 0.05116,-0.05426 L 3.6948649,3.9294759 c 0.014252,-0.021281 0.031723,-0.03954 0.052193,-0.055294 L 3.9067383,3.7036499 c 0.014119,-0.021082 0.031455,-0.039119 0.051676,-0.054777 0,0 5.168e-4,-5.168e-4 5.168e-4,-5.168e-4 L 4.1180949,3.4778239 c 0.014252,-0.02128 0.031724,-0.03954 0.052193,-0.055294 L 4.330485,3.2514811 c 0.013998,-0.020687 0.031241,-0.038836 0.05116,-0.05426 0,0 5.168e-4,-5.168e-4 5.168e-4,-5.168e-4 l 0.1617472,-0.173116 c 0.013841,-0.019975 0.030147,-0.037731 0.049609,-0.05271 L 4.753715,2.7998291 c 0.014132,-0.020885 0.03151,-0.039256 0.051676,-0.054777 l 0.1591635,-0.1694987 5.167e-4,-5.168e-4 c 0.019598,-0.029263 0.045126,-0.053534 0.076481,-0.072347 0.016767,-0.010061 0.033931,-0.018194 0.052193,-0.023771 l 0.1312582,-0.069763 5.167e-4,-5.168e-4 c 0.00856,-0.00681 0.017706,-0.012794 0.027388,-0.018603 0.037629,-0.022578 0.079384,-0.034107 0.1245402,-0.034107 z"
       style="fill:#191413;stroke-width:0.499999;stroke-linecap:square;paint-order:stroke markers fill;fill-rule:nonzero"
       id="path1" />
    <path
       d="m 5.3774495,2.3559285 c -0.045156,0 -0.086911,0.011528 -0.1245402,0.034107 -0.00968,0.00581 -0.018828,0.011794 -0.027388,0.018603 l -5.167e-4,5.168e-4 -0.1312582,0.069763 c -0.018262,0.00558 -0.035426,0.01371 -0.052193,0.023771 -0.031355,0.018813 -0.056883,0.043084 -0.076481,0.072347 l -5.167e-4,5.168e-4 -0.1591635,0.1694987 c -0.020166,0.015521 -0.037544,0.033892 -0.051676,0.054777 l -0.1601969,0.171049 c -0.019462,0.014979 -0.035768,0.032735 -0.049609,0.05271 l -0.1617472,0.173116 -5.168e-4,5.168e-4 c -0.019919,0.015424 -0.037162,0.033573 -0.05116,0.05426 l -0.1601969,0.171049 c -0.020469,0.015754 -0.037941,0.034014 -0.052193,0.055294 l -0.1591634,0.1705322 -5.168e-4,5.168e-4 c -0.020221,0.015658 -0.037557,0.033695 -0.051676,0.054777 L 3.7470581,3.8741821 c -0.02047,0.015754 -0.037941,0.034013 -0.052193,0.055294 L 3.5351847,4.1000081 c -0.020161,0.015516 -0.037031,0.033383 -0.05116,0.05426 l -0.160197,0.1715657 -5.167e-4,5.168e-4 c -0.020218,0.015657 -0.037559,0.033698 -0.051677,0.054777 l -0.1586466,0.168982 c -0.020962,0.01594 -0.038714,0.035173 -0.053227,0.056844 l -0.1591635,0.1700155 -5.167e-4,5.168e-4 c -0.019918,0.015424 -0.037163,0.033574 -0.05116,0.05426 L 2.6897583,5.0022786 c -0.02034,0.015505 -0.037942,0.033862 -0.052193,0.054777 l -0.020154,0.01912 -0.1694987,-1.1539347 -0.4883423,0.07338 0.2118734,1.4397054 c 0.00455,0.031023 0.014737,0.060219 0.031006,0.087333 0.020697,0.03763 0.049704,0.066637 0.087333,0.087333 0.037631,0.022578 0.078869,0.034106 0.1240235,0.034106 h 0.2118733 0.00258 c 0.044061,-4.61e-4 0.084596,-0.011999 0.1214397,-0.034106 0.029621,-0.016292 0.054637,-0.037813 0.074931,-0.064596 L 2.9770793,5.4032878 C 3.000547,5.38798 3.0206645,5.36865 3.0375407,5.3459269 L 3.2137573,5.1588582 c 0.0126,-0.01084 0.023878,-0.023183 0.034107,-0.03669 L 3.4256307,4.9330322 c 0.012598,-0.010839 0.023879,-0.023184 0.034106,-0.03669 L 3.6369873,4.7072062 c 0.0126,-0.010841 0.023877,-0.023181 0.034106,-0.03669 l 0.177767,-0.1891358 c 0.012598,-0.01084 0.023878,-0.023183 0.034106,-0.03669 L 4.0622843,4.2534871 c 0.011738,-0.010357 0.022926,-0.0219 0.032556,-0.034623 L 4.273641,4.0281779 c 0.011943,-0.010474 0.022776,-0.022229 0.032556,-0.03514 l 0.1793172,-0.190686 c 0.011943,-0.010475 0.022776,-0.022229 0.032556,-0.03514 l 0.1793172,-0.190686 c 0.01228,-0.010805 0.02361,-0.022785 0.03359,-0.036173 L 4.9087443,3.3506999 c 0.011943,-0.010475 0.022776,-0.021712 0.032556,-0.034623 L 5.1206177,3.1248739 c 0.012457,-0.010961 0.024012,-0.02307 0.034106,-0.03669 L 5.3185384,2.9135173 5.3836507,2.878894 5.5578003,3.9956217 6.0461426,3.9222412 5.8358195,2.578654 C 5.8323025,2.543388 5.8214823,2.5108338 5.8032633,2.4804687 5.7806853,2.4428387 5.7509754,2.412612 5.7133464,2.390035 5.6765007,2.367927 5.6359667,2.3563896 5.5919067,2.3559285 Z"
       style="fill:#d9d9d8;stroke-linecap:round;stroke-linejoin:round;paint-order:stroke markers fill"
       id="path2" />
  </g>
</svg>
