<?xml version="1.0" encoding="UTF-8" standalone="no"?>
<!-- Created with Inkscape (http://www.inkscape.org/) -->

<svg
   width="8mm"
   height="8mm"
   viewBox="0 0 8 8"
   version="1.1"
   id="svg1"
   inkscape:version="1.4.3 (0d15f75042, 2025-12-25)"
   sodipodi:docname="WaveBTN2.svg"
   xmlns:inkscape="http://www.inkscape.org/namespaces/inkscape"
   xmlns:sodipodi="http://sodipodi.sourceforge.net/DTD/sodipodi-0.dtd"
   xmlns="http://www.w3.org/2000/svg"
   xmlns:svg="http://www.w3.org/2000/svg">
  <sodipodi:namedview
     id="namedview1"
     pagecolor="#ffffff"
     bordercolor="#999999"
     borderopacity="1"
     inkscape:showpageshadow="2"
     inkscape:pageopacity="0"
     inkscape:pagecheckerboard="0"
     inkscape:deskcolor="#d1d1d1"
     inkscape:document-units="mm"
     inkscape:zoom="11.019492"
     inkscape:cx="26.407751"
     inkscape:cy="25.908635"
     inkscape:window-width="1707"
     inkscape:window-height="957"
     inkscape:window-x="0"
     inkscape:window-y="0"
     inkscape:window-maximized="1"
     inkscape:current-layer="layer1"
     showgrid="true">
    <inkscape:grid
       id="grid1"
       units="mm"
       originx="0"
       originy="0"
       spacingx="0.49999999"
       spacingy="0.49999999"
       empcolor="#0099e5"
       empopacity="0.30196078"
       color="#0099e5"
       opacity="0.14901961"
       empspacing="5"
       enabled="true"
       visible="true" />
  </sodipodi:namedview>
  <defs
     id="defs1" />
  <g
     inkscape:label="Layer 1"
     inkscape:groupmode="layer"
     id="layer1">
    <path
       d="M 3.9997559,0 A 4,4 0 0 0 0,3.9997559 4,4 0 0 0 3.9997559,8.0000285 4,4 0 0 0 8.0000285,3.9997559 4,4 0 0 0 3.9997559,0 Z m 0,0.50022786 A 3.5,3.5 0 0 1 7.4998006,3.9997559 3.5,3.5 0 0 1 3.9997559,7.4998006 3.5,3.5 0 0 1 0.50022786,3.9997559 3.5,3.5 0 0 1 3.9997559,0.50022786 Z"
       style="fill:#191413;stroke-width:0.499999;stroke-linecap:square;paint-order:stroke markers fill"
       id="path3" />
    <path
       d="M 3.9997559,0.99993896 C 2.3430446,1.00004 1.00004,2.3430446 0.99993896,3.9997559 0.99975471,5.6566689 2.3428429,6.9999884 3.9997559,7.0000895 5.6568707,7.0002738 7.0002738,5.6568707 7.0000895,3.9997559 6.9999884,2.3428429 5.6566689,0.99975471 3.9997559,0.99993896 Z M 4.104659,2.3559285 H 4.3160156 4.527889 4.7392456 4.951119 5.1629924 5.374349 5.5888062 c 0.045156,0 0.086911,0.011528 0.1245402,0.034107 0.03763,0.022578 0.066637,0.052805 0.087333,0.090434 0.016342,0.027236 0.026492,0.056155 0.031006,0.087333 L 6.0435588,3.9222412 5.5552165,3.9956217 5.3758993,2.8499552 H 5.374349 5.1655762 5.1629924 4.9537028 4.951119 4.7392456 4.5304728 4.527889 4.3356527 L 4.1413493,5.4182739 h -0.00103 c -0.00283,0.037564 -0.013819,0.072297 -0.033073,0.1043864 -0.020697,0.03763 -0.049704,0.066637 -0.087333,0.087333 -0.03763,0.022578 -0.079385,0.034106 -0.1245402,0.034106 H 3.6834961 3.6809123 3.4721395 3.4695557 3.2602661 3.2576823 3.0463257 2.8370361 2.8344523 2.6251628 2.6225789 2.4138062 2.4112223 C 2.3671618,5.6436389 2.326627,5.6321006 2.2897827,5.6099935 2.2521527,5.5892965 2.221926,5.5602893 2.199349,5.5226603 2.1811432,5.4923174 2.1703184,5.459711 2.1667928,5.4244751 L 1.9564697,3.9956217 2.444812,3.9222412 2.6256795,5.1500732 H 2.8344523 3.0463257 3.2576823 3.4695557 3.6643758 L 3.8586792,2.5848551 h 0.00103 c 0.00283,-0.037564 0.013818,-0.072296 0.033073,-0.1043864 0.022578,-0.03763 0.052805,-0.067857 0.090434,-0.090434 0.036845,-0.022107 0.07738,-0.033645 0.1214396,-0.034107 z"
       style="fill:#191413;stroke-width:0.499999;stroke-linecap:square;paint-order:stroke markers fill"
       id="path1" />
  </g>
</svg>
