<?xml version="1.0" encoding="UTF-8" standalone="no"?>
<!-- Created with Inkscape (http://www.inkscape.org/) -->

<svg
   width="76.199997mm"
   height="128.5mm"
   viewBox="0 0 76.199997 128.5"
   version="1.1"
   id="svg1"
   inkscape:version="1.4.2 (f4327f4, 2025-05-13)"
   sodipodi:docname="Ivory.svg"
   xmlns:inkscape="http://www.inkscape.org/namespaces/inkscape"
   xmlns:sodipodi="http://sodipodi.sourceforge.net/DTD/sodipodi-0.dtd"
   xmlns="http://www.w3.org/2000/svg"
   xmlns:svg="http://www.w3.org/2000/svg">
  <sodipodi:namedview
     id="namedview1"
     pagecolor="#ffffff"
     bordercolor="#000000"
     borderopacity="0.25"
     inkscape:showpageshadow="2"
     inkscape:pageopacity="0.0"
     inkscape:pagecheckerboard="0"
     inkscape:deskcolor="#d1d1d1"
     inkscape:document-units="mm"
     showgrid="true"
     inkscape:zoom="4.0000001"
     inkscape:cx="28.999999"
     inkscape:cy="91.124998"
     inkscape:window-width="2560"
     inkscape:window-height="1494"
     inkscape:window-x="-11"
     inkscape:window-y="-11"
     inkscape:window-maximized="1"
     inkscape:current-layer="layer1">
    <inkscape:grid
       id="grid1"
       units="mm"
       originx="0"
       originy="0"
       spacingx="1.27"
       spacingy="0.50000001"
       empcolor="#0099e5"
       empopacity="0.30196078"
       color="#0099e5"
       opacity="0.14901961"
       empspacing="4"
       enabled="true"
       visible="true" />
  </sodipodi:namedview>
  <defs
     id="defs1">
    <inkscape:path-effect
       effect="fillet_chamfer"
       id="path-effect4"
       is_visible="true"
       lpeversion="1"
       nodesatellites_param="F,0,0,1,0,0.5000005,0,1 @ F,0,0,1,0,0,0,1 @ F,0,0,1,0,0,0,1 @ F,0,0,1,0,0,0,1 @ F,0,0,1,0,0.22490017,0,1 @ F,0,0,1,0,0.50000064,0,1 @ F,0,0,1,0,0.50000064,0,1 @ F,0,0,1,0,0,0,1 @ F,0,0,1,0,0,0,1 @ F,0,0,1,0,0,0,1 @ F,0,0,1,0,0,0,1 @ F,0,0,1,0,0.5000005,0,1"
       radius="0"
       unit="px"
       method="auto"
       mode="F"
       chamfer_steps="1"
       flexible="false"
       use_knot_distance="true"
       apply_no_radius="true"
       apply_with_radius="true"
       only_selected="false"
       hide_knots="false" />
    <inkscape:path-effect
       effect="fillet_chamfer"
       id="path-effect3"
       is_visible="true"
       lpeversion="1"
       nodesatellites_param="F,0,0,1,0,0.5000005,0,1 @ F,0,0,1,0,0,0,1 @ F,0,0,1,0,0,0,1 @ F,0,0,1,0,0,0,1 @ F,0,0,1,0,0,0,1 @ F,0,0,1,0,0,0,1 @ F,0,0,1,0,0,0,1 @ F,0,0,1,0,0,0,1 @ F,0,0,1,0,0,0,1 @ F,0,0,1,0,0,0,1 @ F,0,0,1,0,0,0,1 @ F,0,0,1,0,0,0,1"
       radius="0"
       unit="px"
       method="auto"
       mode="F"
       chamfer_steps="1"
       flexible="false"
       use_knot_distance="true"
       apply_no_radius="true"
       apply_with_radius="true"
       only_selected="false"
       hide_knots="false" />
    <inkscape:path-effect
       effect="fillet_chamfer"
       id="path-effect9"
       is_visible="true"
       lpeversion="1"
       nodesatellites_param="F,0,0,1,0,0.49999961,0,1 @ F,0,0,1,0,0.49999961,0,1 @ F,0,0,1,0,0.50000056,0,1 @ F,0,0,1,0,0.50000056,0,1"
       radius="0"
       unit="px"
       method="auto"
       mode="F"
       chamfer_steps="1"
       flexible="false"
       use_knot_distance="true"
       apply_no_radius="true"
       apply_with_radius="true"
       only_selected="false"
       hide_knots="false" />
  </defs>
  <g
     inkscape:label="Layer 1"
     inkscape:groupmode="layer"
     id="layer1">
    <rect
       style="fill:#ffffff;fill-opacity:1;stroke-width:0.499999;stroke-linejoin:round;stroke-dasharray:1, 0.499999;paint-order:stroke fill markers"
       id="rect2"
       width="76.199997"
       height="128.5"
       x="0"
       y="0"
       sodipodi:insensitive="true" />
    <rect
       style="fill:#00ff00;fill-opacity:1;stroke:none;stroke-width:0.499998;stroke-opacity:1"
       id="rect1"
       width="76.200005"
       height="5"
       x="0"
       y="-1.9073486e-06" />
    <rect
       style="fill:#00ff00;fill-opacity:1;stroke:none;stroke-width:0.499998;stroke-opacity:1"
       id="rect1-8"
       width="76.200005"
       height="5"
       x="0"
       y="123.5" />
    <path
       d="m 3.8100001,9.4999998 v 0.4260928 0.9260894 64.795639 0.701193 0.650984 a 0.50000064,0.50000064 45 0 0 0.5000006,0.500001 l 67.5800003,0 a 0.50000064,0.50000064 135 0 0 0.500001,-0.500001 l 0,-1.352177 h -9.9e-4 V 10.852182 h 9.9e-4 V 9.4999998 A 0.5000005,0.5000005 45 0 0 71.890001,8.9999993 H 4.3100006 A 0.5000005,0.5000005 135 0 0 3.8100001,9.4999998 Z"
       style="baseline-shift:baseline;display:inline;overflow:visible;vector-effect:none;fill:#191413;fill-opacity:1;stroke-width:0.999415;enable-background:accumulate;stop-color:#000000"
       id="path48"
       inkscape:path-effect="#path-effect4"
       inkscape:original-d="m 3.8100001,8.9999993 v 0.9260933 0.9260894 64.795639 0.926093 0.926085 H 72.390002 v -1.852178 h -9.9e-4 V 10.852182 h 9.9e-4 V 8.9999993 Z"
       transform="matrix(1,0,0,1.0011679,0,-0.01051099)" />
    <g
       id="g9"
       inkscape:label="bottom screw"
       style="clip-rule:evenodd;display:inline;fill-rule:evenodd;stroke-linejoin:bevel;stroke-miterlimit:1.5"
       transform="translate(1.3505859e-6,-0.02020253)">
      <path
         style="baseline-shift:baseline;display:inline;overflow:visible;opacity:1;vector-effect:none;fill:#ffffff;fill-opacity:1;stroke-linejoin:round;enable-background:accumulate;stop-color:#000000;stop-opacity:1"
         d="m 2.7109375,124.15234 c -1.0904358,0 -1.984375,0.89357 -1.984375,1.98438 0,1.09081 0.8939359,1.98437 1.984375,1.98437 h 3.6308594 c 1.0904391,0 1.984375,-0.89368 1.984375,-1.98437 0,-1.0907 -0.8939392,-1.98438 -1.984375,-1.98438 z m 0,0.85352 h 3.6308594 c 0.6282982,0 1.1308594,0.50211 1.1308593,1.13086 0,0.62874 -0.5025644,1.13086 -1.1308593,1.13086 H 2.7109375 c -0.6282949,0 -1.1308594,-0.50223 -1.1308594,-1.13086 0,-0.62863 0.5025612,-1.13086 1.1308594,-1.13086 z"
         id="path35-7" />
      <path
         d="m 1.6446495,127.27341 c -0.3030361,-0.28434 -0.492125,-0.68827 -0.492125,-1.13594 0,-0.24412 0.056092,-0.47555 0.1566334,-0.68122 0.123825,-0.25435 0.3150305,-0.4699 0.5503333,-0.62371 0.244475,-0.15945 0.536575,-0.25259 0.8501945,-0.25259 h 3.6322001 c 0.3136195,0 0.6057195,0.0931 0.8501945,0.25259 0.099483,0.0653 0.1908528,0.14111 0.27305,0.22649 0.1118305,0.11641 0.2056694,0.25047 0.2772833,0.39722 0.1005417,0.20567 0.1569861,0.4371 0.1569861,0.68122 0,0.41839 -0.1654527,0.79869 -0.4342694,1.07844 -0.01905,0.0197 -0.038453,0.0388 -0.058208,0.0575 -0.1460501,0.13688 -0.3185584,0.24624 -0.5087056,0.31927 -0.1728611,0.066 -0.3605389,0.1023 -0.5563306,0.1023 H 2.7096857 c -0.1957917,0 -0.3834695,-0.0363 -0.5563306,-0.1023 -0.1901472,-0.073 -0.3626556,-0.18239 -0.5087056,-0.31927 z"
         style="fill:#00ff00;fill-opacity:1;stroke-width:0.352778"
         id="path16-8" />
      <rect
         x="0"
         y="123.5202"
         width="8.609189"
         height="4.9798112"
         style="fill:#ffffff;fill-opacity:0;stroke-width:0.352778"
         id="rect23-7" />
    </g>
    <g
       id="g9-2"
       inkscape:label="bottom screw"
       style="clip-rule:evenodd;display:inline;fill-rule:evenodd;stroke-linejoin:bevel;stroke-miterlimit:1.5"
       transform="translate(1.3505859e-6,-123.5202)">
      <path
         style="baseline-shift:baseline;display:inline;overflow:visible;opacity:1;vector-effect:none;fill:#ffffff;fill-opacity:1;stroke-linejoin:round;enable-background:accumulate;stop-color:#000000;stop-opacity:1"
         d="m 2.7109375,124.15234 c -1.0904358,0 -1.984375,0.89357 -1.984375,1.98438 0,1.09081 0.8939359,1.98437 1.984375,1.98437 h 3.6308594 c 1.0904391,0 1.984375,-0.89368 1.984375,-1.98437 0,-1.0907 -0.8939392,-1.98438 -1.984375,-1.98438 z m 0,0.85352 h 3.6308594 c 0.6282982,0 1.1308594,0.50211 1.1308593,1.13086 0,0.62874 -0.5025644,1.13086 -1.1308593,1.13086 H 2.7109375 c -0.6282949,0 -1.1308594,-0.50223 -1.1308594,-1.13086 0,-0.62863 0.5025612,-1.13086 1.1308594,-1.13086 z"
         id="path35-7-3" />
      <path
         d="m 1.6450546,127.27266 c -0.3030361,-0.28434 -0.492125,-0.68827 -0.492125,-1.13594 0,-0.24412 0.056092,-0.47555 0.1566334,-0.68122 0.123825,-0.25435 0.3150305,-0.4699 0.5503333,-0.62371 0.244475,-0.15945 0.536575,-0.25259 0.8501945,-0.25259 h 3.6322001 c 0.3136195,0 0.6057195,0.0931 0.8501945,0.25259 0.099483,0.0653 0.1908528,0.14111 0.27305,0.22649 0.1118305,0.11641 0.2056694,0.25047 0.2772833,0.39722 0.1005417,0.20567 0.1569861,0.4371 0.1569861,0.68122 0,0.41839 -0.1654527,0.79869 -0.4342694,1.07844 -0.01905,0.0197 -0.038453,0.0388 -0.058208,0.0575 -0.1460501,0.13688 -0.3185584,0.24624 -0.5087056,0.31927 -0.1728611,0.066 -0.3605389,0.1023 -0.5563306,0.1023 H 2.7100908 c -0.1957917,0 -0.3834695,-0.0363 -0.5563306,-0.1023 -0.1901472,-0.073 -0.3626556,-0.18239 -0.5087056,-0.31927 z"
         style="fill:#00ff00;fill-opacity:1;stroke-width:0.352778"
         id="path16-8-2" />
      <rect
         x="0"
         y="123.5202"
         width="8.609189"
         height="4.9798112"
         style="fill:#ffffff;fill-opacity:0;stroke-width:0.352778"
         id="rect23-2" />
    </g>
    <g
       id="g8"
       inkscape:label="top screw"
       style="clip-rule:evenodd;display:inline;fill-rule:evenodd;stroke-linejoin:bevel;stroke-miterlimit:1.5"
       transform="translate(50.800001)">
      <path
         d="m 19.167747,0.59789632 c -1.090437,0 -1.984375,0.89356318 -1.984375,1.98437498 0,1.0908117 0.893937,1.9843751 1.984375,1.984375 h 3.632854 c 1.090438,0 1.984375,-0.8936802 1.984375,-1.984375 0,-1.0906949 -0.893938,-1.98437498 -1.984375,-1.98437498 z m 0,0.85317788 h 3.632854 c 0.628297,0 1.131197,0.5024529 1.131197,1.1311971 0,0.6287441 -0.5029,1.1306804 -1.131197,1.1306804 h -3.632854 c -0.628297,0 -1.128613,-0.5020532 -1.128613,-1.1306804 0,-0.6286273 0.500316,-1.1311971 1.128613,-1.1311971 z"
         style="baseline-shift:baseline;clip-rule:nonzero;display:inline;overflow:visible;opacity:1;vector-effect:none;fill:#ffffff;fill-opacity:1;fill-rule:nonzero;stroke-linejoin:round;enable-background:accumulate;stop-color:#000000;stop-opacity:1"
         id="path56" />
      <path
         d="m 23.865487,3.7182157 c 0.303036,-0.2843389 0.492125,-0.6882695 0.492125,-1.1359445 0,-0.244475 -0.05609,-0.4755444 -0.156633,-0.6815667 -0.123825,-0.254 -0.315032,-0.4695472 -0.550334,-0.6233583 C 23.406169,1.1175378 23.11407,1.0247573 22.80045,1.0247573 h -3.6322 c -0.31362,0 -0.60572,0.09278 -0.850195,0.2525889 -0.09948,0.064911 -0.190852,0.1411111 -0.27305,0.2264833 -0.11183,0.1164167 -0.205669,0.2504722 -0.277283,0.396875 -0.100542,0.2060223 -0.156986,0.4370917 -0.156986,0.6815667 0,0.4183945 0.165453,0.7983362 0.434269,1.0784417 0.01905,0.019756 0.03845,0.038806 0.05821,0.057503 0.14605,0.1368778 0.318558,0.2462389 0.508705,0.3189111 0.172861,0.066322 0.360539,0.1026584 0.556331,0.1026584 h 3.6322 c 0.195792,0 0.383469,-0.036336 0.55633,-0.1026584 0.190148,-0.072672 0.362656,-0.1820333 0.508706,-0.3189113 z"
         style="fill:#00ff00;fill-opacity:1;stroke-width:0.352778"
         id="path37-2" />
      <rect
         x="16.790812"
         y="0"
         width="8.609189"
         height="4.9798112"
         style="fill:#ffffff;fill-opacity:0;stroke-width:0.352778"
         id="rect44" />
    </g>
    <g
       style="clip-rule:evenodd;display:inline;fill:#74256e;fill-opacity:1;fill-rule:evenodd;stroke-linecap:round;stroke-linejoin:round;stroke-miterlimit:1.5"
       id="g10"
       transform="matrix(0.05509963,0,0,0.05509963,34.801243,123.67321)">
      <path
         d="M 59.840688,0.00686127 A 1.250125,1.250125 0 0 0 58.602696,1.0572786 c 0,0 -0.480288,3.1089986 -1.266128,6.3400186 -0.39292,1.6155 -0.864435,3.2575768 -1.359915,4.5111668 -0.437769,1.10761 -1.056335,1.845287 -1.125447,1.969533 h 0.0094 v 0.0094 0.0094 h -0.0094 v -0.0094 -0.0094 c -0.09287,-0.03177 -0.713882,-0.06516 -1.54749,-0.497073 -0.96702,-0.50104 -2.153027,-1.32871 -3.263797,-2.204 -2.22155,-1.7506003 -4.164154,-3.6670821 -4.164154,-3.6670821 a 1.250125,1.250125 0 0 0 -1.98829,1.47246 c 0,0 1.19238,2.2730991 2.06332,4.6424691 0.43547,1.18469 0.783701,2.399179 0.872221,3.245039 0.0443,0.42293 0.009,0.740512 -0.02814,0.872222 v 0.0094 0.0094 c 0.02531,-0.0044 0.04635,-0.0082 0.05627,-0.0094 l -0.0094,0.0094 c -0.0168,0.01379 -0.03753,0.0373 -0.04689,0.04689 h -0.0094 v -0.0094 c 0.0017,-0.0082 0.0055,-0.02332 0.0094,-0.03752 -0.126888,0.02183 -0.439372,0.07166 -0.834707,0.06565 -0.55305,-0.008 -1.287542,-0.0831 -2.119592,-0.206332 -1.66408,-0.24648 -3.714016,-0.68666 -5.692886,-1.17234 -3.95774,-0.97135 -7.624904,-2.100835 -7.624904,-2.100835 a 1.250125,1.250125 0 0 0 -1.022281,2.260273 c 0,0 3.047465,1.886626 5.993005,4.079746 1.47277,1.09656 2.91609,2.268615 3.90155,3.273175 0.49273,0.50229 0.863926,0.967534 1.059796,1.294264 0.07556,0.126051 0.120052,0.228519 0.140681,0.290741 0.01539,-0.01827 0.02874,-0.03662 0.03751,-0.04689 l 0.0094,-0.0094 v -0.0094 h 0.0094 v 0.0094 c -0.0015,0.01033 -0.0041,0.03334 -0.0094,0.05627 -0.009,0.03959 -0.01554,0.06653 -0.01876,0.07503 h -0.0094 v -0.0094 c -0.0039,-0.01321 -0.01055,-0.04089 -0.01876,-0.06565 -0.05397,0.06406 -0.156472,0.170852 -0.318876,0.29074 -0.34764,0.25668 -0.907904,0.56967 -1.594384,0.8816 -1.37297,0.62387 -3.240538,1.254076 -5.092648,1.800716 -3.70421,1.09327 -7.352921,1.866366 -7.352921,1.866366 a 1.250125,1.250125 0 0 0 0.234468,2.475984 c 0,0 3.457926,0.0466 6.799576,0.422043 1.67082,0.1877 3.320514,0.471609 4.389244,0.815949 0.41303,0.13308 0.618872,0.251211 0.797192,0.356391 -0.0783,0.11759 -0.102605,0.184851 -0.403285,0.506451 -0.45031,0.48164 -1.104193,1.092752 -1.894503,1.753822 -1.58063,1.32214 -3.680048,2.87253 -5.758538,4.34235 -4.15698,2.93963 -8.253278,5.552206 -8.253278,5.552206 a 1.250125,1.250125 0 0 0 1.125447,2.222758 c 0,0 4.306764,-1.656307 8.797244,-3.038707 2.24524,-0.6912 4.535954,-1.306831 6.302504,-1.613141 0.88327,-0.15316 1.640301,-0.224062 2.128971,-0.206332 0.112103,0.0041 0.200193,0.01325 0.271983,0.02814 0.003,-0.0927 0.0016,-0.156367 0,-0.187574 v -0.0094 -0.0094 h 0.0094 c 0.01523,0.01771 0.04407,0.06896 0.09379,0.131302 0.03942,0.04943 0.06789,0.08258 0.08441,0.103166 l 0.0094,0.0094 0.0094,0.0094 v 0.0094 h -0.0094 c -0.03055,-0.009 -0.106521,-0.03752 -0.196953,-0.05627 -0.0023,0.07069 -0.0074,0.156967 -0.02814,0.262604 -0.0935,0.47502 -0.333827,1.196486 -0.684647,2.016426 -0.70165,1.63987 -1.83213,3.713632 -3.01995,5.730402 -2.37563,4.03353 -4.970725,7.831236 -4.970725,7.831236 a 1.250125,1.250125 0 0 0 1.913261,1.585005 c 0,0 3.121915,-3.12437 6.433805,-5.96487 1.65595,-1.42024 3.367575,-2.769993 4.679985,-3.582673 0.57726,-0.35745 1.024317,-0.55591 1.341157,-0.66589 0.0286,0.13608 0.02464,0.102451 0.02814,0.506451 0.006,0.6866 -0.07131,1.646246 -0.215711,2.757346 -0.28876,2.2222 -0.838004,5.048578 -1.444324,7.812478 -1.21265,5.5278 -2.644801,10.813671 -2.644801,10.813671 a 1.250125,1.250125 0 0 0 2.335303,0.862843 c 0,0 2.308777,-4.847985 4.951967,-9.678845 1.32159,-2.41543 2.727565,-4.832454 3.939065,-6.593244 0.60575,-0.88039 1.171362,-1.598722 1.603762,-2.044562 0.06442,-0.06643 0.09303,-0.103371 0.103166,-0.121924 v -0.0094 l 0.0094,-0.0094 v -0.0094 l 0.0094,-0.0094 h 0.0094 c 0.0075,-0.0042 0.0146,-0.01044 0.02814,-0.01876 0.0286,0.0603 0.04523,0.05884 0.07503,0.131302 0.25499,0.61975 0.54224,1.648796 0.80657,2.898026 0.52866,2.49847 0.997333,5.907644 1.378673,9.322454 0.76269,6.82964 1.181719,13.683561 1.181719,13.683561 a 1.250125,1.250125 0 0 0 2.494741,0 c 0,0 0.428408,-6.853921 1.191098,-13.683561 0.38134,-3.41481 0.850013,-6.823984 1.378673,-9.322454 0.26433,-1.24923 0.55159,-2.278276 0.80657,-2.898026 0.0298,-0.0724 0.03695,-0.07104 0.06565,-0.131302 0.01353,0.0083 0.03003,0.01459 0.03751,0.01876 l 0.0094,0.0094 v 0.0094 h 0.0094 v 0.0094 0.0094 l 0.0094,0.0094 c 0.01013,0.01857 0.02925,0.0463 0.09379,0.112545 0.4324,0.44584 0.998012,1.164172 1.603762,2.044562 1.2115,1.76079 2.617465,4.177814 3.939065,6.593244 2.64319,4.83086 4.951967,9.678845 4.951967,9.678845 a 1.250125,1.250125 0 0 0 2.335303,-0.862843 c 0,0 -1.422522,-5.285871 -2.635422,-10.813671 -0.60644,-2.7639 -1.164853,-5.590278 -1.453703,-7.812478 -0.14443,-1.1111 -0.22172,-2.070756 -0.21571,-2.757346 0.004,-0.40409 -1.64e-4,-0.370401 0.02814,-0.506451 0.31693,0.10999 0.763848,0.30845 1.341158,0.66589 1.31254,0.81267 3.023984,2.162433 4.679984,3.582673 3.31201,2.84049 6.433806,5.96487 6.433806,5.96487 a 1.250125,1.250125 0 0 0 1.922639,-1.585005 c 0,0 -2.604474,-3.797706 -4.980104,-7.831236 -1.18782,-2.01677 -2.31831,-4.090532 -3.01995,-5.730402 -0.35082,-0.81994 -0.591167,-1.541406 -0.684647,-2.016426 -0.02083,-0.10581 -0.02589,-0.191854 -0.02814,-0.262604 -0.105962,0.02189 -0.172474,0.05099 -0.196953,0.05627 h -0.0094 v -0.0094 l 0.0094,-0.0094 c 0.01662,-0.02058 0.05428,-0.063 0.09379,-0.112545 0.03975,-0.04985 0.06785,-0.09129 0.08441,-0.112544 l 0.0094,-0.0094 v -0.0094 h 0.0094 v 0.0094 c -0.0016,0.03114 -0.0029,0.104376 0,0.196953 0.07138,-0.01474 0.160749,-0.02411 0.271983,-0.02814 0.48868,-0.0177 1.245691,0.0532 2.128971,0.206332 1.76655,0.30631 4.057264,0.921941 6.302504,1.613141 4.49049,1.3824 8.797245,3.038707 8.797245,3.038707 a 1.250125,1.250125 0 0 0 1.125447,-2.222758 c 0,0 -4.096309,-2.612576 -8.253279,-5.552206 -2.07849,-1.46982 -4.168529,-3.02021 -5.749159,-4.34235 -0.79031,-0.66107 -1.46295,-1.272182 -1.91326,-1.753822 -0.30105,-0.322 -0.315786,-0.389181 -0.393906,-0.506451 0.17832,-0.10518 0.384161,-0.223311 0.797191,-0.356391 1.06873,-0.34434 2.718424,-0.628249 4.389244,-0.815949 3.34164,-0.37542 6.799576,-0.422043 6.799576,-0.422043 a 1.250125,1.250125 0 0 0 0.234468,-2.475984 c 0,0 -3.648711,-0.773096 -7.352921,-1.866366 -1.8521,-0.54664 -3.719688,-1.176846 -5.092648,-1.800716 -0.68648,-0.31193 -1.246733,-0.62492 -1.594383,-0.8816 -0.162405,-0.119911 -0.264906,-0.226683 -0.318877,-0.29074 -10e-4,0.0031 -0.0074,0.02255 -0.0094,0.02814 -4.14e-4,0.0047 4.21e-4,0.0148 0,0.01876 v 0.0094 l -0.0094,0.0094 v 0.0094 h -0.0094 v -0.0094 c -9.74e-4,-0.01302 -0.0026,-0.03597 -0.0094,-0.06565 v -0.0094 l -0.0094,-0.0094 v -0.0094 l -0.0094,-0.0094 v -0.0094 -0.0094 -0.0094 h 0.0094 l 0.0094,0.0094 c 0.0045,0.0066 0.02205,0.02767 0.02814,0.03751 v 0.0094 l 0.0094,0.0094 c 0.02063,-0.06222 0.06513,-0.1647 0.140681,-0.290741 0.19586,-0.32673 0.567116,-0.791974 1.059796,-1.294264 0.98536,-1.00456 2.438289,-2.176625 3.910929,-3.273175 2.94529,-2.19311 5.983627,-4.079746 5.983627,-4.079746 a 1.250125,1.250125 0 0 0 -1.022281,-2.260273 c 0,0 -3.667295,1.129495 -7.624905,2.100835 -1.9788,0.48568 -4.028756,0.92587 -5.692886,1.17234 -0.83207,0.12324 -1.566472,0.197962 -2.119592,0.206332 -0.395557,0.0057 -0.707909,-0.04392 -0.834707,-0.06565 v 0.0094 h 0.0094 v 0.0094 0.0094 0.0094 0.0094 h -0.0094 l -0.0094,-0.0094 -0.0094,-0.0094 v -0.0094 l -0.0094,-0.0094 -0.0094,-0.0094 h -0.0094 l -0.0094,-0.0094 c 0.0099,0.0012 0.03102,0.0051 0.05627,0.0094 v -0.0094 -0.0094 c -0.0371,-0.13174 -0.07244,-0.449252 -0.02814,-0.872222 0.0887,-0.84593 0.436692,-2.060329 0.872222,-3.245039 0.87108,-2.36941 2.063319,-4.6424691 2.063319,-4.6424691 a 1.250125,1.250125 0 0 0 -1.98829,-1.47246 c 0,0 -1.951833,1.9164618 -4.173533,3.6670821 -1.11084,0.8753 -2.287427,1.70295 -3.254417,2.204 -0.833311,0.431784 -1.45451,0.465208 -1.54749,0.497073 v 0.0094 0.0094 h -0.0094 v -0.0094 -0.0094 h 0.0094 C 64.760751,13.75343 64.142356,13.015731 63.704723,11.908464 63.209253,10.654874 62.737727,9.0127972 62.344807,7.3972972 61.558977,4.1662772 61.078679,1.0572886 61.078679,1.0572786 A 1.250125,1.250125 0 0 0 59.840688,0.00686127 Z"
         style="baseline-shift:baseline;clip-rule:nonzero;display:inline;overflow:visible;vector-effect:none;fill:#ffffff;fill-opacity:1;fill-rule:nonzero;stroke-linecap:butt;stroke-linejoin:miter;enable-background:accumulate;stop-color:#000000;stop-opacity:1"
         id="path49-9" />
      <g
         transform="matrix(0.643502,0,0,0.437248,-257.259,-115.696)"
         id="g2"
         style="fill:#74256e;fill-opacity:1">
        <path
           d="m 553.506,332.882 c -0.963,-13.365 2.082,-65.421 2.082,-65.421 h 2.815 c 0,0 2.8,58.421 3.924,58.421 1.124,0 2.821,-58.421 2.821,-58.421 h 3.343 c 0,0 1.697,58.421 2.821,58.421 1.124,0 3.924,-58.421 3.924,-58.421 h 2.816 c 0,0 3.655,52.056 2.081,65.421 -0.879,7.473 -7.188,7.275 -7.859,14.769 -2.149,24.003 2.624,27.381 2.624,75.246 0,5.316 -2.762,9.632 -8.078,9.632 -5.317,0 -8.079,-4.316 -8.079,-9.632 0,-47.865 4.773,-51.243 2.624,-75.246 -0.671,-7.494 -7.459,-9.207 -7.859,-14.769 z"
           id="path2-4"
           style="fill:#ffffff;fill-opacity:1" />
      </g>
      <g
         transform="matrix(0.643502,0,0,0.437248,-352.524,-115.696)"
         id="g3-4"
         style="fill:#74256e;fill-opacity:1">
        <path
           d="m 550.398,310.011 c 0.909,-13.365 7.295,-42.55 16.422,-42.55 9.126,0 15.512,29.185 16.421,42.55 0.887,13.039 -10.296,30.146 -10.967,37.64 -2.149,24.003 2.624,27.381 2.624,75.246 0,5.316 -2.762,9.632 -8.078,9.632 -5.317,0 -8.079,-4.316 -8.079,-9.632 0,-47.865 4.773,-51.243 2.624,-75.246 -0.671,-7.494 -11.854,-24.601 -10.967,-37.64 z"
           id="path3-8-8"
           style="fill:#ffffff;fill-opacity:1" />
      </g>
    </g>
    <g
       id="g8-1"
       inkscape:label="top screw"
       style="clip-rule:evenodd;display:inline;fill-rule:evenodd;stroke-linejoin:bevel;stroke-miterlimit:1.5"
       transform="translate(50.800004,123.51009)">
      <path
         d="m 19.167747,0.59789632 c -1.090437,0 -1.984375,0.89356318 -1.984375,1.98437498 0,1.0908117 0.893937,1.9843751 1.984375,1.984375 h 3.632854 c 1.090438,0 1.984375,-0.8936802 1.984375,-1.984375 0,-1.0906949 -0.893938,-1.98437498 -1.984375,-1.98437498 z m 0,0.85317788 h 3.632854 c 0.628297,0 1.131197,0.5024529 1.131197,1.1311971 0,0.6287441 -0.5029,1.1306804 -1.131197,1.1306804 h -3.632854 c -0.628297,0 -1.128613,-0.5020532 -1.128613,-1.1306804 0,-0.6286273 0.500316,-1.1311971 1.128613,-1.1311971 z"
         style="baseline-shift:baseline;clip-rule:nonzero;display:inline;overflow:visible;opacity:1;vector-effect:none;fill:#ffffff;fill-opacity:1;fill-rule:nonzero;stroke-linejoin:round;enable-background:accumulate;stop-color:#000000;stop-opacity:1"
         id="path56-1" />
      <path
         d="m 23.866123,3.7182779 c 0.303036,-0.2843389 0.492125,-0.6882695 0.492125,-1.1359445 0,-0.244475 -0.05609,-0.4755444 -0.156633,-0.6815667 C 24.07779,1.6467667 23.886584,1.4312195 23.651281,1.2774084 23.406806,1.1176 23.114706,1.0248195 22.801087,1.0248195 h -3.6322 c -0.31362,0 -0.60572,0.09278 -0.850195,0.2525889 -0.09948,0.064911 -0.190852,0.1411111 -0.27305,0.2264833 -0.11183,0.1164167 -0.205669,0.2504722 -0.277283,0.396875 -0.100542,0.2060223 -0.156986,0.4370917 -0.156986,0.6815667 0,0.4183945 0.165453,0.7983362 0.434269,1.0784417 0.01905,0.019756 0.03845,0.038806 0.05821,0.057503 0.14605,0.1368778 0.318558,0.2462389 0.508705,0.3189111 0.172861,0.066322 0.360539,0.1026584 0.556331,0.1026584 h 3.6322 c 0.195792,0 0.383469,-0.036336 0.55633,-0.1026584 0.190148,-0.072672 0.362656,-0.1820333 0.508706,-0.3189111 z"
         style="fill:#00ff00;fill-opacity:1;stroke-width:0.352778"
         id="path37-2-5" />
      <rect
         x="16.790812"
         y="0"
         width="8.609189"
         height="4.9798112"
         style="fill:#ffffff;fill-opacity:0;stroke-width:0.352778"
         id="rect44-2" />
    </g>
    <path
       d="m 31.534744,4.8753765 v 0.09878 c 0,0.0071 0,0.02117 0,0.02822 -0.02822,0.09172 -0.05644,0.119944 -0.148167,0.141111 -0.0071,0.0071 -0.02117,0.0071 -0.02822,0.0071 h -0.204611 -0.388056 -0.381 -0.211667 c -0.0071,0 -0.02117,0 -0.02822,-0.0071 -0.09172,-0.02117 -0.119945,-0.04939 -0.141112,-0.141111 -0.0071,-0.0071 -0.0071,-0.02117 -0.0071,-0.02822 v -0.09878 c 0,-0.05645 -0.04939,-0.112889 -0.112889,-0.112889 h -0.09172 c -0.01411,0 -0.02117,0 -0.03528,0 -0.08467,-0.02822 -0.112889,-0.05644 -0.141111,-0.141112 0,-0.01411 -0.0071,-0.02117 -0.0071,-0.03528 v -0.204611 -0.388055 -0.381001 -0.204611 c 0,-0.01411 0.0071,-0.02117 0.0071,-0.03528 0.02822,-0.09172 0.05644,-0.119944 0.162278,-0.148167 0,0 0,0 0,0 h 0.105833 c 0.0635,0 0.112889,-0.04939 0.112889,-0.112889 v -0.268111 -0.388056 -0.204611 c 0,-0.01411 0,-0.02117 0.0071,-0.02822 0.02117,-0.09172 0.04939,-0.119944 0.141112,-0.148167 0.0071,0 0.02117,0 0.02822,0 h 0.09878 c 0.05644,0 0.112889,-0.04939 0.112889,-0.112889 v -0.275167 -0.204611 c 0,-0.01411 0,-0.02117 0,-0.03528 0.02822,-0.09172 0.05644,-0.112889 0.162278,-0.141111 0,0 0,0 0,0 h 0.105833 c 0.0635,0 0.112889,-0.05645 0.112889,-0.112889 v -0.09878 c 0,-0.0071 0,-0.02117 0.0071,-0.02822 0.02822,-0.09878 0.05644,-0.11994403 0.155222,-0.14816703 0,0 0,0 0,0 h 0.225778 0.381 0.388056 0.218722 c 0,0 0,0 0,0 0.105834,0.02822 0.134056,0.04939 0.162278,0.14816703 0,0.0071 0,0.02117 0,0.02822 v 0.09878 c 0,0.05645 0.04939,0.112889 0.112889,0.112889 h 0.112889 c 0,0 0,0 0,0 0.09878,0.02822 0.127,0.04939 0.155222,0.141111 0.0071,0.01411 0.0071,0.02117 0.0071,0.03528 v 0.204611 0.388056 0.381 0.204612 c 0,0.01411 0,0.02117 -0.0071,0.03528 -0.02822,0.09172 -0.04939,0.112889 -0.141111,0.141111 -0.0071,0.0071 -0.02117,0.0071 -0.02822,0.0071 h -0.09878 c -0.0635,0 -0.112889,0.04939 -0.112889,0.112889 v 0.268111 0.388056 0.204611 c 0,0.01411 0,0.02117 0,0.03528 -0.02822,0.09172 -0.05644,0.112889 -0.162278,0.141111 0,0 0,0 0,0 h -0.05644 c 0,0 0,0 0,0 -0.105834,-0.02822 -0.134056,-0.04939 -0.162278,-0.141111 0,-0.01411 0,-0.02117 0,-0.03528 v -0.09172 c 0,-0.0635 -0.04939,-0.112889 -0.112889,-0.112889 h -0.162278 c -0.0635,0 -0.112889,0.04939 -0.112889,0.112889 v 0.09172 c 0,0.01411 0,0.02117 0,0.03528 -0.02822,0.09172 -0.05644,0.112889 -0.162278,0.141111 0,0 0,0 0,0 h -0.105833 c -0.0635,0 -0.112889,0.04939 -0.112889,0.112889 v 0.162278 c 0,0.0635 0.04939,0.112889 0.112889,0.112889 h 0.155222 c 0.0635,0 0.112889,-0.04939 0.112889,-0.112889 v -0.09172 c 0,-0.01411 0,-0.02117 0.0071,-0.03528 0.02822,-0.09172 0.04939,-0.112889 0.141111,-0.141111 0.0071,0 0.02117,-0.0071 0.03528,-0.0071 h 0.02117 c 0.01411,0 0.02117,0.0071 0.03528,0.0071 0.09172,0.02822 0.112889,0.04939 0.141111,0.141111 0.0071,0.01411 0.0071,0.02117 0.0071,0.03528 v 0.204611 0.204612 c 0,0.01411 0,0.02117 -0.0071,0.03528 -0.02822,0.08467 -0.04939,0.112889 -0.141111,0.141111 -0.01411,0 -0.02117,0 -0.03528,0 h -0.09172 c -0.0635,0 -0.112889,0.05644 -0.112889,0.112889 z m 1.538112,0.127 c -0.02822,0.09172 -0.05644,0.119944 -0.141111,0.141111 -0.01411,0.0071 -0.02117,0.0071 -0.03528,0.0071 h -0.02822 c -0.0071,0 -0.02117,0 -0.02822,-0.0071 -0.09172,-0.02117 -0.119945,-0.04939 -0.148167,-0.141111 0,-0.0071 0,-0.02117 0,-0.02822 v -0.09878 c 0,-0.05645 -0.04939,-0.112889 -0.112889,-0.112889 h -0.09172 c -0.01411,0 -0.02117,0 -0.03528,0 -0.09172,-0.02822 -0.112889,-0.05644 -0.141111,-0.141112 0,-0.01411 -0.0071,-0.02117 -0.0071,-0.03528 v -0.204611 -0.204611 c 0,-0.01411 0.0071,-0.02117 0.0071,-0.03528 0.02822,-0.09172 0.04939,-0.112889 0.141111,-0.141111 0.01411,0 0.02117,-0.0071 0.03528,-0.0071 h 0.09172 c 0.0635,0 0.112889,-0.04939 0.112889,-0.105834 v -0.275162 -0.388056 -0.204611 c 0,-0.0071 0,-0.02117 0,-0.02822 0.02822,-0.09172 0.05644,-0.119944 0.148167,-0.148166 0.0071,0 0.02117,0 0.02822,0 h 0.09878 c 0.05644,0 0.105833,-0.04939 0.105833,-0.112889 v -0.275168 -0.381 -0.388056 -0.275166 c 0,-0.05645 -0.04939,-0.105834 -0.105833,-0.105834 h -0.09878 c -0.0071,0 -0.02117,-0.0071 -0.02822,-0.0071 -0.09172,-0.02822 -0.119945,-0.05645 -0.148167,-0.141111 0,-0.01411 0,-0.02117 0,-0.03528 v -0.09172 c 0,-0.0635 -0.04939,-0.11288903 -0.112889,-0.11288903 h -0.09172 c -0.01411,0 -0.02117,0 -0.03528,-0.0071 -0.09172,-0.02117 -0.112889,-0.04939 -0.141111,-0.141111 0,-0.0071 -0.0071,-0.02117 -0.0071,-0.02822 v -0.09878 c 0,-0.05645 -0.04939,-0.112889 -0.112889,-0.112889 h -0.268111 -0.388056 -0.381 -0.275167 c -0.0635,0 -0.112889,0.05644 -0.112889,0.112889 v 0.09878 c 0,0.0071 0,0.02117 -0.0071,0.02822 -0.02117,0.09172 -0.04939,0.119944 -0.141111,0.141111 -0.0071,0.0071 -0.02117,0.0071 -0.02822,0.0071 h -0.09878 c -0.05644,0 -0.105833,0.04939 -0.105833,0.11288903 v 0.09172 c 0,0.01411 -0.0071,0.02117 -0.0071,0.03528 -0.02822,0.08467 -0.04939,0.112889 -0.141111,0.141111 -0.01411,0 -0.02117,0.0071 -0.03528,0.0071 h -0.09172 c -0.0635,0 -0.112889,0.04939 -0.112889,0.105834 v 0.275166 0.204612 c 0,0.01411 0,0.02117 -0.0071,0.03528 -0.02822,0.09172 -0.04939,0.119944 -0.155222,0.148166 0,0 0,0 0,0 h -0.112889 c -0.05644,0 -0.112889,0.04939 -0.112889,0.112889 v 0.268112 0.388055 0.204612 c 0,0.0071 0,0.02117 0,0.02822 -0.02822,0.09172 -0.05644,0.119944 -0.141111,0.148166 -0.01411,0 -0.02117,0 -0.03528,0 h -0.09172 c -0.0635,0 -0.112889,0.04939 -0.112889,0.112889 v 0.275167 0.381 0.388056 0.275167 c 0,0.05644 0.04939,0.105833 0.112889,0.105833 h 0.09172 c 0.01411,0 0.02117,0.0071 0.03528,0.0071 0.08467,0.02822 0.112889,0.05644 0.141111,0.141112 0,0.01411 0,0.02117 0,0.03528 v 0.09172 c 0,0.0635 0.05645,0.112889 0.112889,0.112889 h 0.112889 c 0,0 0,0 0,0 0.105833,0.02822 0.127,0.04939 0.155222,0.148166 0.0071,0.0071 0.0071,0.02117 0.0071,0.02822 v 0.09878 c 0,0.05645 0.04939,0.112889 0.112889,0.112889 h 0.275167 0.381 0.388056 0.268111 c 0.0635,0 0.112889,-0.05644 0.112889,-0.112889 v -0.09878 c 0,-0.0071 0,-0.02117 0.0071,-0.02822 0.02822,-0.09172 0.04939,-0.119944 0.141111,-0.141111 0.01411,-0.0071 0.02117,-0.0071 0.03528,-0.0071 h 0.09172 c 0.0635,0 0.112889,-0.04939 0.112889,-0.112889 v -0.09172 c 0,-0.01411 0,-0.02117 0,-0.03528 0.02822,-0.08467 0.05644,-0.112889 0.148167,-0.141111 0.0071,0 0.02117,-0.0071 0.02822,-0.0071 h 0.02822 c 0.0071,0 0.02117,0.0071 0.02822,0.0071 0.09172,0.02822 0.119945,0.05644 0.148167,0.141111 0,0.01411 0,0.02117 0,0.03528 v 0.09172 c 0,0.0635 0.04939,0.112889 0.112889,0.112889 h 0.09878 c 0.0071,0 0.02117,0 0.02822,0.0071 0.09172,0.02117 0.112889,0.04939 0.141111,0.141111 0.0071,0.0071 0.0071,0.02117 0.0071,0.02822 v 0.09878 c 0,0.05645 0.04939,0.112889 0.112889,0.112889 h 0.162278 c 0.05644,0 0.105833,-0.05644 0.105833,-0.112889 v -0.09878 c 0,-0.0071 0.0071,-0.02117 0.0071,-0.02822 0.02822,-0.09172 0.04939,-0.119944 0.141111,-0.141111 0.01411,-0.0071 0.02117,-0.0071 0.03528,-0.0071 h 0.09172 c 0.0635,0 0.112889,-0.04939 0.112889,-0.112889 v -0.162277 c 0,-0.05645 -0.04939,-0.112889 -0.112889,-0.112889 h -0.162278 c -0.0635,0 -0.112889,0.05644 -0.112889,0.112889 v 0.09878 c 0,0.0071 0,0.02117 0,0.02822 z m 3.697121,-1.008945 v 0.388055 0.204612 c 0,0.01411 -0.0071,0.02117 -0.0071,0.03528 -0.02822,0.08467 -0.05645,0.112889 -0.141111,0.141111 -0.01411,0 -0.02117,0 -0.03528,0 h -0.09172 c -0.0635,0 -0.112889,0.04939 -0.112889,0.112889 v 0.09878 c 0,0.0071 0,0.02117 -0.0071,0.02822 -0.02117,0.09172 -0.04939,0.119944 -0.141111,0.141111 -0.0071,0.0071 -0.02117,0.0071 -0.02822,0.0071 h -0.211667 -0.381 -0.388056 -0.381 -0.388056 -0.204611 c -0.0071,0 -0.02117,0 -0.02822,-0.0071 -0.09172,-0.02117 -0.119944,-0.04939 -0.148166,-0.141111 0,-0.0071 0,-0.02117 0,-0.02822 v -0.211667 -0.381001 -0.204611 c 0,-0.01411 0,-0.02117 0,-0.03528 0.02822,-0.09172 0.05644,-0.112889 0.148166,-0.141111 0.0071,0 0.02117,-0.0071 0.02822,-0.0071 h 0.09172 c 0.0635,0 0.112889,-0.04939 0.112889,-0.112889 v -0.268107 -0.204611 c 0,-0.01411 0,-0.02822 0.0071,-0.03528 0.02822,-0.09172 0.04939,-0.112889 0.141112,-0.141111 0.01411,-0.0071 0.02117,-0.0071 0.03528,-0.0071 h 0.09172 c 0.0635,0 0.112889,-0.04939 0.112889,-0.112889 v -0.268107 -0.388056 -0.204611 c 0,-0.01411 0,-0.02117 0,-0.03528 0.02822,-0.08467 0.05644,-0.112889 0.148166,-0.141111 0.0071,0 0.02117,0 0.02822,0 h 0.09878 c 0.05645,0 0.105834,-0.05645 0.105834,-0.112889 v -0.275167 -0.388055 -0.204612 c 0,-0.0071 0.0071,-0.02117 0.0071,-0.02822 0.02822,-0.09878 0.05645,-0.11994403 0.155223,-0.14816603 0,0 0,0 0,0 h 0.225778 0.381 0.225778 c 0,0 0,0 0,0 0.105833,0.02822 0.127,0.04939 0.155222,0.14816603 0.0071,0.0071 0.0071,0.02117 0.0071,0.02822 v 0.09878 c 0,0.05645 0.04939,0.105834 0.112889,0.105834 h 0.09172 c 0.01411,0 0.02117,0.0071 0.03528,0.0071 0.08467,0.02822 0.112889,0.05645 0.141111,0.141111 0,0.01411 0.0071,0.02117 0.0071,0.03528 v 0.204611 0.275167 c 0,0.05644 0.04939,0.112889 0.105833,0.112889 h 0.09878 c 0.0071,0 0.02117,0 0.02822,0 0.09172,0.02822 0.119945,0.05645 0.141111,0.141111 0.0071,0.01411 0.0071,0.02117 0.0071,0.03528 v 0.204611 0.388056 0.204611 c 0,0.0071 0,0.02117 -0.0071,0.02822 -0.02117,0.09172 -0.04939,0.119945 -0.141111,0.148167 -0.0071,0 -0.02117,0 -0.02822,0 H 36.8759 c -0.05645,0 -0.105833,0.04939 -0.105833,0.112889 v 0.275162 z m 0.769056,-1.150057 v -0.388056 -0.275166 c 0,-0.05644 -0.04939,-0.105834 -0.112889,-0.105834 h -0.09878 c -0.0071,0 -0.02117,-0.0071 -0.02822,-0.0071 -0.09172,-0.02822 -0.112889,-0.05645 -0.141112,-0.141111 -0.0071,-0.01411 -0.0071,-0.02117 -0.0071,-0.03528 v -0.204607 -0.275166 c 0,-0.05645 -0.04939,-0.112889 -0.112889,-0.112889 h -0.09172 c -0.01411,0 -0.02117,0 -0.03528,0 -0.08467,-0.02822 -0.112889,-0.05645 -0.141111,-0.141112 0,-0.01411 0,-0.02117 0,-0.03528 v -0.09172 c 0,-0.0635 -0.05645,-0.11288903 -0.112889,-0.11288903 h -0.09878 c -0.0071,0 -0.02117,0 -0.02822,-0.0071 -0.09172,-0.02822 -0.119944,-0.04939 -0.141111,-0.141111 -0.0071,-0.0071 -0.0071,-0.02117 -0.0071,-0.02822 v -0.09878 c 0,-0.0635 -0.04939,-0.112889 -0.112889,-0.112889 h -0.275167 -0.381 -0.275167 c -0.0635,0 -0.112889,0.04939 -0.112889,0.112889 v 0.09878 c 0,0.0071 0,0.02117 0,0.02822 -0.02822,0.09172 -0.05645,0.112889 -0.141111,0.141111 -0.01411,0.0071 -0.02117,0.0071 -0.03528,0.0071 h -0.02822 c -0.0071,0 -0.02117,0 -0.02822,-0.0071 -0.09172,-0.02822 -0.119944,-0.04939 -0.148166,-0.141111 0,-0.0071 0,-0.02117 0,-0.02822 v -0.09878 c 0,-0.0635 -0.04939,-0.112889 -0.112889,-0.112889 h -0.162192 c -0.0635,0 -0.112889,0.04939 -0.112889,0.112889 v 0.09878 c 0,0.0071 0,0.02117 0,0.02822 -0.02822,0.09172 -0.05645,0.112889 -0.148167,0.141111 -0.0071,0.0071 -0.02117,0.0071 -0.02822,0.0071 h -0.09172 c -0.0635,0 -0.112889,0.04939 -0.112889,0.11288903 v 0.162278 c 0,0.05645 0.04939,0.105834 0.112889,0.105834 h 0.155222 c 0.0635,0 0.112889,-0.04939 0.112889,-0.105834 v -0.09878 c 0,-0.0071 0,-0.02117 0.0071,-0.02822 0.02822,-0.09878 0.05645,-0.11994403 0.155223,-0.14816603 0,0 0,0 0,0 h 0.0635 c 0,0 0,0 0,0 0.09878,0.02822 0.127,0.04939 0.155222,0.14816603 0.0071,0.0071 0.0071,0.02117 0.0071,0.02822 v 0.204612 0.388055 0.204612 c 0,0.01411 0,0.02117 -0.0071,0.03528 -0.02822,0.08467 -0.04939,0.112889 -0.141111,0.141111 -0.0071,0 -0.02117,0.0071 -0.02822,0.0071 h -0.09878 c -0.0635,0 -0.112889,0.04939 -0.112889,0.105833 v 0.275167 0.388056 0.204611 c 0,0.0071 0,0.02117 0,0.02822 -0.02822,0.09172 -0.05645,0.119945 -0.148167,0.148167 -0.0071,0 -0.02117,0 -0.02822,0 h -0.09172 c -0.0635,0 -0.112889,0.04939 -0.112889,0.112889 v 0.275167 0.204611 c 0,0.0071 0,0.02117 -0.0071,0.02822 -0.02822,0.09172 -0.04939,0.119944 -0.141111,0.148167 -0.01411,0 -0.02117,0 -0.03528,0 h -0.09172 c -0.0635,0 -0.112889,0.04939 -0.112889,0.112889 v 0.275166 0.381001 0.211666 c 0,0.0071 0,0.02117 0,0.02822 -0.02822,0.09172 -0.05645,0.119945 -0.148167,0.141112 -0.0071,0.0071 -0.02117,0.0071 -0.02822,0.0071 h -0.09878 c -0.05645,0 -0.105833,0.04939 -0.105833,0.112889 v 0.162278 c 0,0.05645 0.04939,0.105833 0.105833,0.105833 h 0.162278 c 0.0635,0 0.112889,-0.04939 0.112889,-0.105833 v -0.09878 c 0,-0.0071 0,-0.02117 0.0071,-0.02822 0.02822,-0.09878 0.05645,-0.119945 0.155223,-0.148167 0,0 0,0 0,0 h 0.0635 c 0,0 0,0 0,0 0.09878,0.02822 0.127,0.04939 0.155222,0.148167 0.0071,0.0071 0.0071,0.02117 0.0071,0.02822 v 0.09878 c 0,0.05645 0.04939,0.105833 0.112889,0.105833 h 0.268111 0.388056 0.381 0.388056 0.381 0.275167 c 0.0635,0 0.112889,-0.04939 0.112889,-0.105833 v -0.09878 c 0,-0.0071 0,-0.02117 0.0071,-0.02822 0.02822,-0.09878 0.04939,-0.119945 0.155223,-0.148167 0,0 0,0 0,0 h 0.112889 c 0.05644,0 0.112889,-0.04939 0.112889,-0.112889 v -0.09172 c 0,-0.01411 0,-0.02117 0,-0.03528 0.02822,-0.09172 0.05644,-0.112889 0.141111,-0.141111 0.01411,0 0.02117,-0.0071 0.03528,-0.0071 h 0.09172 c 0.0635,0 0.112889,-0.04939 0.112889,-0.105834 v -0.275171 -0.388055 -0.381001 -0.204611 c 0,-0.01411 0,-0.02822 0.0071,-0.03528 0.02822,-0.09172 0.04939,-0.112889 0.141112,-0.141111 0.0071,-0.0071 0.02117,-0.0071 0.02822,-0.0071 h 0.09878 c 0.0635,0 0.112889,-0.04939 0.112889,-0.112889 v -0.268107 z m 3.323175,-1.157112 v 0.388056 0.381 0.204612 c 0,0.01411 0,0.02117 -0.0071,0.03528 -0.02822,0.09172 -0.04939,0.112889 -0.141111,0.141111 -0.0071,0 -0.02117,0.0071 -0.02822,0.0071 h -0.09878 c -0.0635,0 -0.112889,0.04939 -0.112889,0.112889 v 0.268111 0.388056 0.204611 c 0,0.0071 0,0.02117 0,0.02822 -0.02822,0.09172 -0.05644,0.119945 -0.148166,0.148167 -0.0071,0 -0.01411,0 -0.02822,0 h -0.09172 c -0.0635,0 -0.112889,0.04939 -0.112889,0.112889 v 0.275167 0.381 0.211667 c 0,0.0071 0,0.02117 -0.0071,0.02822 -0.02822,0.09172 -0.04939,0.119944 -0.141112,0.141111 -0.0071,0.0071 -0.02117,0.0071 -0.03528,0.0071 h -0.204612 -0.381 -0.388056 -0.381 -0.211667 c -0.0071,0 -0.02117,0 -0.02822,-0.0071 -0.09172,-0.02117 -0.119944,-0.04939 -0.141111,-0.141111 -0.0071,-0.0071 -0.0071,-0.02117 -0.0071,-0.02822 v -0.211671 -0.381001 -0.388055 -0.381001 -0.204611 c 0,-0.01411 0,-0.02117 0.0071,-0.03528 0.02117,-0.09172 0.04939,-0.112889 0.141111,-0.141111 0.0071,-0.0071 0.02117,-0.0071 0.02822,-0.0071 h 0.09878 c 0.0635,0 0.112889,-0.04939 0.112889,-0.112889 v -0.268107 -0.388056 -0.204611 c 0,-0.01411 0,-0.02117 0,-0.03528 0.02822,-0.08467 0.05645,-0.112889 0.141111,-0.141111 0.01411,0 0.02117,0 0.03528,0 h 0.09172 c 0.0635,0 0.112889,-0.05645 0.112889,-0.112889 v -0.275167 -0.388055 -0.204612 c 0,-0.0071 0,-0.02117 0.0071,-0.02822 0.02822,-0.09172 0.04939,-0.11994403 0.141111,-0.14111103 0.0071,-0.0071 0.02117,-0.0071 0.02822,-0.0071 h 0.211667 0.381 0.388056 0.381 0.211667 c 0.0071,0 0.02117,0 0.02822,0.0071 0.09172,0.02117 0.112888,0.04939 0.141111,0.14111103 0.0071,0.0071 0.0071,0.02117 0.0071,0.02822 v 0.204612 z m 0.148167,-0.77611103 c -0.09172,-0.02117 -0.119944,-0.04939 -0.141111,-0.141111 -0.0071,-0.0071 -0.0071,-0.02117 -0.0071,-0.02822 v -0.09878 c 0,-0.0635 -0.04939,-0.112889 -0.112889,-0.112889 h -0.275167 -0.381 -0.388056 -0.381 -0.275167 c -0.0635,0 -0.112889,0.04939 -0.112889,0.112889 v 0.09878 c 0,0.0071 0,0.02117 -0.0071,0.02822 -0.02117,0.09878 -0.04939,0.119944 -0.155222,0.148166 0,0 0,0 0,0 h -0.112889 c -0.05645,0 -0.105834,0.04939 -0.105834,0.11288903 v 0.268112 0.388055 0.204612 c 0,0.01411 -0.0071,0.02117 -0.0071,0.03528 -0.02822,0.09172 -0.05644,0.119944 -0.162278,0.148166 0,0 0,0 0,0 h -0.105834 c -0.0635,0 -0.112889,0.04939 -0.112889,0.105834 v 0.275167 0.388055 0.204612 c 0,0.0071 0,0.02117 -0.0071,0.02822 -0.02822,0.09878 -0.04939,0.119944 -0.155223,0.148166 0,0 0,0 0,0 h -0.112889 c -0.05644,0 -0.105833,0.04939 -0.105833,0.112889 v 0.275167 0.381 0.388056 0.381 0.275167 c 0,0.0635 0.04939,0.112889 0.105833,0.112889 h 0.112889 c 0,0 0,0 0,0 0.105834,0.02822 0.127001,0.04939 0.155223,0.148167 0.0071,0.0071 0.0071,0.02117 0.0071,0.02822 v 0.09878 c 0,0.05645 0.04939,0.105833 0.112889,0.105833 h 0.275167 0.381 0.388056 0.381 0.275167 c 0.0635,0 0.112889,-0.04939 0.112889,-0.105833 v -0.09878 c 0,-0.0071 0,-0.02117 0,-0.02822 0.02822,-0.09878 0.05645,-0.119944 0.162278,-0.148167 0,0 0,0 0,0 h 0.105834 c 0.0635,0 0.112888,-0.04939 0.112888,-0.112889 v -0.275166 -0.381001 -0.204611 c 0,-0.01411 0.0071,-0.02117 0.0071,-0.03528 0.02822,-0.09172 0.04939,-0.112889 0.141111,-0.141111 0.01411,0 0.02117,-0.0071 0.03528,-0.0071 h 0.09172 c 0.0635,0 0.112889,-0.04939 0.112889,-0.112889 v -0.268107 -0.388056 -0.204611 c 0,-0.01411 0,-0.02117 0.0071,-0.02822 0.02117,-0.09172 0.04939,-0.119944 0.141111,-0.148166 0.0071,0 0.02117,0 0.02822,0 h 0.09878 c 0.05645,0 0.105834,-0.04939 0.105834,-0.112889 v -0.275168 -0.381 -0.388056 -0.388055 -0.268112 c 0,-0.0635 -0.04939,-0.11288903 -0.105834,-0.11288903 h -0.09878 c -0.0071,0 -0.02117,0 -0.02822,-0.0071 z m 2.497671,-0.07761 c -0.02117,0.04233 -0.04939,0.0635 -0.112889,0.07761 -0.01411,0.0071 -0.02117,0.0071 -0.03528,0.0071 h -0.105833 c -0.0635,0 -0.112889,0.04939 -0.112889,0.11288903 v 0.09172 c 0,0.01411 -0.0071,0.02117 -0.0071,0.03528 -0.02822,0.08467 -0.04939,0.112889 -0.141111,0.141111 -0.01411,0 -0.02117,0 -0.03528,0 h -0.09172 c -0.0635,0 -0.112889,0.05645 -0.112889,0.112889 v 0.162278 c 0,0.0635 0.04939,0.112889 0.112889,0.112889 h 0.162278 c 0.0635,0 0.112889,-0.04939 0.112889,-0.112889 v -0.09172 c 0,-0.01411 0,-0.02117 0,-0.03528 0.02822,-0.08467 0.05644,-0.112889 0.148166,-0.141111 0.0071,0 0.02117,-0.0071 0.02822,-0.0071 h 0.02822 c 0.0071,0 0.02117,0.0071 0.02822,0.0071 0.09172,0.02822 0.119945,0.05645 0.148167,0.141111 0,0.01411 0,0.02117 0,0.03528 v 0.204611 0.204611 c 0,0.01411 0,0.02117 0,0.03528 -0.02822,0.09172 -0.05645,0.112889 -0.148167,0.141112 -0.0071,0 -0.02117,0.0071 -0.02822,0.0071 h -0.09172 c -0.0635,0 -0.112889,0.04939 -0.112889,0.105833 v 0.275167 0.388056 0.204611 c 0,0.0071 -0.0071,0.02117 -0.0071,0.02822 -0.02822,0.09172 -0.04939,0.119944 -0.141111,0.148166 -0.01411,0 -0.02117,0 -0.03528,0 h -0.09172 c -0.0635,0 -0.112889,0.04939 -0.112889,0.112889 v 0.275167 0.204612 c 0,0.0071 0,0.02117 -0.0071,0.02822 -0.02117,0.09172 -0.04939,0.119944 -0.141111,0.148166 -0.0071,0 -0.02117,0 -0.02822,0 h -0.09878 c -0.05644,0 -0.105833,0.04939 -0.105833,0.112889 v 0.275167 0.381 0.211667 c 0,0.0071 -0.0071,0.02117 -0.0071,0.02822 -0.02822,0.09172 -0.04939,0.119945 -0.141111,0.141111 -0.01411,0.0071 -0.02117,0.0071 -0.03528,0.0071 h -0.204611 -0.275167 c -0.05645,0 -0.105833,0.04939 -0.105833,0.112889 v 0.162278 c 0,0.05645 0.04939,0.105834 0.105833,0.105834 h 0.275167 0.388056 0.381 0.388056 0.268111 c 0.0635,0 0.112889,-0.04939 0.112889,-0.105834 v -0.162287 c 0,-0.0635 -0.04939,-0.112889 -0.112889,-0.112889 h -0.268111 -0.211667 c -0.0071,0 -0.02117,0 -0.02822,-0.0071 -0.09172,-0.02117 -0.112889,-0.04939 -0.141112,-0.141111 -0.0071,-0.0071 -0.0071,-0.02117 -0.0071,-0.02822 v -0.211662 -0.381001 -0.204611 c 0,-0.01411 0,-0.02117 0.0071,-0.03528 0.02822,-0.09172 0.04939,-0.112889 0.141112,-0.141111 0.0071,0 0.02117,-0.0071 0.02822,-0.0071 h 0.09878 c 0.0635,0 0.112889,-0.04939 0.112889,-0.112889 v -0.268107 -0.204611 c 0,-0.01411 0,-0.02117 0,-0.03528 0.02822,-0.09172 0.05644,-0.112889 0.148166,-0.141111 0.0071,-0.0071 0.02117,-0.0071 0.02822,-0.0071 h 0.09172 c 0.0635,0 0.112889,-0.04939 0.112889,-0.112889 v -0.268107 -0.388056 -0.204611 c 0,-0.01411 0,-0.02117 0.0071,-0.03528 0.02822,-0.08467 0.04939,-0.112889 0.141112,-0.141111 0.01411,0 0.02117,0 0.03528,0 h 0.09172 c 0.0635,0 0.112889,-0.05645 0.112889,-0.112889 v -0.275167 -0.388055 -0.38100103 -0.275166 c 0,-0.0635 -0.04939,-0.112889 -0.112889,-0.112889 h -0.162278 c -0.0635,0 -0.112889,0.04939 -0.112889,0.112889 v 0.141111 c 0,0.01411 0,0.03528 -0.01411,0.04939 z m 3.062109,0 c -0.0212,0.04233 -0.0494,0.0635 -0.11288,0.07761 -0.0141,0.0071 -0.0212,0.0071 -0.0353,0.0071 h -0.10584 c -0.0635,0 -0.11289,0.04939 -0.11289,0.11288903 v 0.09172 c 0,0.01411 -0.007,0.02117 -0.007,0.03528 -0.0282,0.08467 -0.0494,0.112889 -0.14111,0.141111 -0.0141,0 -0.0212,0 -0.0353,0 h -0.0917 c -0.0635,0 -0.11289,0.05645 -0.11289,0.112889 v 0.162278 c 0,0.0635 0.0494,0.112889 0.11289,0.112889 h 0.16228 c 0.0635,0 0.11289,-0.04939 0.11289,-0.112889 v -0.09172 c 0,-0.01411 0,-0.02117 0,-0.03528 0.0282,-0.08467 0.0564,-0.112889 0.14817,-0.141111 0.007,0 0.0212,-0.0071 0.0282,-0.0071 h 0.0282 c 0.007,0 0.0212,0.0071 0.0282,0.0071 0.0917,0.02822 0.11994,0.05645 0.14816,0.141111 0,0.01411 0,0.02117 0,0.03528 v 0.204611 0.204611 c 0,0.01411 0,0.02117 0,0.03528 -0.0282,0.09172 -0.0564,0.112889 -0.14816,0.141112 -0.007,0 -0.0212,0.0071 -0.0282,0.0071 h -0.0917 c -0.0635,0 -0.11289,0.04939 -0.11289,0.105833 v 0.275167 0.388056 0.204611 c 0,0.0071 -0.007,0.02117 -0.007,0.02822 -0.0282,0.09172 -0.0494,0.119944 -0.14111,0.148166 -0.0141,0 -0.0212,0 -0.0353,0 h -0.0917 c -0.0635,0 -0.11289,0.04939 -0.11289,0.112889 v 0.275167 0.204612 c 0,0.0071 0,0.02117 -0.007,0.02822 -0.0212,0.09172 -0.0494,0.119944 -0.14111,0.148166 -0.007,0 -0.0212,0 -0.0282,0 h -0.0988 c -0.0564,0 -0.10584,0.04939 -0.10584,0.112889 v 0.275167 0.381 0.211667 c 0,0.0071 -0.007,0.02117 -0.007,0.02822 -0.0282,0.09172 -0.0494,0.119945 -0.14111,0.141111 -0.0141,0.0071 -0.0212,0.0071 -0.0353,0.0071 h -0.20443 -0.275163 c -0.05645,0 -0.105834,0.04939 -0.105834,0.112889 v 0.162278 c 0,0.05645 0.04939,0.105834 0.105834,0.105834 h 0.275163 0.38806 0.381 0.38805 0.26812 c 0.0635,0 0.11289,-0.04939 0.11289,-0.105834 v -0.162287 c 0,-0.0635 -0.0494,-0.112889 -0.11289,-0.112889 h -0.26812 -0.21166 c -0.007,0 -0.0212,0 -0.0282,-0.0071 -0.0917,-0.02117 -0.11289,-0.04939 -0.14111,-0.141111 -0.007,-0.0071 -0.007,-0.02117 -0.007,-0.02822 v -0.211662 -0.381001 -0.204611 c 0,-0.01411 0,-0.02117 0.007,-0.03528 0.0282,-0.09172 0.0494,-0.112889 0.14111,-0.141111 0.007,0 0.0212,-0.0071 0.0282,-0.0071 h 0.0988 c 0.0635,0 0.11289,-0.04939 0.11289,-0.112889 v -0.268107 -0.204611 c 0,-0.01411 0,-0.02117 0,-0.03528 0.0282,-0.09172 0.0564,-0.112889 0.14817,-0.141111 0.007,-0.0071 0.0212,-0.0071 0.0282,-0.0071 h 0.0917 c 0.0635,0 0.11288,-0.04939 0.11288,-0.112889 v -0.268107 -0.388056 -0.204611 c 0,-0.01411 0,-0.02117 0.007,-0.03528 0.0282,-0.08467 0.0494,-0.112889 0.14112,-0.141111 0.0141,0 0.0212,0 0.0353,0 h 0.0917 c 0.0635,0 0.11289,-0.05645 0.11289,-0.112889 v -0.275167 -0.388055 -0.38100103 -0.275166 c 0,-0.0635 -0.0494,-0.112889 -0.11289,-0.112889 h -0.16227 c -0.0635,0 -0.11289,0.04939 -0.11289,0.112889 v 0.141111 c 0,0.01411 0,0.03528 -0.0141,0.04939 z"
       id="text1"
       style="font-weight:bold;font-size:7.05556px;font-family:Voxel;-inkscape-font-specification:'Voxel Bold';text-align:center;letter-spacing:0px;word-spacing:0px;text-anchor:middle;fill:#ffffff;stroke-linejoin:round;paint-order:stroke fill markers"
       aria-label="QD011" />
  </g>
</svg>
